<svg id="up" xmlns="http://www.w3.org/2000/svg" width="52.676" height="60.515" viewBox="0 0 52.676 60.515">
  <g id="Polygon_2" data-name="Polygon 2" transform="translate(52.675) rotate(90)" fill="none">
    <path d="M30.257,0A26.137,26.137,0,0,1,52.921,13.118l.115.2a26.137,26.137,0,0,1,0,26.037l-.115.2A26.137,26.137,0,0,1,30.257,52.675h0A26.137,26.137,0,0,1,7.593,39.557l-.115-.2a26.137,26.137,0,0,1,0-26.037l.115-.2A26.137,26.137,0,0,1,30.257,0Z" stroke="none"/>
    <path d="M 30.25727272033691 0.9999923706054688 C 25.84120178222656 0.9999923706054688 21.48680114746094 2.169334411621094 17.66481399536133 4.381595611572266 C 13.84282302856445 6.593845367431641 10.65999221801758 9.787242889404297 8.460422515869141 13.61649322509766 L 8.345024108886719 13.81743240356445 C 6.15997314453125 17.62141418457031 5.005023956298828 21.95086288452148 5.005023956298828 26.33774375915527 C 5.005023956298828 30.72461318969727 6.15997314453125 35.05407333374023 8.345001220703125 38.85805511474609 L 8.460403442382812 39.05893325805664 C 10.65998458862305 42.88823318481445 13.84281158447266 46.08163452148438 17.66480255126953 48.29389190673828 C 21.48679351806641 50.50614547729492 25.84120178222656 51.67548370361328 30.25727272033691 51.67548370361328 C 34.67334365844727 51.67548370361328 39.02775192260742 50.50614547729492 42.8497314453125 48.29389190673828 C 46.67172241210938 46.08163452148438 49.85456085205078 42.88824462890625 52.05414199829102 39.05895233154297 L 52.16953277587891 38.85805511474609 C 54.35457229614258 35.05407333374023 55.509521484375 30.72461318969727 55.509521484375 26.33774375915527 C 55.509521484375 21.95086288452148 54.35457229614258 17.62141418457031 52.16954040527344 13.81743240356445 L 52.05414199829102 13.61655426025391 C 49.85456085205078 9.787242889404297 46.67173385620117 6.593852996826172 42.8497428894043 4.381595611572266 C 39.02775192260742 2.169334411621094 34.67334365844727 0.9999923706054688 30.25727272033691 0.9999923706054688 M 30.25727272033691 -7.62939453125e-06 C 39.61570358276367 -7.62939453125e-06 48.25997161865234 5.003501892089844 52.92127227783203 13.11846542358398 L 53.03666305541992 13.31934356689453 C 57.66714096069336 21.38064384460449 57.66714096069336 31.29483413696289 53.03666305541992 39.35614395141602 L 52.92127227783203 39.55703353881836 C 48.25996398925781 47.67198181152344 39.61570358276367 52.67548370361328 30.25727272033691 52.67548370361328 C 20.89884185791016 52.67548370361328 12.25457382202148 47.67198181152344 7.593273162841797 39.55702209472656 L 7.477882385253906 39.35614395141602 C 2.847404479980469 31.29483413696289 2.847404479980469 21.38064384460449 7.477893829345703 13.31934356689453 L 7.593273162841797 13.11845397949219 C 12.25458145141602 5.003501892089844 20.89884185791016 -7.62939453125e-06 30.25727272033691 -7.62939453125e-06 Z" stroke="none" fill="#dedede"/>
  </g>
  <path id="arrow-right" d="M6.819,0,5.955.864,9.621,4.53H0V5.752H9.62L5.954,9.417l.864.864,5.141-5.141Z" transform="translate(21.435 36.332) rotate(-90)" fill="#ccc"/>
</svg>
