<svg xmlns="http://www.w3.org/2000/svg" width="16.7" height="23.526" viewBox="0 0 16.7 23.526">
  <path id="pin" d="M7.675.25A7.484,7.484,0,0,1,13.134,2.49,7.36,7.36,0,0,1,15.4,7.925a10.5,10.5,0,0,1-.8,3.682A21.378,21.378,0,0,1,12.67,15.47q-1.133,1.777-2.266,3.348T8.5,21.316l-.824.876q-.309-.309-.824-.927t-1.828-2.4q-1.313-1.777-2.344-3.451A23.538,23.538,0,0,1,.824,11.633,10.41,10.41,0,0,1,0,7.925,7.4,7.4,0,0,1,2.24,2.49,7.4,7.4,0,0,1,7.675.25Zm0,10.4a2.718,2.718,0,0,0,1.957-.8,2.676,2.676,0,0,0,0-3.863,2.713,2.713,0,0,0-1.957-.8,2.726,2.726,0,0,0-2.73,2.73,2.725,2.725,0,0,0,2.73,2.729Z" transform="translate(0.65 0.4)" fill="none" stroke="#166441" stroke-width="1.3"/>
</svg>
