<svg width="69" height="69" viewBox="0 0 69 69" fill="none" xmlns="http://www.w3.org/2000/svg">
<path opacity="0.1" fill-rule="evenodd" clip-rule="evenodd" d="M0.704102 34.7461C0.704102 15.9684 15.9264 0.746094 34.7041 0.746094C53.4818 0.746094 68.7041 15.9684 68.7041 34.7461C68.7041 53.5238 53.4818 68.7461 34.7041 68.7461C15.9264 68.7461 0.704102 53.5238 0.704102 34.7461Z" fill="#0086D1"/>
<path d="M38.5985 37.4027H43.0256L44.7964 30.3193H38.5985V26.7777C38.5985 24.9537 38.5985 23.236 42.1401 23.236H44.7964V17.286C44.2191 17.2099 42.0392 17.0381 39.7371 17.0381C34.9293 17.0381 31.5151 19.9724 31.5151 25.361V30.3193H26.2026V37.4027H31.5151V52.4548H38.5985V37.4027Z" fill="#0086D1"/>
</svg>
