<svg width="81" height="81" viewBox="0 0 81 81" fill="none" xmlns="http://www.w3.org/2000/svg">
<g clip-path="url(#clip0_1_2981)">
<path d="M31.8517 61.5908H13.5712C12.5715 61.5908 11.7612 62.4011 11.7612 63.4008C11.7612 64.4004 12.5715 65.2107 13.5712 65.2107H31.8517C32.8514 65.2107 33.6617 64.4004 33.6617 63.4008C33.6617 62.4011 32.8514 61.5908 31.8517 61.5908Z" fill="white"/>
<path d="M59.1818 61.5908H40.9013C39.9016 61.5908 39.0913 62.4011 39.0913 63.4008C39.0913 64.4004 39.9016 65.2107 40.9013 65.2107H59.1818C60.1813 65.2107 60.9918 64.4004 60.9918 63.4008C60.9918 62.4011 60.1813 61.5908 59.1818 61.5908Z" fill="white"/>
<path d="M59.182 16.3418H13.5712C12.5715 16.3418 11.7612 17.1521 11.7612 18.1518C11.7612 19.1514 12.5715 19.9617 13.5712 19.9617H59.182C60.1815 19.9617 60.992 19.1514 60.992 18.1518C60.992 17.1521 60.1815 16.3418 59.182 16.3418Z" fill="white"/>
<path d="M59.1818 25.3916H40.9013C39.9016 25.3916 39.0913 26.2019 39.0913 27.2016C39.0913 28.2012 39.9016 29.0115 40.9013 29.0115H59.1818C60.1813 29.0115 60.9918 28.2012 60.9918 27.2016C60.9918 26.2019 60.1813 25.3916 59.1818 25.3916Z" fill="white"/>
<path d="M59.1818 34.4414H40.9013C39.9016 34.4414 39.0913 35.2517 39.0913 36.2514C39.0913 37.251 39.9016 38.0613 40.9013 38.0613H59.1818C60.1813 38.0613 60.9918 37.251 60.9918 36.2514C60.9918 35.2517 60.1813 34.4414 59.1818 34.4414Z" fill="white"/>
<path d="M59.1818 43.4912H40.9013C39.9016 43.4912 39.0913 44.3015 39.0913 45.3012C39.0913 46.3008 39.9016 47.1111 40.9013 47.1111H59.1818C60.1813 47.1111 60.9918 46.3008 60.9918 45.3012C60.9918 44.3015 60.1813 43.4912 59.1818 43.4912Z" fill="white"/>
<path d="M59.1818 52.541H40.9013C39.9016 52.541 39.0913 53.3513 39.0913 54.351C39.0913 55.3506 39.9016 56.1609 40.9013 56.1609H59.1818C60.1813 56.1609 60.9918 55.3506 60.9918 54.351C60.9918 53.3513 60.1813 52.541 59.1818 52.541Z" fill="white"/>
<path d="M31.8517 52.541H13.5712C12.5715 52.541 11.7612 53.3513 11.7612 54.351C11.7612 55.3506 12.5715 56.1609 13.5712 56.1609H31.8517C32.8514 56.1609 33.6617 55.3506 33.6617 54.351C33.6617 53.3513 32.8514 52.541 31.8517 52.541Z" fill="white"/>
<path d="M31.8517 25.3916H13.5712C12.5715 25.3916 11.7612 26.2019 11.7612 27.2016V45.4821C11.7612 46.4817 12.5715 47.2921 13.5712 47.2921H31.8517C32.8514 47.2921 33.6617 46.4817 33.6617 45.4821V27.2016C33.6617 26.2019 32.8514 25.3916 31.8517 25.3916ZM30.0418 43.6721H15.3811V29.0115H30.0418V43.6721Z" fill="white"/>
<path d="M77.2815 14.5322H71.8516V9.10233C71.8516 7.10631 70.2277 5.48242 68.2317 5.48242H4.52128C2.52526 5.48242 0.901367 7.10631 0.901367 9.10233V67.0209C0.901367 72.0109 4.9611 76.0707 9.95114 76.0707H71.8516C76.8416 76.0707 80.9014 72.0109 80.9014 67.0209V18.1521C80.9014 16.1561 79.2775 14.5322 77.2815 14.5322ZM77.2815 67.0209C77.2815 70.0149 74.8456 72.4507 71.8516 72.4507H9.95114C6.95711 72.4507 4.52128 70.0149 4.52128 67.0209V9.10233H68.2317V64.3059C68.2317 66.801 70.2615 68.8308 72.7566 68.8308C73.756 68.8308 74.5665 68.0205 74.5665 67.0209C74.5665 66.0212 73.756 65.2109 72.7566 65.2109C72.2576 65.2109 71.8516 64.805 71.8516 64.3059V18.1521H77.2815V67.0209Z" fill="white"/>
</g>
<defs>
<clipPath id="clip0_1_2981">
<rect width="80" height="80" fill="white" transform="translate(0.901367 0.776367)"/>
</clipPath>
</defs>
</svg>
