<svg width="69" height="69" viewBox="0 0 69 69" fill="none" xmlns="http://www.w3.org/2000/svg">
<path opacity="0.1" fill-rule="evenodd" clip-rule="evenodd" d="M0.704102 34.7461C0.704102 15.9684 15.9264 0.746094 34.7041 0.746094C53.4818 0.746094 68.7041 15.9684 68.7041 34.7461C68.7041 53.5238 53.4818 68.7461 34.7041 68.7461C15.9264 68.7461 0.704102 53.5238 0.704102 34.7461Z" fill="#0086D1"/>
<path fill-rule="evenodd" clip-rule="evenodd" d="M33.6858 28.3821L33.7572 29.5586L32.568 29.4145C28.2397 28.8623 24.4583 26.9895 21.2477 23.8443L19.678 22.2836L19.2737 23.4361C18.4176 26.0051 18.9646 28.7182 20.7482 30.543C21.6995 31.5514 21.4855 31.6955 19.8445 31.0952C19.2737 30.9031 18.7743 30.7591 18.7267 30.8311C18.5603 30.9992 19.131 33.1841 19.5829 34.0484C20.2012 35.2489 21.4617 36.4254 22.8411 37.1217L24.0064 37.6739L22.627 37.6979C21.2952 37.6979 21.2477 37.7219 21.3904 38.2261C21.866 39.7867 23.7448 41.4434 25.8376 42.1637L27.3122 42.6679L26.0279 43.4362C24.1253 44.5407 21.8898 45.1649 19.6542 45.2129C18.584 45.2369 17.7041 45.333 17.7041 45.405C17.7041 45.6451 20.6055 46.9896 22.2941 47.5179C27.3597 49.0785 33.3766 48.4062 37.8953 45.7411C41.1059 43.8444 44.3165 40.0748 45.8148 36.4254C46.6234 34.4806 47.432 30.9271 47.432 29.2225C47.432 28.118 47.5033 27.9739 48.8351 26.6534C49.6199 25.8851 50.3572 25.0448 50.4999 24.8047C50.7377 24.3485 50.7139 24.3485 49.501 24.7566C47.4795 25.4769 47.1942 25.3809 48.193 24.3005C48.9303 23.5321 49.8102 22.1396 49.8102 21.7314C49.8102 21.6594 49.4535 21.7794 49.0492 21.9955C48.6211 22.2356 47.6698 22.5958 46.9563 22.8119L45.6721 23.22L44.5068 22.4277C43.8646 21.9955 42.9609 21.5153 42.4853 21.3713C41.2724 21.0351 39.4173 21.0832 38.3234 21.4673C35.3506 22.5477 33.4718 25.3329 33.6858 28.3821Z" fill="#0086D1"/>
</svg>
