<svg width="69" height="69" viewBox="0 0 69 69" fill="none" xmlns="http://www.w3.org/2000/svg">
<path opacity="0.1" fill-rule="evenodd" clip-rule="evenodd" d="M0.704102 34.7461C0.704102 15.9684 15.9264 0.746094 34.7041 0.746094C53.4818 0.746094 68.7041 15.9684 68.7041 34.7461C68.7041 53.5238 53.4818 68.7461 34.7041 68.7461C15.9264 68.7461 0.704102 53.5238 0.704102 34.7461Z" fill="#C10C37"/>
<path fill-rule="evenodd" clip-rule="evenodd" d="M48.8726 23.0575C50.4331 23.4857 51.662 24.7474 52.0791 26.3497C52.837 29.2536 52.837 35.3126 52.837 35.3126C52.837 35.3126 52.837 41.3714 52.0791 44.2756C51.662 45.8778 50.4331 47.1395 48.8726 47.568C46.0446 48.346 34.7036 48.346 34.7036 48.346C34.7036 48.346 23.3627 48.346 20.5345 47.568C18.974 47.1395 17.7451 45.8778 17.328 44.2756C16.5703 41.3714 16.5703 35.3126 16.5703 35.3126C16.5703 35.3126 16.5703 29.2536 17.328 26.3497C17.7451 24.7474 18.974 23.4857 20.5345 23.0575C23.3627 22.2793 34.7036 22.2793 34.7036 22.2793C34.7036 22.2793 46.0446 22.2793 48.8726 23.0575ZM31.3037 30.2125V41.5458L40.3703 35.8794L31.3037 30.2125Z" fill="#C10C37"/>
</svg>
