<svg width="110" height="85" viewBox="0 0 110 85" fill="none" xmlns="http://www.w3.org/2000/svg">
<path d="M0 84.2161V60.1572C0 53.2383 1.29729 46.0442 3.89188 38.575C6.56509 31.0271 10.1823 23.9116 14.7425 17.2286C19.3813 10.467 24.5705 4.76674 30.31 0.12793L50.1231 12.9829C45.4843 19.9804 41.5925 27.2924 38.4475 34.919C35.3812 42.4668 33.8871 50.801 33.9658 59.9213V84.2161H0ZM59.794 84.2161V60.1572C59.794 53.2383 61.0913 46.0442 63.6859 38.575C66.3591 31.0271 69.9754 23.9116 74.5355 17.2286C79.1744 10.467 84.3635 4.76674 90.1031 0.12793L109.916 12.9829C105.277 19.9804 101.385 27.2924 98.2405 34.919C95.1742 42.4668 93.6802 50.801 93.7588 59.9213V84.2161H59.794Z" fill="white" fill-opacity="0.1"/>
</svg>
