<svg width="162" height="124" viewBox="0 0 162 124" fill="none" xmlns="http://www.w3.org/2000/svg">
<path d="M161.177 0.172119L161.177 35.3201C161.177 45.428 159.282 55.9379 155.491 66.8498C151.586 77.8766 146.301 88.2717 139.639 98.035C132.862 107.913 125.281 116.241 116.896 123.018L87.9512 104.238C94.7281 94.0148 100.414 83.3326 105.008 72.1909C109.488 61.1641 111.671 48.9887 111.556 35.6646L111.556 0.172115L161.177 0.172119ZM73.8229 0.172112L73.8229 35.32C73.8229 45.4279 71.9277 55.9379 68.1372 66.8498C64.2319 77.8766 58.9489 88.2717 52.2868 98.035C45.5099 107.913 37.929 116.241 29.5441 123.018L0.598848 104.238C7.37573 94.0148 13.0614 83.3326 17.6559 72.1909C22.1356 61.1641 24.3182 48.9887 24.2034 35.6646L24.2034 0.172107L73.8229 0.172112Z" fill="white" fill-opacity="0.1"/>
</svg>
