<svg width="500" height="103" viewBox="0 0 500 103" fill="none" xmlns="http://www.w3.org/2000/svg">
<path d="M35.5459 88.3685C25.4339 88.3685 17.7539 85.6805 12.5059 80.3045C7.25786 74.8645 4.63386 66.5125 4.63386 55.2485C4.63386 44.3045 7.19386 36.0485 12.3139 30.4805C17.4339 24.8485 25.1779 22.0325 35.5459 22.0325C38.9379 22.0325 42.3299 22.4485 45.7219 23.2805C49.1779 24.1125 52.5059 25.2645 55.7059 26.7365V38.2565C52.4419 36.2085 49.2739 34.7365 46.2019 33.8405C43.1299 32.9445 40.1539 32.4965 37.2739 32.4965C33.0499 32.4965 29.4979 33.2645 26.6179 34.8005C23.8019 36.2725 21.6579 38.6725 20.1859 42.0005C18.7779 45.3285 18.0739 49.7765 18.0739 55.3445C18.0739 60.8485 18.8099 65.2645 20.2819 68.5925C21.7539 71.9205 23.9299 74.3205 26.8099 75.7925C29.7539 77.2645 33.4019 78.0005 37.7539 78.0005C40.3779 78.0005 43.1939 77.5525 46.2019 76.6565C49.2739 75.7605 52.4419 74.3205 55.7059 72.3365V83.8565C53.8499 84.7525 51.7699 85.5525 49.4659 86.2565C47.2259 86.9605 44.9219 87.4725 42.5539 87.7925C40.1859 88.1765 37.8499 88.3685 35.5459 88.3685ZM89.5894 88.7525C81.6534 88.7525 75.7014 86.5445 71.7334 82.1285C67.7654 77.7125 65.7814 71.3445 65.7814 63.0245C65.7814 54.1285 67.7974 47.6645 71.8294 43.6325C75.9254 39.6005 81.8134 37.5845 89.4934 37.5845C94.8694 37.5845 99.3494 38.5445 102.933 40.4645C106.517 42.3205 109.173 45.1365 110.901 48.9125C112.693 52.6885 113.589 57.3925 113.589 63.0245C113.589 71.3445 111.509 77.7125 107.349 82.1285C103.253 86.5445 97.3334 88.7525 89.5894 88.7525ZM89.5894 78.7685C92.4054 78.7685 94.6774 78.1285 96.4054 76.8485C98.1974 75.5685 99.5094 73.7765 100.341 71.4725C101.173 69.1045 101.589 66.2885 101.589 63.0245C101.589 59.3765 101.141 56.4005 100.245 54.0965C99.4134 51.7925 98.1014 50.0965 96.3094 49.0085C94.5814 47.9205 92.3414 47.3765 89.5894 47.3765C86.7734 47.3765 84.5014 47.9525 82.7734 49.1045C81.0454 50.2565 79.7654 51.9845 78.9334 54.2885C78.1654 56.5925 77.7814 59.5045 77.7814 63.0245C77.7814 68.1445 78.7094 72.0485 80.5654 74.7365C82.4214 77.4245 85.4294 78.7685 89.5894 78.7685ZM125.396 42.9605C126.74 42.3205 128.34 41.6805 130.196 41.0405C132.052 40.4005 134.068 39.8565 136.244 39.4085C138.42 38.8965 140.596 38.5125 142.772 38.2565C145.012 37.9365 147.124 37.7765 149.108 37.7765C153.588 37.7765 157.3 38.3845 160.244 39.6005C163.252 40.7525 165.492 42.6085 166.964 45.1685C168.5 47.6645 169.268 50.9605 169.268 55.0565V87.3125H157.172V57.1685C157.172 55.9525 157.012 54.8005 156.692 53.7125C156.372 52.5605 155.828 51.5685 155.06 50.7365C154.292 49.8405 153.236 49.1685 151.892 48.7205C150.548 48.2085 148.82 47.9525 146.708 47.9525C145.108 47.9525 143.476 48.1125 141.812 48.4325C140.148 48.7525 138.74 49.1685 137.588 49.6805V87.3125H125.396V42.9605ZM202.165 88.8485C197.173 88.8485 193.365 87.6325 190.741 85.2005C188.117 82.7045 186.805 79.1205 186.805 74.4485V48.5285H179.317V38.9285H186.805V25.5845H199.381V38.9285H210.613V48.5285H199.381V72.5285C199.381 74.5125 199.765 75.9845 200.533 76.9445C201.301 77.9045 202.645 78.3845 204.565 78.3845C205.589 78.3845 206.645 78.2245 207.733 77.9045C208.885 77.5205 209.845 77.0725 210.613 76.5605V87.1205C209.333 87.7605 207.925 88.2085 206.389 88.4645C204.917 88.7205 203.509 88.8485 202.165 88.8485ZM240.895 88.7525C238.207 88.7525 235.647 88.4965 233.215 87.9845C230.783 87.4725 228.607 86.6405 226.687 85.4885C224.767 84.2725 223.231 82.6405 222.079 80.5925C220.991 78.4805 220.447 75.8565 220.447 72.7205C220.447 69.4565 221.119 66.7045 222.463 64.4645C223.807 62.1605 225.759 60.4325 228.319 59.2805C230.943 58.0645 234.143 57.4565 237.919 57.4565C240.223 57.4565 242.367 57.6805 244.351 58.1285C246.335 58.5125 248.127 59.0565 249.727 59.7605C251.327 60.4645 252.639 61.2325 253.663 62.0645L254.527 68.8805C253.183 67.9845 251.455 67.2805 249.343 66.7685C247.295 66.1925 245.055 65.9045 242.623 65.9045C239.231 65.9045 236.703 66.4485 235.039 67.5365C233.375 68.6245 232.543 70.3205 232.543 72.6245C232.543 74.2245 232.991 75.5685 233.887 76.6565C234.783 77.6805 235.935 78.4805 237.343 79.0565C238.751 79.5685 240.223 79.8245 241.759 79.8245C245.279 79.8245 247.807 79.6005 249.343 79.1525C250.943 78.6405 251.743 77.5845 251.743 75.9845V56.8805C251.743 53.7445 250.751 51.4725 248.767 50.0645C246.783 48.5925 243.999 47.8565 240.415 47.8565C237.663 47.8565 234.847 48.3365 231.967 49.2965C229.087 50.1925 226.751 51.3765 224.959 52.8485V41.8085C226.687 40.7205 229.279 39.7605 232.735 38.9285C236.191 38.0965 239.903 37.6805 243.871 37.6805C245.535 37.6805 247.295 37.8405 249.151 38.1605C251.007 38.4805 252.767 38.9925 254.431 39.6965C256.159 40.4005 257.727 41.3925 259.135 42.6725C260.543 43.8885 261.663 45.4565 262.495 47.3765C263.327 49.2325 263.743 51.5045 263.743 54.1925V77.1365C263.743 80.1445 262.783 82.5125 260.863 84.2405C258.943 85.9045 256.287 87.0565 252.895 87.6965C249.503 88.4005 245.503 88.7525 240.895 88.7525ZM300.166 88.3685C296.966 88.3685 293.894 87.9205 290.95 87.0245C288.006 86.1285 285.382 84.6885 283.078 82.7045C280.774 80.7205 278.95 78.1605 277.606 75.0245C276.262 71.8885 275.59 68.0805 275.59 63.6005C275.59 58.9285 276.23 54.9605 277.51 51.6965C278.79 48.4325 280.55 45.7765 282.79 43.7285C285.03 41.6165 287.622 40.1125 290.566 39.2165C293.574 38.2565 296.742 37.7765 300.07 37.7765C302.63 37.7765 305.254 38.0325 307.942 38.5445C310.63 39.0565 313.03 39.7925 315.142 40.7525V51.3125C312.966 50.3525 310.79 49.5845 308.614 49.0085C306.438 48.3685 304.198 48.0485 301.894 48.0485C297.414 48.0485 293.926 49.1685 291.43 51.4085C288.934 53.6485 287.686 57.3285 287.686 62.4485C287.686 67.6965 288.806 71.6005 291.046 74.1605C293.35 76.7205 297.126 78.0005 302.374 78.0005C304.742 78.0005 307.046 77.6485 309.286 76.9445C311.526 76.1765 313.51 75.3445 315.238 74.4485V85.1045C312.998 86.1925 310.662 86.9925 308.23 87.5045C305.798 88.0805 303.11 88.3685 300.166 88.3685ZM345.576 88.8485C340.584 88.8485 336.776 87.6325 334.152 85.2005C331.528 82.7045 330.216 79.1205 330.216 74.4485V48.5285H322.728V38.9285H330.216V25.5845H342.792V38.9285H354.024V48.5285H342.792V72.5285C342.792 74.5125 343.176 75.9845 343.944 76.9445C344.712 77.9045 346.056 78.3845 347.976 78.3845C349 78.3845 350.056 78.2245 351.144 77.9045C352.296 77.5205 353.256 77.0725 354.024 76.5605V87.1205C352.744 87.7605 351.336 88.2085 349.8 88.4645C348.328 88.7205 346.92 88.8485 345.576 88.8485Z" fill="url(#paint0_linear_91_349)"/>
<path d="M397.376 83.9852L397.382 83.9902L397.387 83.9951C402.628 88.7397 410.199 90.9445 419.754 90.9445C425.296 90.9445 430.21 89.9761 434.436 87.9668L434.448 87.9611L434.46 87.9552C438.74 85.8506 442.077 82.6471 444.445 78.3982C446.831 74.1168 447.962 68.8606 447.962 62.7365V23.2805V21.2805H445.962H433.482H431.482V23.2805V62.3525C431.482 67.5986 430.287 71.1096 428.272 73.2796L428.271 73.281C426.314 75.3925 423.421 76.5765 419.274 76.5765C414.831 76.5765 411.927 75.3716 410.128 73.3298C408.272 71.1576 407.162 67.624 407.162 62.3525V23.2805V21.2805H405.162H391.626H389.626V23.2805V62.7365C389.626 71.9119 392.092 79.1293 397.376 83.9852ZM457.192 85.0085V86.2933L458.361 86.8275C460.686 87.8901 463.106 88.7857 465.621 89.515C468.299 90.357 471.45 90.7525 475.032 90.7525C478.627 90.7525 482.071 90.2097 485.355 89.1159C488.795 87.9918 491.646 86.1711 493.831 83.6221L493.84 83.6116L493.849 83.6009C496.125 80.8696 497.218 77.3875 497.288 73.331L497.288 73.3138V73.2965C497.288 70.3015 496.786 67.688 495.604 65.6169C494.573 63.6435 493.188 62.0237 491.439 60.8067C489.8 59.6666 488.017 58.8091 486.098 58.2368C484.353 57.6557 482.668 57.1374 481.044 56.6826C479.47 56.2419 478.029 55.8033 476.721 55.3672C475.612 54.9975 474.811 54.5024 474.239 53.9303C473.836 53.5276 473.576 52.9761 473.576 52.0805C473.576 51.2614 473.869 50.7094 474.645 50.2291L474.656 50.2225L474.666 50.2158C475.631 49.6016 477.157 49.1845 479.448 49.1845C481.878 49.1845 483.973 49.6459 485.776 50.5201L485.798 50.531L485.821 50.5413C487.886 51.48 490.02 52.5466 492.222 53.7422L495.209 55.3638L495.176 51.9651L495.08 42.0771L495.069 40.9386L494.085 40.3669C491.977 39.1431 489.737 38.1585 487.368 37.4122C484.874 36.5609 481.721 36.1009 477.983 35.9698L477.948 35.9685H477.912C475.626 35.9685 473.291 36.2794 470.912 36.8889C468.459 37.4527 466.199 38.4057 464.144 39.7516C462.019 41.144 460.302 42.9766 458.999 45.2202C457.63 47.578 457 50.3767 457 53.5205C457 56.1555 457.416 58.5271 458.325 60.5728L458.343 60.6143L458.364 60.6549C459.313 62.5546 460.576 64.162 462.158 65.443C463.657 66.6567 465.303 67.6228 467.09 68.3375L467.102 68.3424L467.115 68.3472C468.836 69.0093 470.535 69.5442 472.21 69.9488C473.9 70.4502 475.494 70.9506 476.992 71.4499C478.371 71.9096 479.391 72.4521 480.119 73.0343L480.152 73.0605L480.186 73.0853C480.56 73.36 480.808 73.7431 480.808 74.5445C480.808 75.2398 480.533 75.9136 479.645 76.6264C478.946 77.1755 477.599 77.6325 475.224 77.6325C473.209 77.6325 471.339 77.396 469.604 76.9343C467.887 76.4602 466.266 75.8416 464.736 75.0803C463.189 74.2125 461.705 73.3155 460.285 72.3893L457.192 70.3724V74.0645V85.0085Z" stroke="url(#paint1_linear_91_349)" stroke-width="4"/>
<defs>
<linearGradient id="paint0_linear_91_349" x1="-4.63589" y1="84.9244" x2="350.595" y2="72.4115" gradientUnits="userSpaceOnUse">
<stop stop-color="#67C0F2"/>
<stop offset="0.321526" stop-color="#C9DFFF"/>
<stop offset="0.604448" stop-color="#67C0F2"/>
<stop offset="0.883072" stop-color="#DAEDFD"/>
</linearGradient>
<linearGradient id="paint1_linear_91_349" x1="390.268" y1="77.6366" x2="495.861" y2="75.7254" gradientUnits="userSpaceOnUse">
<stop stop-color="#67C0F2"/>
<stop offset="0.349674" stop-color="#EEF5FF"/>
<stop offset="0.612643" stop-color="#7AC7F4"/>
<stop offset="0.628962" stop-color="#67C0F2"/>
<stop offset="0.883072" stop-color="#DAEDFD"/>
</linearGradient>
</defs>
</svg>
