<svg width="793" height="100" viewBox="0 0 793 100" fill="none" xmlns="http://www.w3.org/2000/svg">
<path d="M6.816 86V21.968H33.984C38.656 21.968 42.688 22.576 46.08 23.792C49.536 24.944 52.224 26.832 54.144 29.456C56.064 32.016 57.024 35.44 57.024 39.728C57.024 42.608 56.32 44.976 54.912 46.832C53.504 48.688 51.808 50.192 49.824 51.344C47.84 52.432 45.984 53.296 44.256 53.936L42.528 50.576C46.048 50.704 49.12 51.44 51.744 52.784C54.432 54.064 56.512 55.888 57.984 58.256C59.52 60.56 60.288 63.344 60.288 66.608C60.288 71.088 59.2 74.768 57.024 77.648C54.912 80.464 52.064 82.576 48.48 83.984C44.896 85.328 40.928 86 36.576 86H6.816ZM22.368 74H35.424C37.024 74 38.496 73.776 39.84 73.328C41.184 72.816 42.272 71.984 43.104 70.832C43.936 69.616 44.352 68.016 44.352 66.032C44.352 64.56 44.096 63.344 43.584 62.384C43.072 61.424 42.368 60.688 41.472 60.176C40.64 59.6 39.68 59.184 38.592 58.928C37.504 58.672 36.352 58.544 35.136 58.544H22.368V74ZM22.368 47.12H34.848C35.936 47.12 36.96 46.928 37.92 46.544C38.88 46.096 39.648 45.424 40.224 44.528C40.864 43.632 41.184 42.448 41.184 40.976C41.184 38.352 40.48 36.56 39.072 35.6C37.664 34.576 35.936 34.064 33.888 34.064H22.368V47.12ZM93.5903 87.44C89.1103 87.44 85.1423 86.736 81.6863 85.328C78.2303 83.92 75.5423 81.776 73.6223 78.896C71.7023 75.952 70.7422 72.144 70.7422 67.472V37.424H85.0463V66.32C85.0463 69.392 85.7183 71.696 87.0623 73.232C88.4703 74.704 90.6783 75.44 93.6863 75.44C96.7583 75.44 98.9663 74.704 100.31 73.232C101.654 71.696 102.326 69.392 102.326 66.32V37.424H115.766V67.472C115.766 74.384 113.782 79.44 109.814 82.64C105.846 85.84 100.438 87.44 93.5903 87.44ZM142.799 87.44C139.343 87.44 136.367 87.056 133.871 86.288C131.439 85.584 129.135 84.784 126.959 83.888V71.312C128.303 72.208 129.807 73.136 131.471 74.096C133.135 74.992 134.959 75.728 136.943 76.304C138.991 76.88 141.135 77.168 143.375 77.168C145.679 77.168 147.279 76.784 148.175 76.016C149.135 75.184 149.615 74.192 149.615 73.04C149.615 71.952 149.135 71.088 148.175 70.448C147.215 69.744 145.967 69.168 144.431 68.72C142.895 68.272 141.263 67.856 139.535 67.472C137.999 67.152 136.463 66.672 134.927 66.032C133.391 65.328 132.015 64.4 130.799 63.248C129.583 62.096 128.591 60.688 127.823 59.024C127.119 57.296 126.767 55.216 126.767 52.784C126.767 49.648 127.375 47.056 128.591 45.008C129.807 42.896 131.407 41.2 133.391 39.92C135.375 38.64 137.519 37.744 139.823 37.232C142.127 36.656 144.367 36.4 146.543 36.464C150.511 36.592 153.647 37.04 155.951 37.808C158.319 38.512 160.463 39.44 162.383 40.592V51.824C160.207 50.608 158.031 49.488 155.855 48.464C153.743 47.376 151.311 46.832 148.559 46.832C146.063 46.832 144.271 47.216 143.183 47.984C142.095 48.752 141.551 49.776 141.551 51.056C141.551 52.272 141.903 53.232 142.607 53.936C143.375 54.64 144.367 55.216 145.583 55.664C146.799 56.048 148.142 56.432 149.615 56.816C151.215 57.2 152.847 57.68 154.511 58.256C156.239 58.768 157.839 59.536 159.311 60.56C160.847 61.52 162.063 62.896 162.959 64.688C163.919 66.416 164.399 68.72 164.399 71.6C164.335 75.504 163.279 78.64 161.231 81.008C159.183 83.312 156.527 84.976 153.263 86C150.063 86.96 146.575 87.44 142.799 87.44ZM174.999 86V38.096H189.303L189.399 86H174.999ZM174.711 30.8V19.76H189.495V30.8H174.711ZM202.18 41.552C203.396 40.912 204.996 40.272 206.98 39.632C208.964 38.928 211.14 38.32 213.508 37.808C215.876 37.296 218.244 36.88 220.612 36.56C223.044 36.24 225.284 36.08 227.332 36.08C231.684 36.08 235.396 36.656 238.468 37.808C241.54 38.896 243.876 40.688 245.476 43.184C247.14 45.68 247.972 49.072 247.972 53.36V86H233.668V56.24C233.668 55.024 233.476 53.904 233.092 52.88C232.772 51.856 232.26 50.992 231.556 50.288C230.852 49.52 229.892 48.944 228.676 48.56C227.46 48.112 225.988 47.888 224.26 47.888C222.788 47.888 221.316 48.08 219.844 48.464C218.372 48.784 217.252 49.136 216.484 49.52V86H202.18V41.552ZM282.664 87.44C277.8 87.44 273.48 86.448 269.704 84.464C265.992 82.416 263.08 79.536 260.968 75.824C258.92 72.048 257.896 67.568 257.896 62.384C257.896 53.936 259.976 47.408 264.136 42.8C268.36 38.128 274.376 35.792 282.184 35.792C287.56 35.792 291.88 36.944 295.144 39.248C298.472 41.552 300.904 44.912 302.44 49.328C303.976 53.744 304.712 59.12 304.648 65.456H267.688L266.152 56.336H292.84L290.728 60.848C290.664 55.664 289.928 52.016 288.52 49.904C287.112 47.792 284.808 46.736 281.608 46.736C279.816 46.736 278.184 47.184 276.712 48.08C275.304 48.976 274.184 50.48 273.352 52.592C272.584 54.64 272.2 57.488 272.2 61.136C272.2 65.744 273.288 69.296 275.464 71.792C277.704 74.288 281.256 75.536 286.12 75.536C287.912 75.536 289.672 75.344 291.4 74.96C293.192 74.512 294.856 74 296.392 73.424C297.928 72.848 299.24 72.336 300.328 71.888V84.176C298.024 85.136 295.432 85.904 292.552 86.48C289.736 87.12 286.44 87.44 282.664 87.44ZM328.986 87.44C325.53 87.44 322.554 87.056 320.058 86.288C317.626 85.584 315.322 84.784 313.146 83.888V71.312C314.49 72.208 315.994 73.136 317.658 74.096C319.322 74.992 321.146 75.728 323.13 76.304C325.178 76.88 327.322 77.168 329.562 77.168C331.866 77.168 333.466 76.784 334.362 76.016C335.322 75.184 335.802 74.192 335.802 73.04C335.802 71.952 335.322 71.088 334.362 70.448C333.402 69.744 332.154 69.168 330.618 68.72C329.082 68.272 327.45 67.856 325.722 67.472C324.186 67.152 322.65 66.672 321.114 66.032C319.578 65.328 318.202 64.4 316.986 63.248C315.77 62.096 314.778 60.688 314.01 59.024C313.306 57.296 312.954 55.216 312.954 52.784C312.954 49.648 313.562 47.056 314.778 45.008C315.994 42.896 317.594 41.2 319.578 39.92C321.562 38.64 323.706 37.744 326.01 37.232C328.314 36.656 330.554 36.4 332.73 36.464C336.698 36.592 339.834 37.04 342.138 37.808C344.506 38.512 346.65 39.44 348.57 40.592V51.824C346.394 50.608 344.218 49.488 342.042 48.464C339.93 47.376 337.498 46.832 334.746 46.832C332.25 46.832 330.458 47.216 329.37 47.984C328.282 48.752 327.738 49.776 327.738 51.056C327.738 52.272 328.09 53.232 328.794 53.936C329.562 54.64 330.554 55.216 331.77 55.664C332.986 56.048 334.33 56.432 335.802 56.816C337.402 57.2 339.034 57.68 340.698 58.256C342.426 58.768 344.026 59.536 345.498 60.56C347.034 61.52 348.25 62.896 349.146 64.688C350.106 66.416 350.586 68.72 350.586 71.6C350.522 75.504 349.466 78.64 347.418 81.008C345.37 83.312 342.714 84.976 339.45 86C336.25 86.96 332.762 87.44 328.986 87.44ZM375.299 87.44C371.843 87.44 368.867 87.056 366.371 86.288C363.939 85.584 361.635 84.784 359.459 83.888V71.312C360.803 72.208 362.307 73.136 363.971 74.096C365.635 74.992 367.459 75.728 369.443 76.304C371.491 76.88 373.635 77.168 375.875 77.168C378.179 77.168 379.779 76.784 380.675 76.016C381.635 75.184 382.115 74.192 382.115 73.04C382.115 71.952 381.635 71.088 380.675 70.448C379.715 69.744 378.467 69.168 376.931 68.72C375.395 68.272 373.763 67.856 372.035 67.472C370.499 67.152 368.963 66.672 367.427 66.032C365.891 65.328 364.515 64.4 363.299 63.248C362.083 62.096 361.091 60.688 360.323 59.024C359.619 57.296 359.267 55.216 359.267 52.784C359.267 49.648 359.875 47.056 361.091 45.008C362.307 42.896 363.907 41.2 365.891 39.92C367.875 38.64 370.019 37.744 372.323 37.232C374.627 36.656 376.867 36.4 379.043 36.464C383.011 36.592 386.147 37.04 388.451 37.808C390.819 38.512 392.963 39.44 394.883 40.592V51.824C392.707 50.608 390.531 49.488 388.355 48.464C386.243 47.376 383.811 46.832 381.059 46.832C378.563 46.832 376.771 47.216 375.683 47.984C374.595 48.752 374.051 49.776 374.051 51.056C374.051 52.272 374.403 53.232 375.107 53.936C375.875 54.64 376.867 55.216 378.083 55.664C379.299 56.048 380.642 56.432 382.115 56.816C383.715 57.2 385.347 57.68 387.011 58.256C388.739 58.768 390.339 59.536 391.811 60.56C393.347 61.52 394.563 62.896 395.459 64.688C396.419 66.416 396.899 68.72 396.899 71.6C396.835 75.504 395.779 78.64 393.731 81.008C391.683 83.312 389.027 84.976 385.763 86C382.563 86.96 379.075 87.44 375.299 87.44Z" fill="url(#paint0_linear_91_348)"/>
<mask id="path-2-outside-1_91_348" maskUnits="userSpaceOnUse" x="425.28" y="16.5281" width="368" height="76" fill="black">
<rect fill="white" x="425.28" y="16.5281" width="368" height="76"/>
<path d="M460.864 87.2481C450.624 87.2481 442.784 84.5601 437.344 79.1841C431.968 73.7441 429.28 65.3601 429.28 54.0321C429.28 43.0241 431.872 34.7041 437.056 29.0721C442.24 23.3761 450.176 20.5281 460.864 20.5281C464.256 20.5281 467.68 20.9441 471.136 21.7761C474.592 22.6081 477.952 23.7601 481.216 25.2321V38.7681C477.888 36.5921 474.688 35.0241 471.616 34.0641C468.544 33.1041 465.664 32.6241 462.976 32.6241C459.2 32.6241 456 33.2961 453.376 34.6401C450.816 35.9841 448.832 38.2241 447.424 41.3601C446.08 44.4961 445.408 48.7201 445.408 54.0321C445.408 59.3441 446.08 63.5361 447.424 66.6081C448.832 69.6801 450.88 71.8881 453.568 73.2321C456.32 74.5121 459.68 75.1521 463.648 75.1521C466.016 75.1521 468.704 74.7041 471.712 73.8081C474.72 72.9121 477.888 71.3761 481.216 69.2001V82.7361C479.424 83.6321 477.376 84.4321 475.072 85.1361C472.832 85.7761 470.464 86.2881 467.968 86.6721C465.536 87.0561 463.168 87.2481 460.864 87.2481ZM514.421 87.4401C506.229 87.4401 500.053 85.2641 495.893 80.9121C491.797 76.4961 489.749 70.0321 489.749 61.5201C489.749 52.3681 491.829 45.8081 495.989 41.8401C500.213 37.8081 506.357 35.7921 514.421 35.7921C519.861 35.7921 524.405 36.7201 528.053 38.5761C531.765 40.3681 534.549 43.1521 536.405 46.9281C538.325 50.7041 539.285 55.5681 539.285 61.5201C539.285 70.0321 537.141 76.4961 532.853 80.9121C528.565 85.2641 522.421 87.4401 514.421 87.4401ZM514.421 76.0161C516.789 76.0161 518.741 75.4721 520.277 74.3841C521.877 73.2321 523.061 71.6001 523.829 69.4881C524.661 67.3121 525.077 64.6561 525.077 61.5201C525.077 57.9361 524.661 55.1201 523.829 53.0721C523.061 50.9601 521.877 49.4561 520.277 48.5601C518.677 47.6001 516.725 47.1201 514.421 47.1201C511.989 47.1201 510.005 47.6001 508.469 48.5601C506.933 49.5201 505.781 51.0561 505.013 53.1681C504.309 55.2161 503.957 58.0001 503.957 61.5201C503.957 66.3841 504.789 70.0321 506.453 72.4641C508.181 74.8321 510.837 76.0161 514.421 76.0161ZM549.158 41.5521C550.374 40.9121 551.974 40.2721 553.958 39.6321C555.942 38.9281 558.118 38.3201 560.486 37.8081C562.854 37.2961 565.222 36.8801 567.59 36.5601C570.022 36.2401 572.262 36.0801 574.31 36.0801C578.662 36.0801 582.374 36.6561 585.446 37.8081C588.518 38.8961 590.854 40.6881 592.454 43.1841C594.118 45.6801 594.95 49.0721 594.95 53.3601V86.0001H580.646V56.2401C580.646 55.0241 580.454 53.9041 580.07 52.8801C579.75 51.8561 579.238 50.9921 578.534 50.2881C577.83 49.5201 576.87 48.9441 575.654 48.5601C574.438 48.1121 572.966 47.8881 571.238 47.8881C569.766 47.8881 568.294 48.0801 566.822 48.4641C565.35 48.7841 564.23 49.1361 563.462 49.5201V86.0001H549.158V41.5521ZM627.53 87.9201C621.898 87.9201 617.706 86.6081 614.954 83.9841C612.202 81.2961 610.826 77.5201 610.826 72.6561V48.3681H603.722V37.4241H610.826V24.0801H625.802V37.4241H636.458V48.3681H625.802V70.8321C625.802 72.4961 626.154 73.7441 626.858 74.5761C627.562 75.3441 628.746 75.7281 630.41 75.7281C631.37 75.7281 632.426 75.5361 633.578 75.1521C634.73 74.7681 635.69 74.2881 636.458 73.7121V86.0001C635.114 86.7041 633.642 87.1841 632.042 87.4401C630.506 87.7601 629.002 87.9201 627.53 87.9201ZM669.298 87.4401C664.434 87.4401 660.114 86.4481 656.338 84.4641C652.626 82.4161 649.714 79.5361 647.602 75.8241C645.554 72.0481 644.53 67.5681 644.53 62.3841C644.53 53.9361 646.61 47.4081 650.77 42.8001C654.994 38.1281 661.01 35.7921 668.818 35.7921C674.194 35.7921 678.514 36.9441 681.778 39.2481C685.106 41.5521 687.538 44.9121 689.074 49.3281C690.61 53.7441 691.346 59.1201 691.282 65.4561H654.322L652.786 56.3361H679.474L677.362 60.8481C677.298 55.6641 676.562 52.0161 675.154 49.9041C673.746 47.7921 671.442 46.7361 668.242 46.7361C666.45 46.7361 664.818 47.1841 663.346 48.0801C661.938 48.9761 660.818 50.4801 659.986 52.5921C659.218 54.6401 658.834 57.4881 658.834 61.1361C658.834 65.7441 659.922 69.2961 662.098 71.7921C664.338 74.2881 667.89 75.5361 672.754 75.5361C674.546 75.5361 676.306 75.3441 678.034 74.9601C679.826 74.5121 681.49 74.0001 683.026 73.4241C684.562 72.8481 685.874 72.3361 686.962 71.8881V84.1761C684.658 85.1361 682.066 85.9041 679.186 86.4801C676.37 87.1201 673.074 87.4401 669.298 87.4401ZM701.221 41.5521C702.437 40.9121 704.037 40.2721 706.021 39.6321C708.005 38.9281 710.181 38.3201 712.549 37.8081C714.917 37.2961 717.285 36.8801 719.653 36.5601C722.085 36.2401 724.325 36.0801 726.373 36.0801C730.725 36.0801 734.437 36.6561 737.509 37.8081C740.581 38.8961 742.917 40.6881 744.517 43.1841C746.181 45.6801 747.013 49.0721 747.013 53.3601V86.0001H732.709V56.2401C732.709 55.0241 732.517 53.9041 732.133 52.8801C731.813 51.8561 731.301 50.9921 730.597 50.2881C729.893 49.5201 728.933 48.9441 727.717 48.5601C726.501 48.1121 725.029 47.8881 723.301 47.8881C721.829 47.8881 720.357 48.0801 718.885 48.4641C717.413 48.7841 716.293 49.1361 715.525 49.5201V86.0001H701.221V41.5521ZM779.593 87.9201C773.961 87.9201 769.769 86.6081 767.017 83.9841C764.265 81.2961 762.889 77.5201 762.889 72.6561V48.3681H755.785V37.4241H762.889V24.0801H777.865V37.4241H788.521V48.3681H777.865V70.8321C777.865 72.4961 778.217 73.7441 778.921 74.5761C779.625 75.3441 780.809 75.7281 782.473 75.7281C783.433 75.7281 784.489 75.5361 785.641 75.1521C786.793 74.7681 787.753 74.2881 788.521 73.7121V86.0001C787.177 86.7041 785.705 87.1841 784.105 87.4401C782.569 87.7601 781.065 87.9201 779.593 87.9201Z"/>
</mask>
<path d="M460.864 87.2481C450.624 87.2481 442.784 84.5601 437.344 79.1841C431.968 73.7441 429.28 65.3601 429.28 54.0321C429.28 43.0241 431.872 34.7041 437.056 29.0721C442.24 23.3761 450.176 20.5281 460.864 20.5281C464.256 20.5281 467.68 20.9441 471.136 21.7761C474.592 22.6081 477.952 23.7601 481.216 25.2321V38.7681C477.888 36.5921 474.688 35.0241 471.616 34.0641C468.544 33.1041 465.664 32.6241 462.976 32.6241C459.2 32.6241 456 33.2961 453.376 34.6401C450.816 35.9841 448.832 38.2241 447.424 41.3601C446.08 44.4961 445.408 48.7201 445.408 54.0321C445.408 59.3441 446.08 63.5361 447.424 66.6081C448.832 69.6801 450.88 71.8881 453.568 73.2321C456.32 74.5121 459.68 75.1521 463.648 75.1521C466.016 75.1521 468.704 74.7041 471.712 73.8081C474.72 72.9121 477.888 71.3761 481.216 69.2001V82.7361C479.424 83.6321 477.376 84.4321 475.072 85.1361C472.832 85.7761 470.464 86.2881 467.968 86.6721C465.536 87.0561 463.168 87.2481 460.864 87.2481ZM514.421 87.4401C506.229 87.4401 500.053 85.2641 495.893 80.9121C491.797 76.4961 489.749 70.0321 489.749 61.5201C489.749 52.3681 491.829 45.8081 495.989 41.8401C500.213 37.8081 506.357 35.7921 514.421 35.7921C519.861 35.7921 524.405 36.7201 528.053 38.5761C531.765 40.3681 534.549 43.1521 536.405 46.9281C538.325 50.7041 539.285 55.5681 539.285 61.5201C539.285 70.0321 537.141 76.4961 532.853 80.9121C528.565 85.2641 522.421 87.4401 514.421 87.4401ZM514.421 76.0161C516.789 76.0161 518.741 75.4721 520.277 74.3841C521.877 73.2321 523.061 71.6001 523.829 69.4881C524.661 67.3121 525.077 64.6561 525.077 61.5201C525.077 57.9361 524.661 55.1201 523.829 53.0721C523.061 50.9601 521.877 49.4561 520.277 48.5601C518.677 47.6001 516.725 47.1201 514.421 47.1201C511.989 47.1201 510.005 47.6001 508.469 48.5601C506.933 49.5201 505.781 51.0561 505.013 53.1681C504.309 55.2161 503.957 58.0001 503.957 61.5201C503.957 66.3841 504.789 70.0321 506.453 72.4641C508.181 74.8321 510.837 76.0161 514.421 76.0161ZM549.158 41.5521C550.374 40.9121 551.974 40.2721 553.958 39.6321C555.942 38.9281 558.118 38.3201 560.486 37.8081C562.854 37.2961 565.222 36.8801 567.59 36.5601C570.022 36.2401 572.262 36.0801 574.31 36.0801C578.662 36.0801 582.374 36.6561 585.446 37.8081C588.518 38.8961 590.854 40.6881 592.454 43.1841C594.118 45.6801 594.95 49.0721 594.95 53.3601V86.0001H580.646V56.2401C580.646 55.0241 580.454 53.9041 580.07 52.8801C579.75 51.8561 579.238 50.9921 578.534 50.2881C577.83 49.5201 576.87 48.9441 575.654 48.5601C574.438 48.1121 572.966 47.8881 571.238 47.8881C569.766 47.8881 568.294 48.0801 566.822 48.4641C565.35 48.7841 564.23 49.1361 563.462 49.5201V86.0001H549.158V41.5521ZM627.53 87.9201C621.898 87.9201 617.706 86.6081 614.954 83.9841C612.202 81.2961 610.826 77.5201 610.826 72.6561V48.3681H603.722V37.4241H610.826V24.0801H625.802V37.4241H636.458V48.3681H625.802V70.8321C625.802 72.4961 626.154 73.7441 626.858 74.5761C627.562 75.3441 628.746 75.7281 630.41 75.7281C631.37 75.7281 632.426 75.5361 633.578 75.1521C634.73 74.7681 635.69 74.2881 636.458 73.7121V86.0001C635.114 86.7041 633.642 87.1841 632.042 87.4401C630.506 87.7601 629.002 87.9201 627.53 87.9201ZM669.298 87.4401C664.434 87.4401 660.114 86.4481 656.338 84.4641C652.626 82.4161 649.714 79.5361 647.602 75.8241C645.554 72.0481 644.53 67.5681 644.53 62.3841C644.53 53.9361 646.61 47.4081 650.77 42.8001C654.994 38.1281 661.01 35.7921 668.818 35.7921C674.194 35.7921 678.514 36.9441 681.778 39.2481C685.106 41.5521 687.538 44.9121 689.074 49.3281C690.61 53.7441 691.346 59.1201 691.282 65.4561H654.322L652.786 56.3361H679.474L677.362 60.8481C677.298 55.6641 676.562 52.0161 675.154 49.9041C673.746 47.7921 671.442 46.7361 668.242 46.7361C666.45 46.7361 664.818 47.1841 663.346 48.0801C661.938 48.9761 660.818 50.4801 659.986 52.5921C659.218 54.6401 658.834 57.4881 658.834 61.1361C658.834 65.7441 659.922 69.2961 662.098 71.7921C664.338 74.2881 667.89 75.5361 672.754 75.5361C674.546 75.5361 676.306 75.3441 678.034 74.9601C679.826 74.5121 681.49 74.0001 683.026 73.4241C684.562 72.8481 685.874 72.3361 686.962 71.8881V84.1761C684.658 85.1361 682.066 85.9041 679.186 86.4801C676.37 87.1201 673.074 87.4401 669.298 87.4401ZM701.221 41.5521C702.437 40.9121 704.037 40.2721 706.021 39.6321C708.005 38.9281 710.181 38.3201 712.549 37.8081C714.917 37.2961 717.285 36.8801 719.653 36.5601C722.085 36.2401 724.325 36.0801 726.373 36.0801C730.725 36.0801 734.437 36.6561 737.509 37.8081C740.581 38.8961 742.917 40.6881 744.517 43.1841C746.181 45.6801 747.013 49.0721 747.013 53.3601V86.0001H732.709V56.2401C732.709 55.0241 732.517 53.9041 732.133 52.8801C731.813 51.8561 731.301 50.9921 730.597 50.2881C729.893 49.5201 728.933 48.9441 727.717 48.5601C726.501 48.1121 725.029 47.8881 723.301 47.8881C721.829 47.8881 720.357 48.0801 718.885 48.4641C717.413 48.7841 716.293 49.1361 715.525 49.5201V86.0001H701.221V41.5521ZM779.593 87.9201C773.961 87.9201 769.769 86.6081 767.017 83.9841C764.265 81.2961 762.889 77.5201 762.889 72.6561V48.3681H755.785V37.4241H762.889V24.0801H777.865V37.4241H788.521V48.3681H777.865V70.8321C777.865 72.4961 778.217 73.7441 778.921 74.5761C779.625 75.3441 780.809 75.7281 782.473 75.7281C783.433 75.7281 784.489 75.5361 785.641 75.1521C786.793 74.7681 787.753 74.2881 788.521 73.7121V86.0001C787.177 86.7041 785.705 87.1841 784.105 87.4401C782.569 87.7601 781.065 87.9201 779.593 87.9201Z" stroke="url(#paint1_linear_91_348)" stroke-width="8" mask="url(#path-2-outside-1_91_348)"/>
<defs>
<linearGradient id="paint0_linear_91_348" x1="-5.25109" y1="82.7792" x2="402.486" y2="64.0326" gradientUnits="userSpaceOnUse">
<stop stop-color="#67C0F2"/>
<stop offset="0.349674" stop-color="#EEF5FF"/>
<stop offset="0.612643" stop-color="#7AC7F4"/>
<stop offset="0.628962" stop-color="#67C0F2"/>
<stop offset="0.883072" stop-color="#DAEDFD"/>
</linearGradient>
<linearGradient id="paint1_linear_91_348" x1="424.576" y1="76.3146" x2="789.262" y2="54.0255" gradientUnits="userSpaceOnUse">
<stop stop-color="#67C0F2"/>
<stop offset="0.349674" stop-color="#EEF5FF"/>
<stop offset="0.612643" stop-color="#7AC7F4"/>
<stop offset="0.628962" stop-color="#67C0F2"/>
<stop offset="0.883072" stop-color="#DAEDFD"/>
</linearGradient>
</defs>
</svg>
