<svg width="376" height="85" viewBox="0 0 376 85" fill="none" xmlns="http://www.w3.org/2000/svg">
<g filter="url(#filter0_d_91_343)">
<mask id="path-1-outside-1_91_343" maskUnits="userSpaceOnUse" x="8.55273" y="4.92554" width="368" height="76" fill="black">
<rect fill="white" x="8.55273" y="4.92554" width="368" height="76"/>
<path d="M44.1367 75.6455C33.8967 75.6455 26.0567 72.9575 20.6167 67.5815C15.2407 62.1415 12.5527 53.7575 12.5527 42.4295C12.5527 31.4215 15.1447 23.1015 20.3287 17.4695C25.5127 11.7735 33.4487 8.92554 44.1367 8.92554C47.5287 8.92554 50.9527 9.34154 54.4087 10.1735C57.8647 11.0055 61.2247 12.1575 64.4887 13.6295V27.1655C61.1607 24.9895 57.9607 23.4215 54.8887 22.4615C51.8167 21.5015 48.9367 21.0215 46.2487 21.0215C42.4727 21.0215 39.2727 21.6935 36.6487 23.0375C34.0887 24.3815 32.1047 26.6215 30.6967 29.7575C29.3527 32.8935 28.6807 37.1175 28.6807 42.4295C28.6807 47.7415 29.3527 51.9335 30.6967 55.0055C32.1047 58.0775 34.1527 60.2855 36.8407 61.6295C39.5927 62.9095 42.9527 63.5495 46.9207 63.5495C49.2887 63.5495 51.9767 63.1015 54.9847 62.2055C57.9927 61.3095 61.1607 59.7735 64.4887 57.5975V71.1335C62.6967 72.0295 60.6487 72.8295 58.3447 73.5335C56.1047 74.1735 53.7367 74.6855 51.2407 75.0695C48.8087 75.4535 46.4407 75.6455 44.1367 75.6455ZM97.6935 75.8375C89.5015 75.8375 83.3255 73.6615 79.1655 69.3095C75.0695 64.8935 73.0215 58.4295 73.0215 49.9175C73.0215 40.7655 75.1015 34.2055 79.2615 30.2375C83.4855 26.2055 89.6295 24.1895 97.6935 24.1895C103.133 24.1895 107.677 25.1175 111.325 26.9735C115.037 28.7655 117.821 31.5495 119.677 35.3255C121.597 39.1015 122.557 43.9655 122.557 49.9175C122.557 58.4295 120.413 64.8935 116.125 69.3095C111.837 73.6615 105.693 75.8375 97.6935 75.8375ZM97.6935 64.4135C100.061 64.4135 102.013 63.8695 103.549 62.7815C105.149 61.6295 106.333 59.9975 107.101 57.8855C107.933 55.7095 108.349 53.0535 108.349 49.9175C108.349 46.3335 107.933 43.5175 107.101 41.4695C106.333 39.3575 105.149 37.8535 103.549 36.9575C101.949 35.9975 99.9975 35.5175 97.6935 35.5175C95.2615 35.5175 93.2775 35.9975 91.7415 36.9575C90.2055 37.9175 89.0535 39.4535 88.2855 41.5655C87.5815 43.6135 87.2295 46.3975 87.2295 49.9175C87.2295 54.7815 88.0615 58.4295 89.7255 60.8615C91.4535 63.2295 94.1095 64.4135 97.6935 64.4135ZM132.43 29.9495C133.646 29.3095 135.246 28.6695 137.23 28.0295C139.214 27.3255 141.39 26.7175 143.758 26.2055C146.126 25.6935 148.494 25.2775 150.862 24.9575C153.294 24.6375 155.534 24.4775 157.582 24.4775C161.934 24.4775 165.646 25.0535 168.718 26.2055C171.79 27.2935 174.126 29.0855 175.726 31.5815C177.39 34.0775 178.222 37.4695 178.222 41.7575V74.3975H163.918V44.6375C163.918 43.4215 163.726 42.3015 163.342 41.2775C163.022 40.2535 162.51 39.3895 161.806 38.6855C161.102 37.9175 160.142 37.3415 158.926 36.9575C157.71 36.5095 156.238 36.2855 154.51 36.2855C153.038 36.2855 151.566 36.4775 150.094 36.8615C148.622 37.1815 147.502 37.5335 146.734 37.9175V74.3975H132.43V29.9495ZM210.802 76.3175C205.17 76.3175 200.978 75.0055 198.226 72.3815C195.474 69.6935 194.098 65.9175 194.098 61.0535V36.7655H186.994V25.8215H194.098V12.4775H209.074V25.8215H219.73V36.7655H209.074V59.2295C209.074 60.8935 209.426 62.1415 210.13 62.9735C210.834 63.7415 212.018 64.1255 213.682 64.1255C214.642 64.1255 215.698 63.9335 216.85 63.5495C218.002 63.1655 218.962 62.6855 219.73 62.1095V74.3975C218.386 75.1015 216.914 75.5815 215.314 75.8375C213.778 76.1575 212.274 76.3175 210.802 76.3175ZM252.571 75.8375C247.707 75.8375 243.387 74.8455 239.611 72.8615C235.899 70.8135 232.987 67.9335 230.875 64.2215C228.827 60.4455 227.803 55.9655 227.803 50.7815C227.803 42.3335 229.883 35.8055 234.043 31.1975C238.267 26.5255 244.283 24.1895 252.091 24.1895C257.467 24.1895 261.787 25.3415 265.051 27.6455C268.379 29.9495 270.811 33.3095 272.347 37.7255C273.883 42.1415 274.619 47.5175 274.555 53.8535H237.595L236.059 44.7335H262.747L260.635 49.2455C260.571 44.0615 259.835 40.4135 258.427 38.3015C257.019 36.1895 254.715 35.1335 251.515 35.1335C249.723 35.1335 248.091 35.5815 246.619 36.4775C245.211 37.3735 244.091 38.8775 243.259 40.9895C242.491 43.0375 242.107 45.8855 242.107 49.5335C242.107 54.1415 243.195 57.6935 245.371 60.1895C247.611 62.6855 251.163 63.9335 256.027 63.9335C257.819 63.9335 259.579 63.7415 261.307 63.3575C263.099 62.9095 264.763 62.3975 266.299 61.8215C267.835 61.2455 269.147 60.7335 270.235 60.2855V72.5735C267.931 73.5335 265.339 74.3015 262.459 74.8775C259.643 75.5175 256.347 75.8375 252.571 75.8375ZM284.493 29.9495C285.709 29.3095 287.309 28.6695 289.293 28.0295C291.277 27.3255 293.453 26.7175 295.821 26.2055C298.189 25.6935 300.557 25.2775 302.925 24.9575C305.357 24.6375 307.597 24.4775 309.645 24.4775C313.997 24.4775 317.709 25.0535 320.781 26.2055C323.853 27.2935 326.189 29.0855 327.789 31.5815C329.453 34.0775 330.285 37.4695 330.285 41.7575V74.3975H315.981V44.6375C315.981 43.4215 315.789 42.3015 315.405 41.2775C315.085 40.2535 314.573 39.3895 313.869 38.6855C313.165 37.9175 312.205 37.3415 310.989 36.9575C309.773 36.5095 308.301 36.2855 306.573 36.2855C305.101 36.2855 303.629 36.4775 302.157 36.8615C300.685 37.1815 299.565 37.5335 298.797 37.9175V74.3975H284.493V29.9495ZM362.865 76.3175C357.233 76.3175 353.041 75.0055 350.289 72.3815C347.537 69.6935 346.161 65.9175 346.161 61.0535V36.7655H339.057V25.8215H346.161V12.4775H361.137V25.8215H371.793V36.7655H361.137V59.2295C361.137 60.8935 361.489 62.1415 362.193 62.9735C362.897 63.7415 364.081 64.1255 365.745 64.1255C366.705 64.1255 367.761 63.9335 368.913 63.5495C370.065 63.1655 371.025 62.6855 371.793 62.1095V74.3975C370.449 75.1015 368.977 75.5815 367.377 75.8375C365.841 76.1575 364.337 76.3175 362.865 76.3175Z"/>
</mask>
<path d="M44.1367 75.6455C33.8967 75.6455 26.0567 72.9575 20.6167 67.5815C15.2407 62.1415 12.5527 53.7575 12.5527 42.4295C12.5527 31.4215 15.1447 23.1015 20.3287 17.4695C25.5127 11.7735 33.4487 8.92554 44.1367 8.92554C47.5287 8.92554 50.9527 9.34154 54.4087 10.1735C57.8647 11.0055 61.2247 12.1575 64.4887 13.6295V27.1655C61.1607 24.9895 57.9607 23.4215 54.8887 22.4615C51.8167 21.5015 48.9367 21.0215 46.2487 21.0215C42.4727 21.0215 39.2727 21.6935 36.6487 23.0375C34.0887 24.3815 32.1047 26.6215 30.6967 29.7575C29.3527 32.8935 28.6807 37.1175 28.6807 42.4295C28.6807 47.7415 29.3527 51.9335 30.6967 55.0055C32.1047 58.0775 34.1527 60.2855 36.8407 61.6295C39.5927 62.9095 42.9527 63.5495 46.9207 63.5495C49.2887 63.5495 51.9767 63.1015 54.9847 62.2055C57.9927 61.3095 61.1607 59.7735 64.4887 57.5975V71.1335C62.6967 72.0295 60.6487 72.8295 58.3447 73.5335C56.1047 74.1735 53.7367 74.6855 51.2407 75.0695C48.8087 75.4535 46.4407 75.6455 44.1367 75.6455ZM97.6935 75.8375C89.5015 75.8375 83.3255 73.6615 79.1655 69.3095C75.0695 64.8935 73.0215 58.4295 73.0215 49.9175C73.0215 40.7655 75.1015 34.2055 79.2615 30.2375C83.4855 26.2055 89.6295 24.1895 97.6935 24.1895C103.133 24.1895 107.677 25.1175 111.325 26.9735C115.037 28.7655 117.821 31.5495 119.677 35.3255C121.597 39.1015 122.557 43.9655 122.557 49.9175C122.557 58.4295 120.413 64.8935 116.125 69.3095C111.837 73.6615 105.693 75.8375 97.6935 75.8375ZM97.6935 64.4135C100.061 64.4135 102.013 63.8695 103.549 62.7815C105.149 61.6295 106.333 59.9975 107.101 57.8855C107.933 55.7095 108.349 53.0535 108.349 49.9175C108.349 46.3335 107.933 43.5175 107.101 41.4695C106.333 39.3575 105.149 37.8535 103.549 36.9575C101.949 35.9975 99.9975 35.5175 97.6935 35.5175C95.2615 35.5175 93.2775 35.9975 91.7415 36.9575C90.2055 37.9175 89.0535 39.4535 88.2855 41.5655C87.5815 43.6135 87.2295 46.3975 87.2295 49.9175C87.2295 54.7815 88.0615 58.4295 89.7255 60.8615C91.4535 63.2295 94.1095 64.4135 97.6935 64.4135ZM132.43 29.9495C133.646 29.3095 135.246 28.6695 137.23 28.0295C139.214 27.3255 141.39 26.7175 143.758 26.2055C146.126 25.6935 148.494 25.2775 150.862 24.9575C153.294 24.6375 155.534 24.4775 157.582 24.4775C161.934 24.4775 165.646 25.0535 168.718 26.2055C171.79 27.2935 174.126 29.0855 175.726 31.5815C177.39 34.0775 178.222 37.4695 178.222 41.7575V74.3975H163.918V44.6375C163.918 43.4215 163.726 42.3015 163.342 41.2775C163.022 40.2535 162.51 39.3895 161.806 38.6855C161.102 37.9175 160.142 37.3415 158.926 36.9575C157.71 36.5095 156.238 36.2855 154.51 36.2855C153.038 36.2855 151.566 36.4775 150.094 36.8615C148.622 37.1815 147.502 37.5335 146.734 37.9175V74.3975H132.43V29.9495ZM210.802 76.3175C205.17 76.3175 200.978 75.0055 198.226 72.3815C195.474 69.6935 194.098 65.9175 194.098 61.0535V36.7655H186.994V25.8215H194.098V12.4775H209.074V25.8215H219.73V36.7655H209.074V59.2295C209.074 60.8935 209.426 62.1415 210.13 62.9735C210.834 63.7415 212.018 64.1255 213.682 64.1255C214.642 64.1255 215.698 63.9335 216.85 63.5495C218.002 63.1655 218.962 62.6855 219.73 62.1095V74.3975C218.386 75.1015 216.914 75.5815 215.314 75.8375C213.778 76.1575 212.274 76.3175 210.802 76.3175ZM252.571 75.8375C247.707 75.8375 243.387 74.8455 239.611 72.8615C235.899 70.8135 232.987 67.9335 230.875 64.2215C228.827 60.4455 227.803 55.9655 227.803 50.7815C227.803 42.3335 229.883 35.8055 234.043 31.1975C238.267 26.5255 244.283 24.1895 252.091 24.1895C257.467 24.1895 261.787 25.3415 265.051 27.6455C268.379 29.9495 270.811 33.3095 272.347 37.7255C273.883 42.1415 274.619 47.5175 274.555 53.8535H237.595L236.059 44.7335H262.747L260.635 49.2455C260.571 44.0615 259.835 40.4135 258.427 38.3015C257.019 36.1895 254.715 35.1335 251.515 35.1335C249.723 35.1335 248.091 35.5815 246.619 36.4775C245.211 37.3735 244.091 38.8775 243.259 40.9895C242.491 43.0375 242.107 45.8855 242.107 49.5335C242.107 54.1415 243.195 57.6935 245.371 60.1895C247.611 62.6855 251.163 63.9335 256.027 63.9335C257.819 63.9335 259.579 63.7415 261.307 63.3575C263.099 62.9095 264.763 62.3975 266.299 61.8215C267.835 61.2455 269.147 60.7335 270.235 60.2855V72.5735C267.931 73.5335 265.339 74.3015 262.459 74.8775C259.643 75.5175 256.347 75.8375 252.571 75.8375ZM284.493 29.9495C285.709 29.3095 287.309 28.6695 289.293 28.0295C291.277 27.3255 293.453 26.7175 295.821 26.2055C298.189 25.6935 300.557 25.2775 302.925 24.9575C305.357 24.6375 307.597 24.4775 309.645 24.4775C313.997 24.4775 317.709 25.0535 320.781 26.2055C323.853 27.2935 326.189 29.0855 327.789 31.5815C329.453 34.0775 330.285 37.4695 330.285 41.7575V74.3975H315.981V44.6375C315.981 43.4215 315.789 42.3015 315.405 41.2775C315.085 40.2535 314.573 39.3895 313.869 38.6855C313.165 37.9175 312.205 37.3415 310.989 36.9575C309.773 36.5095 308.301 36.2855 306.573 36.2855C305.101 36.2855 303.629 36.4775 302.157 36.8615C300.685 37.1815 299.565 37.5335 298.797 37.9175V74.3975H284.493V29.9495ZM362.865 76.3175C357.233 76.3175 353.041 75.0055 350.289 72.3815C347.537 69.6935 346.161 65.9175 346.161 61.0535V36.7655H339.057V25.8215H346.161V12.4775H361.137V25.8215H371.793V36.7655H361.137V59.2295C361.137 60.8935 361.489 62.1415 362.193 62.9735C362.897 63.7415 364.081 64.1255 365.745 64.1255C366.705 64.1255 367.761 63.9335 368.913 63.5495C370.065 63.1655 371.025 62.6855 371.793 62.1095V74.3975C370.449 75.1015 368.977 75.5815 367.377 75.8375C365.841 76.1575 364.337 76.3175 362.865 76.3175Z" stroke="url(#paint0_linear_91_343)" stroke-width="8" shape-rendering="crispEdges" mask="url(#path-1-outside-1_91_343)"/>
</g>
<defs>
<filter id="filter0_d_91_343" x="0.552734" y="0.925537" width="375.24" height="83.3921" filterUnits="userSpaceOnUse" color-interpolation-filters="sRGB">
<feFlood flood-opacity="0" result="BackgroundImageFix"/>
<feColorMatrix in="SourceAlpha" type="matrix" values="0 0 0 0 0 0 0 0 0 0 0 0 0 0 0 0 0 0 127 0" result="hardAlpha"/>
<feOffset dx="-4"/>
<feGaussianBlur stdDeviation="2"/>
<feComposite in2="hardAlpha" operator="out"/>
<feColorMatrix type="matrix" values="0 0 0 0 0.00784314 0 0 0 0 0.105882 0 0 0 0 0.466667 0 0 0 1 0"/>
<feBlend mode="normal" in2="BackgroundImageFix" result="effect1_dropShadow_91_343"/>
<feBlend mode="normal" in="SourceGraphic" in2="effect1_dropShadow_91_343" result="shape"/>
</filter>
<linearGradient id="paint0_linear_91_343" x1="7.84849" y1="64.7121" x2="372.535" y2="42.423" gradientUnits="userSpaceOnUse">
<stop stop-color="#67C0F2"/>
<stop offset="0.349674" stop-color="#EEF5FF"/>
<stop offset="0.612643" stop-color="#7AC7F4"/>
<stop offset="0.628962" stop-color="#67C0F2"/>
<stop offset="0.883072" stop-color="#DAEDFD"/>
</linearGradient>
</defs>
</svg>
