<svg width="404" height="196" viewBox="0 0 404 196" fill="none" xmlns="http://www.w3.org/2000/svg">
<path d="M18.1181 69.7389L18.1374 69.7488C23.1424 72.2856 28.9685 73.5168 35.5536 73.5168C45.8607 73.5168 54.1171 70.5796 60.0282 64.4623C66.019 58.3294 68.8496 49.4263 68.8496 38.1088C68.8496 30.2867 67.5375 23.6977 64.7794 18.4573C62.035 13.243 58.0927 9.32202 52.9746 6.75925C47.9683 4.15664 42.14 2.89282 35.5536 2.89282C25.3027 2.89282 17.0532 5.8341 11.0832 11.943C5.09143 18.0741 2.25757 26.9449 2.25757 38.2048C2.25757 45.9678 3.57129 52.5502 6.32276 57.8468L6.33223 57.8648C9.13412 63.1269 13.0656 67.1088 18.1181 69.7389ZM42.8018 55.0053L42.7806 55.0178C40.9202 56.134 38.5448 56.7488 35.5536 56.7488C32.5569 56.7488 30.1734 56.1635 28.3085 55.103C26.5251 54.0271 25.0563 52.2713 23.9721 49.6574C22.9487 46.9716 22.3856 43.221 22.3856 38.3008C22.3856 33.3089 22.9505 29.5254 23.9748 26.8412C25.0673 24.1465 26.5454 22.3645 28.3266 21.2958C30.1869 20.1796 32.5624 19.5648 35.5536 19.5648C38.5448 19.5648 40.9202 20.1796 42.7806 21.2958C42.7996 21.3072 42.8189 21.3183 42.8383 21.3291C44.6457 22.3333 46.1032 24.058 47.1259 26.7281C47.1302 26.7396 47.1347 26.751 47.1393 26.7624C48.2206 29.4371 48.8176 33.182 48.8176 38.1088C48.8176 42.9648 48.2224 46.719 47.134 49.4687L47.1259 49.4895C46.1018 52.1634 44.6352 53.9358 42.8018 55.0053ZM78.5476 64.1614L78.5587 64.1782C80.7183 67.4175 83.736 69.8064 87.5322 71.353C91.2707 72.8761 95.5028 73.6128 100.191 73.6128C107.339 73.6128 113.241 71.9414 117.67 68.3697C122.262 64.6663 124.367 58.9326 124.367 51.6448V21.5968C124.367 20.4922 123.471 19.5968 122.367 19.5968H108.927C107.822 19.5968 106.927 20.4922 106.927 21.5968V50.4928C106.927 53.3022 106.31 55.0435 105.42 56.0714C104.615 56.9411 103.082 57.6128 100.287 57.6128C97.5953 57.6128 96.0264 56.9598 95.1386 56.0539C94.2569 55.0237 93.6468 53.2863 93.6468 50.4928V21.5968C93.6468 20.4922 92.7514 19.5968 91.6468 19.5968H77.3428C76.2383 19.5968 75.3428 20.4922 75.3428 21.5968V51.6448C75.3428 56.5797 76.3564 60.8015 78.5476 64.1614ZM132.999 70.1728C132.999 71.2774 133.895 72.1728 134.999 72.1728H149.303C150.408 72.1728 151.303 71.2774 151.303 70.1728V34.3891C151.933 34.3288 152.636 34.2824 153.415 34.2512C154.959 34.1895 156.604 34.1891 158.352 34.2515C158.375 34.2524 158.399 34.2528 158.423 34.2528C160.168 34.2528 161.844 34.3151 163.454 34.4389C165.06 34.5625 166.325 34.7437 167.277 34.9677C167.872 35.1076 168.498 34.968 168.977 34.5886C169.456 34.2093 169.735 33.6318 169.735 33.0208V22.5568C169.735 21.9431 169.453 21.3634 168.971 20.9842C167.77 20.0407 166.161 19.375 164.301 18.8928C162.335 18.3832 159.774 18.1568 156.695 18.1568C153.505 18.1568 150.322 18.5977 147.152 19.4733C144.138 20.2602 141.42 21.1853 139.008 22.2556C136.687 23.224 134.844 24.1833 133.697 25.1663C133.254 25.5463 132.999 26.101 132.999 26.6848V70.1728Z" stroke="url(#paint0_linear_91_350)" stroke-width="4" stroke-linejoin="round"/>
<path d="M28.5456 175.782C25.2816 175.782 22.3376 175.622 19.7136 175.302C17.0896 174.982 14.6576 174.502 12.4176 173.862C10.1776 173.222 8.00159 172.39 5.88959 171.366V156.582C8.83359 158.95 12.1616 160.742 15.8736 161.958C19.5856 163.174 23.1056 163.782 26.4336 163.782C29.3776 163.782 31.6176 163.238 33.1536 162.15C34.7536 160.998 35.5536 159.27 35.5536 156.966C35.5536 155.238 34.8176 153.862 33.3456 152.838C31.9376 151.75 30.0496 150.822 27.6816 150.054C25.3136 149.222 22.6576 148.294 19.7136 147.27C17.8576 146.694 16.0336 145.958 14.2416 145.062C12.4496 144.166 10.8496 143.046 9.44159 141.702C8.03359 140.294 6.91359 138.598 6.08159 136.614C5.24959 134.63 4.83359 132.198 4.83359 129.318C4.83359 126.694 5.31359 124.166 6.27359 121.734C7.23359 119.302 8.70559 117.126 10.6896 115.206C12.7376 113.286 15.3296 111.782 18.4656 110.694C21.6016 109.542 25.2816 108.966 29.5056 108.966C32.1296 108.966 34.4336 109.126 36.4176 109.446C38.4656 109.766 40.4176 110.246 42.2736 110.886C44.1296 111.462 46.0176 112.23 47.9376 113.19V128.166C46.4656 126.95 44.8016 125.83 42.9456 124.806C41.1536 123.718 39.2656 122.822 37.2816 122.118C35.2976 121.414 33.2176 121.03 31.0416 120.966C29.1216 120.902 27.3616 121.094 25.7616 121.542C24.1616 121.99 22.9136 122.726 22.0176 123.75C21.1216 124.71 20.6736 125.958 20.6736 127.494C20.6736 129.286 21.2176 130.694 22.3056 131.718C23.3936 132.742 24.8976 133.606 26.8176 134.31C28.7376 134.95 30.8816 135.654 33.2496 136.422C35.8736 137.19 38.2736 138.054 40.4496 139.014C42.6896 139.91 44.6416 141.062 46.3056 142.47C47.9696 143.878 49.2496 145.606 50.1456 147.654C51.0416 149.702 51.4896 152.166 51.4896 155.046C51.4896 158.886 50.5936 162.406 48.8016 165.606C47.0096 168.742 44.4176 171.238 41.0256 173.094C37.6336 174.886 33.4736 175.782 28.5456 175.782ZM81.8398 176.358C76.2078 176.358 72.0158 175.046 69.2638 172.422C66.5118 169.734 65.1358 165.958 65.1358 161.094V136.806H58.0318V125.862H65.1358V112.518H80.1118V125.862H90.7678V136.806H80.1118V159.27C80.1118 160.934 80.4638 162.182 81.1678 163.014C81.8718 163.782 83.0558 164.166 84.7198 164.166C85.6798 164.166 86.7358 163.974 87.8878 163.59C89.0398 163.206 89.9998 162.726 90.7678 162.15V174.438C89.4238 175.142 87.9518 175.622 86.3518 175.878C84.8158 176.198 83.3118 176.358 81.8398 176.358ZM101.624 174.438V130.95C102.52 130.182 104.12 129.318 106.424 128.358C108.728 127.334 111.352 126.438 114.296 125.67C117.304 124.838 120.312 124.422 123.32 124.422C126.328 124.422 128.696 124.646 130.424 125.094C132.152 125.542 133.464 126.118 134.36 126.822V137.286C133.272 137.03 131.896 136.838 130.232 136.71C128.568 136.582 126.84 136.518 125.048 136.518C123.256 136.454 121.56 136.454 119.96 136.518C118.36 136.582 117.016 136.71 115.928 136.902V174.438H101.624ZM162.983 175.878C158.119 175.878 153.799 174.886 150.023 172.902C146.311 170.854 143.399 167.974 141.287 164.262C139.239 160.486 138.215 156.006 138.215 150.822C138.215 142.374 140.295 135.846 144.455 131.238C148.679 126.566 154.695 124.23 162.503 124.23C167.879 124.23 172.199 125.382 175.463 127.686C178.791 129.99 181.223 133.35 182.759 137.766C184.295 142.182 185.031 147.558 184.967 153.894H148.007L146.471 144.774H173.159L171.047 149.286C170.983 144.102 170.247 140.454 168.839 138.342C167.431 136.23 165.127 135.174 161.927 135.174C160.135 135.174 158.503 135.622 157.031 136.518C155.623 137.414 154.503 138.918 153.671 141.03C152.903 143.078 152.519 145.926 152.519 149.574C152.519 154.182 153.607 157.734 155.783 160.23C158.023 162.726 161.575 163.974 166.439 163.974C168.231 163.974 169.991 163.782 171.719 163.398C173.511 162.95 175.175 162.438 176.711 161.862C178.247 161.286 179.559 160.774 180.647 160.326V172.614C178.343 173.574 175.751 174.342 172.871 174.918C170.055 175.558 166.759 175.878 162.983 175.878ZM194.905 129.99C196.121 129.35 197.721 128.71 199.705 128.07C201.689 127.366 203.865 126.758 206.233 126.246C208.601 125.734 210.969 125.318 213.337 124.998C215.769 124.678 218.009 124.518 220.057 124.518C224.409 124.518 228.121 125.094 231.193 126.246C234.265 127.334 236.601 129.126 238.201 131.622C239.865 134.118 240.697 137.51 240.697 141.798V174.438H226.393V144.678C226.393 143.462 226.201 142.342 225.817 141.318C225.497 140.294 224.985 139.43 224.281 138.726C223.577 137.958 222.617 137.382 221.401 136.998C220.185 136.55 218.713 136.326 216.985 136.326C215.513 136.326 214.041 136.518 212.569 136.902C211.097 137.222 209.977 137.574 209.209 137.958V174.438H194.905V129.99ZM272.029 175.878C267.613 175.622 263.805 174.598 260.605 172.806C257.469 171.014 255.005 168.39 253.213 164.934C251.485 161.414 250.621 156.998 250.621 151.686C250.621 146.31 251.293 141.862 252.637 138.342C253.981 134.758 255.837 131.974 258.205 129.99C260.637 128.006 263.549 126.598 266.941 125.766C270.333 124.934 274.109 124.518 278.269 124.518C282.301 124.518 285.821 125.03 288.829 126.054C291.837 127.078 294.173 128.55 295.837 130.47C297.501 132.39 298.333 134.758 298.333 137.574V175.014C298.333 178.406 297.789 181.382 296.701 183.942C295.613 186.566 293.981 188.742 291.805 190.47C289.693 192.262 287.101 193.606 284.029 194.502C281.021 195.398 277.533 195.846 273.565 195.846C269.277 195.846 265.597 195.526 262.525 194.886C259.517 194.31 257.213 193.574 255.613 192.678V180.102C256.573 180.486 257.981 180.998 259.837 181.638C261.693 182.278 263.773 182.79 266.077 183.174C268.381 183.622 270.685 183.846 272.989 183.846C275.997 183.846 278.301 183.43 279.901 182.598C281.565 181.766 282.717 180.646 283.357 179.238C283.997 177.83 284.317 176.23 284.317 174.438V166.566L287.101 168.582C286.077 170.054 284.861 171.334 283.453 172.422C282.045 173.51 280.381 174.342 278.461 174.918C276.605 175.558 274.461 175.878 272.029 175.878ZM275.677 165.126C277.341 165.126 278.877 164.966 280.285 164.646C281.693 164.262 283.037 163.718 284.317 163.014V140.742C284.317 139.398 283.933 138.374 283.165 137.67C282.397 136.966 281.437 136.486 280.285 136.23C279.133 135.974 277.917 135.846 276.637 135.846C273.693 135.846 271.357 136.486 269.629 137.766C267.965 139.046 266.749 140.838 265.981 143.142C265.277 145.382 264.925 147.942 264.925 150.822C264.925 155.238 265.917 158.726 267.901 161.286C269.885 163.846 272.477 165.126 275.677 165.126ZM330.184 176.358C324.552 176.358 320.36 175.046 317.608 172.422C314.856 169.734 313.48 165.958 313.48 161.094V136.806H306.376V125.862H313.48V112.518H328.456V125.862H339.112V136.806H328.456V159.27C328.456 160.934 328.808 162.182 329.512 163.014C330.216 163.782 331.4 164.166 333.064 164.166C334.024 164.166 335.08 163.974 336.232 163.59C337.384 163.206 338.344 162.726 339.112 162.15V174.438C337.768 175.142 336.296 175.622 334.696 175.878C333.16 176.198 331.656 176.358 330.184 176.358ZM349.968 174.438V106.662H364.368V135.462L358.32 132.198C360.88 129.958 363.888 128.134 367.344 126.726C370.864 125.254 374.448 124.518 378.096 124.518C381.616 124.518 384.72 125.094 387.408 126.246C390.096 127.398 392.176 129.286 393.648 131.91C395.184 134.47 395.952 138.022 395.952 142.566V174.438H381.648V145.542C381.648 142.342 380.848 140.038 379.248 138.63C377.712 137.158 375.44 136.422 372.432 136.422C370.896 136.422 369.36 136.646 367.824 137.094C366.352 137.478 365.2 137.99 364.368 138.63L364.176 174.438H349.968Z" fill="url(#paint1_linear_91_350)"/>
<defs>
<linearGradient id="paint0_linear_91_350" x1="2.11683" y1="60.1231" x2="168.561" y2="55.4472" gradientUnits="userSpaceOnUse">
<stop stop-color="#67C0F2"/>
<stop offset="0.349674" stop-color="#EEF5FF"/>
<stop offset="0.612643" stop-color="#7AC7F4"/>
<stop offset="0.628962" stop-color="#67C0F2"/>
<stop offset="0.883072" stop-color="#DAEDFD"/>
</linearGradient>
<linearGradient id="paint1_linear_91_350" x1="-5.0517" y1="171.218" x2="404.711" y2="152.284" gradientUnits="userSpaceOnUse">
<stop stop-color="#67C0F2"/>
<stop offset="0.349674" stop-color="#EEF5FF"/>
<stop offset="0.612643" stop-color="#7AC7F4"/>
<stop offset="0.628962" stop-color="#67C0F2"/>
<stop offset="0.883072" stop-color="#DAEDFD"/>
</linearGradient>
</defs>
</svg>
