<?xml version="1.0" encoding="UTF-8"?> <svg xmlns="http://www.w3.org/2000/svg" xmlns:xlink="http://www.w3.org/1999/xlink" width="1072" zoomAndPan="magnify" viewBox="0 0 804 159.750002" height="213" preserveAspectRatio="xMidYMid meet" version="1.0"><path stroke-linecap="butt" transform="matrix(0.748828, 0, 0, 0.748828, 121.838819, -6.911953)" fill="none" stroke-linejoin="miter" d="M 263.094752 100.002403 L 263.094752 34.107774 L 289.547543 34.107774 C 296.370705 34.107774 301.514158 35.677936 304.98312 38.818259 C 308.457299 41.958583 310.189171 46.293481 310.189171 51.822954 C 310.189171 55.818781 309.177173 59.094733 307.147961 61.645594 C 305.118749 64.201672 302.093188 66.152637 298.066062 67.503706 L 298.066062 68.453106 C 300.142223 69.355558 301.816714 70.690978 303.094753 72.464583 C 304.367575 74.238187 305.577799 76.867295 306.720209 80.351907 L 313.298196 100.002403 L 299.912697 100.002403 L 293.470339 80.304958 C 292.807846 78.322694 292.067105 76.783832 291.237684 75.683153 C 290.41348 74.587692 289.35975 73.794786 288.086928 73.29922 C 286.808889 72.803654 285.150047 72.553263 283.105185 72.553263 L 276.120313 72.553263 L 276.120313 100.002403 Z M 287.972165 62.235057 C 294.284111 62.235057 297.434867 59.287743 297.434867 53.398333 C 297.434867 47.420242 294.284111 44.431196 287.972165 44.431196 L 276.120313 44.431196 L 276.120313 62.235057 Z M 329.521462 44.342516 C 327.267941 44.342516 325.436955 43.659157 324.023288 42.292438 C 322.614837 40.920502 321.905395 39.157331 321.905395 36.99249 C 321.905395 34.858948 322.614837 33.111425 324.023288 31.744707 C 325.436955 30.377988 327.267941 29.694628 329.521462 29.694628 C 331.023809 29.694628 332.364446 30.007617 333.532938 30.638812 C 334.706647 31.270007 335.614315 32.135943 336.26116 33.231405 C 336.908004 34.326866 337.231426 35.584039 337.231426 36.99249 C 337.231426 38.406157 336.908004 39.668546 336.26116 40.779657 C 335.614315 41.890768 334.706647 42.761921 333.532938 43.393116 C 332.364446 44.02431 331.023809 44.342516 329.521462 44.342516 Z M 335.786459 100.002403 L 323.303413 100.002403 L 323.303413 50.289308 L 335.786459 50.289308 Z M 362.557457 100.002403 L 350.07441 100.002403 L 350.07441 30.325823 L 362.557457 30.325823 L 362.557457 68.990404 L 363.772897 68.990404 L 378.149528 50.289308 L 390.815152 50.289308 L 390.815152 51.327388 L 373.913743 73.137509 L 392.708736 98.875642 L 392.708736 100.002403 L 379.547546 100.002403 L 363.772897 79.042569 L 362.557457 79.042569 Z M 412.176655 100.946587 C 408.989383 100.946587 406.224646 100.36234 403.882445 99.188631 C 401.540243 98.014922 399.73534 96.298699 398.472951 94.029528 C 397.210561 91.760358 396.584583 89.032137 396.584583 85.850081 C 396.584583 82.902768 397.210561 80.43537 398.472951 78.432241 C 399.73534 76.434327 401.691521 74.801568 404.336279 73.523529 C 406.97582 72.24549 410.434349 71.259575 414.701433 70.570999 C 417.674829 70.091082 419.933567 69.564217 421.482863 68.990404 C 423.032158 68.421807 424.075455 67.774963 424.612753 67.055088 C 425.155268 66.335214 425.426525 65.417112 425.426525 64.306001 C 425.426525 62.714974 424.868361 61.494316 423.75725 60.654462 C 422.646139 59.814608 420.799503 59.392073 418.217343 59.392073 C 415.452607 59.392073 412.823499 60.007618 410.330019 61.238708 C 407.83654 62.475015 405.671699 64.097342 403.835496 66.110905 L 402.938261 66.110905 L 397.711344 58.223581 C 400.230906 55.427545 403.313848 53.247055 406.949737 51.687326 C 410.585627 50.122381 414.550155 49.345124 418.843322 49.345124 C 425.426525 49.345124 430.189175 50.737926 433.131272 53.533961 C 436.078586 56.329997 437.549634 60.294525 437.549634 65.432762 L 437.549634 87.018574 C 437.549634 89.246012 438.525117 90.357124 440.476082 90.357124 C 441.227255 90.357124 441.967996 90.221495 442.687871 89.950238 L 443.319066 90.127598 L 444.221517 98.828694 C 443.527725 99.277312 442.567892 99.647682 441.336802 99.934589 C 440.100495 100.216279 438.749425 100.36234 437.278377 100.36234 C 434.304981 100.36234 431.983645 99.788527 430.31437 98.646117 C 428.650312 97.503707 427.455737 95.719669 426.730646 93.283571 L 425.786462 93.194891 C 423.350364 98.364427 418.817239 100.946587 412.176655 100.946587 Z M 416.141183 91.619513 C 419.025899 91.619513 421.331585 90.649247 423.058241 88.708714 C 424.784897 86.773399 425.650834 84.076476 425.650834 80.623164 L 425.650834 75.573607 L 424.79533 75.39103 C 424.044156 75.996142 423.058241 76.496925 421.8428 76.903811 C 420.627359 77.30548 418.87462 77.707149 416.595017 78.098386 C 413.887662 78.547003 411.941913 79.319043 410.757771 80.419721 C 409.568413 81.515183 408.973733 83.069695 408.973733 85.083258 C 408.973733 87.2168 409.604928 88.839127 410.867317 89.950238 C 412.129706 91.061349 413.887662 91.619513 416.141183 91.619513 Z M 458.592931 44.342516 C 456.33941 44.342516 454.508424 43.659157 453.094757 42.292438 C 451.686306 40.920502 450.976864 39.157331 450.976864 36.99249 C 450.976864 34.858948 451.686306 33.111425 453.094757 31.744707 C 454.508424 30.377988 456.33941 29.694628 458.592931 29.694628 C 460.095279 29.694628 461.435915 30.007617 462.604408 30.638812 C 463.778117 31.270007 464.685785 32.135943 465.332629 33.231405 C 465.979473 34.326866 466.302895 35.584039 466.302895 36.99249 C 466.302895 38.406157 465.979473 39.668546 465.332629 40.779657 C 464.685785 41.890768 463.778117 42.761921 462.604408 43.393116 C 461.435915 44.02431 460.095279 44.342516 458.592931 44.342516 Z M 464.857929 100.002403 L 452.374882 100.002403 L 452.374882 50.289308 L 464.857929 50.289308 Z M 464.857929 100.002403 " stroke="#86ccf5" stroke-width="1.903764" stroke-opacity="1" stroke-miterlimit="4"></path><path stroke-linecap="butt" transform="matrix(0.748828, 0, 0, 0.748828, 121.838819, -6.911953)" fill="none" stroke-linejoin="miter" d="M 14.445814 196.001362 L 5.749934 196.001362 L 5.749934 152.005534 L 14.445814 152.005534 Z M 24.977895 196.001362 L 24.977895 162.808873 L 32.979982 162.808873 L 32.979982 167.681069 L 33.611177 167.832347 C 35.682121 164.060829 39.031104 162.177679 43.663342 162.177679 C 47.497458 162.177679 50.309143 163.220975 52.103613 165.307569 C 53.9033 167.394163 54.800536 170.430157 54.800536 174.425984 L 54.800536 196.001362 L 46.464594 196.001362 L 46.464594 175.448414 C 46.464594 173.241842 46.021193 171.650814 45.139607 170.675331 C 44.258021 169.705065 42.839137 169.219932 40.893389 169.219932 C 38.509456 169.219932 36.647171 169.991972 35.311751 171.536051 C 33.981547 173.080131 33.313837 175.505796 33.313837 178.818263 L 33.313837 196.001362 Z M 81.967986 188.087956 L 84.138043 194.25384 C 83.230375 194.994581 82.098398 195.578827 80.736895 196.001362 C 79.370177 196.423898 77.826097 196.632557 76.099441 196.632557 C 72.5105 196.632557 69.782279 195.651858 67.914777 193.695676 C 66.052492 191.739495 65.118742 188.896511 65.118742 185.166725 L 65.118742 169.428592 L 60.063968 169.428592 L 60.063968 162.808873 L 65.118742 162.808873 L 65.118742 156.309134 L 73.454683 154.952848 L 73.454683 162.808873 L 82.870437 162.808873 L 82.870437 169.428592 L 73.454683 169.428592 L 73.454683 184.566829 C 73.454683 186.210021 73.793755 187.409813 74.477114 188.160987 C 75.160474 188.91216 76.151606 189.287747 77.455727 189.287747 C 78.937208 189.287747 80.236113 188.886078 81.336791 188.087956 Z M 117.659171 181.28566 L 96.349833 181.343042 C 96.589791 184.212108 97.408779 186.298702 98.80158 187.602823 C 100.199598 188.906944 102.108831 189.559004 104.534497 189.559004 C 106.44373 189.559004 107.987809 189.204283 109.171951 188.489625 C 110.356093 187.780183 111.305493 186.700371 112.030584 185.255405 L 112.661779 185.255405 L 118.196469 188.807831 C 117.116657 191.134383 115.47868 193.02275 113.292974 194.467716 C 111.107267 195.907466 108.186036 196.632557 104.534497 196.632557 C 101.107266 196.632557 98.144303 195.980496 95.645607 194.676375 C 93.146911 193.372254 91.222029 191.431722 89.865743 188.854779 C 88.514673 186.272619 87.83653 183.132296 87.83653 179.418159 C 87.83653 175.646641 88.545972 172.469802 89.970073 169.877209 C 91.394173 167.289833 93.324272 165.359734 95.749937 164.086912 C 98.175602 162.81409 100.903824 162.177679 103.934601 162.177679 C 108.629437 162.177679 112.223594 163.419202 114.72229 165.907465 C 117.220986 168.395728 118.467726 172.047267 118.467726 176.862082 C 118.467726 178.604387 118.410345 179.960673 118.290365 180.925723 Z M 110.496938 175.897032 C 110.413474 173.372254 109.829228 171.530835 108.733766 170.377992 C 107.643521 169.219932 106.04206 168.646119 103.934601 168.646119 C 99.719682 168.646119 97.241852 171.061351 96.501111 175.897032 Z M 134.717074 196.632557 C 131.728029 196.632557 129.443209 195.824002 127.873047 194.206892 C 126.297669 192.594998 125.50998 190.143251 125.50998 186.851649 L 125.50998 149.475539 L 133.845922 149.475539 L 133.845922 186.523011 C 133.845922 188.547006 134.685775 189.559004 136.3707 189.559004 C 136.855833 189.559004 137.367048 189.480757 137.904346 189.319046 L 138.326881 189.439025 L 139.078055 195.850084 C 138.619005 196.090043 138.008676 196.283053 137.247069 196.423898 C 136.480246 196.559526 135.640392 196.632557 134.717074 196.632557 Z M 153.793757 196.632557 C 150.804712 196.632557 148.525108 195.824002 146.94973 194.206892 C 145.374352 192.594998 144.586663 190.143251 144.586663 186.851649 L 144.586663 149.475539 L 152.922604 149.475539 L 152.922604 186.523011 C 152.922604 188.547006 153.762458 189.559004 155.447383 189.559004 C 155.932516 189.559004 156.443731 189.480757 156.986246 189.319046 L 157.403564 189.439025 L 158.159955 195.850084 C 157.695687 196.090043 157.085359 196.283053 156.323752 196.423898 C 155.556929 196.559526 154.717075 196.632557 153.793757 196.632557 Z M 168.024326 158.833912 C 166.521979 158.833912 165.296105 158.380078 164.357138 157.467193 C 163.412954 156.554309 162.938254 155.375383 162.938254 153.930417 C 162.938254 152.506317 163.412954 151.337824 164.357138 150.42494 C 165.296105 149.512055 166.521979 149.053004 168.024326 149.053004 C 169.031108 149.053004 169.923127 149.26688 170.705599 149.689415 C 171.488072 150.106734 172.093184 150.685764 172.526152 151.416072 C 172.953904 152.151596 173.172996 152.986233 173.172996 153.930417 C 173.172996 154.874601 172.953904 155.714455 172.526152 156.460412 C 172.093184 157.201153 171.488072 157.780182 170.705599 158.202718 C 169.923127 158.625253 169.031108 158.833912 168.024326 158.833912 Z M 172.207947 196.001362 L 163.872005 196.001362 L 163.872005 162.808873 L 172.207947 162.808873 Z M 194.174562 210.08587 C 188.697253 210.08587 184.654478 209.282531 182.046236 207.675854 C 179.437994 206.069177 178.133873 203.836522 178.133873 200.967455 C 178.133873 199.219933 178.692037 197.790616 179.808364 196.679505 C 180.919475 195.563178 182.520936 194.81722 184.60753 194.436417 L 184.60753 193.805223 C 183.480769 193.121863 182.67743 192.365473 182.181864 191.530835 C 181.691515 190.696198 181.44634 189.731148 181.44634 188.625254 C 181.44634 185.95963 183.183429 184.16516 186.652391 183.241842 L 186.652391 182.610647 C 184.868354 181.583 183.522501 180.315394 182.620049 178.802614 C 181.717597 177.289833 181.263763 175.458847 181.263763 173.309656 C 181.263763 171.103083 181.769762 169.162551 182.786977 167.48806 C 183.798975 165.813568 185.280456 164.509447 187.236638 163.575696 C 189.192819 162.641946 191.535021 162.177679 194.263242 162.177679 C 197.033195 162.177679 199.239768 162.657595 200.888177 163.622645 C 201.910608 162.135947 202.500071 160.419723 202.661782 158.473975 L 203.292976 158.082738 L 209.2815 159.559003 C 209.098923 161.144815 208.639873 162.469802 207.899132 163.544397 C 207.153175 164.618993 206.000332 165.57361 204.435386 166.41868 L 204.435386 167.081174 C 206.302888 168.724366 207.236638 171.024836 207.236638 173.972149 C 207.236638 176.017011 206.725423 177.853214 205.702992 179.480757 C 204.675345 181.103083 203.188647 182.386339 201.232465 183.330522 C 199.276283 184.274706 196.954948 184.744189 194.263242 184.744189 L 193.000853 184.71289 C 192.197514 184.676375 191.63935 184.655509 191.315928 184.655509 C 190.554322 184.655509 189.959642 184.858952 189.526674 185.271054 C 189.093706 185.683157 188.87983 186.210021 188.87983 186.851649 C 188.87983 187.555874 189.16152 188.098389 189.719684 188.489625 C 190.283065 188.880861 191.107269 189.099954 192.187081 189.136469 L 199.620571 189.407726 C 206.965381 189.632035 210.637786 192.788008 210.637786 198.891295 C 210.637786 201.03527 210.090055 202.944503 208.994593 204.618994 C 207.904348 206.298702 206.130744 207.623689 203.684213 208.609605 C 201.237681 209.590304 198.066059 210.08587 194.174562 210.08587 Z M 194.263242 178.906944 C 195.869919 178.906944 197.127092 178.43746 198.029544 177.493276 C 198.931995 176.549093 199.380613 175.208456 199.380613 173.460934 C 199.380613 171.713412 198.931995 170.377992 198.029544 169.444241 C 197.127092 168.51049 195.869919 168.046223 194.263242 168.046223 C 192.640915 168.046223 191.388959 168.51049 190.502157 169.444241 C 189.620571 170.377992 189.182386 171.713412 189.182386 173.460934 C 189.182386 175.224106 189.620571 176.575175 190.502157 177.508926 C 191.388959 178.442676 192.640915 178.906944 194.263242 178.906944 Z M 194.174562 204.034748 C 197.022762 204.034748 199.093706 203.633079 200.387394 202.82974 C 201.681083 202.026402 202.333143 200.983105 202.333143 199.69985 C 202.333143 198.656553 201.999288 197.88973 201.336795 197.39938 C 200.674301 196.909031 199.620571 196.64299 198.175605 196.601258 L 191.618484 196.298702 C 191.399392 196.298702 191.190733 196.293485 191.002939 196.27262 C 190.809929 196.251754 190.622136 196.241321 190.444776 196.241321 C 189.041541 196.241321 187.972162 196.543877 187.236638 197.143772 C 186.50633 197.743668 186.141176 198.578306 186.141176 199.642468 C 186.141176 201.045703 186.814102 202.130731 188.154739 202.892338 C 189.500592 203.653945 191.508938 204.034748 194.174562 204.034748 Z M 244.278893 181.28566 L 222.969555 181.343042 C 223.21473 184.212108 224.028501 186.298702 225.426519 187.602823 C 226.81932 188.906944 228.728553 189.559004 231.154219 189.559004 C 233.063452 189.559004 234.607531 189.204283 235.791673 188.489625 C 236.975815 187.780183 237.925215 186.700371 238.650306 185.255405 L 239.281501 185.255405 L 244.821407 188.807831 C 243.736379 191.134383 242.098402 193.02275 239.912696 194.467716 C 237.726989 195.907466 234.805758 196.632557 231.154219 196.632557 C 227.726988 196.632557 224.764025 195.980496 222.265329 194.676375 C 219.766633 193.372254 217.841751 191.431722 216.485465 188.854779 C 215.134395 186.272619 214.456252 183.132296 214.456252 179.418159 C 214.456252 175.646641 215.165694 172.469802 216.589795 169.877209 C 218.013895 167.289833 219.943994 165.359734 222.369659 164.086912 C 224.795324 162.81409 227.523546 162.177679 230.554323 162.177679 C 235.249159 162.177679 238.843316 163.419202 241.342012 165.907465 C 243.840708 168.395728 245.087448 172.047267 245.087448 176.862082 C 245.087448 178.604387 245.030067 179.960673 244.910087 180.925723 Z M 237.11666 175.897032 C 237.033196 173.372254 236.44895 171.530835 235.353488 170.377992 C 234.263243 169.219932 232.661782 168.646119 230.554323 168.646119 C 226.339404 168.646119 223.86679 171.061351 223.120833 175.897032 Z M 252.338361 196.001362 L 252.338361 162.808873 L 260.345664 162.808873 L 260.345664 167.681069 L 260.976859 167.832347 C 263.042587 164.060829 266.39157 162.177679 271.029024 162.177679 C 274.857924 162.177679 277.669609 163.220975 279.469296 165.307569 C 281.263766 167.394163 282.161001 170.430157 282.161001 174.425984 L 282.161001 196.001362 L 273.82506 196.001362 L 273.82506 175.448414 C 273.82506 173.241842 273.381658 171.650814 272.500073 170.675331 C 271.618487 169.705065 270.20482 169.219932 268.259071 169.219932 C 265.869921 169.219932 264.007636 169.991972 262.677433 171.536051 C 261.342013 173.080131 260.674303 175.505796 260.674303 178.818263 L 260.674303 196.001362 Z M 309.333668 188.087956 L 311.498509 194.25384 C 310.596057 194.994581 309.46408 195.578827 308.097361 196.001362 C 306.735859 196.423898 305.186563 196.632557 303.465123 196.632557 C 299.870965 196.632557 297.142744 195.651858 295.280459 193.695676 C 293.412958 191.739495 292.479207 188.896511 292.479207 185.166725 L 292.479207 169.428592 L 287.424434 169.428592 L 287.424434 162.808873 L 292.479207 162.808873 L 292.479207 156.309134 L 300.815149 154.952848 L 300.815149 162.808873 L 310.23612 162.808873 L 310.23612 169.428592 L 300.815149 169.428592 L 300.815149 184.566829 C 300.815149 186.210021 301.154221 187.409813 301.83758 188.160987 C 302.520939 188.91216 303.512071 189.287747 304.816193 189.287747 C 306.302891 189.287747 307.596579 188.886078 308.697257 188.087956 Z M 326.000335 196.632557 C 323.01129 196.632557 320.731686 195.824002 319.156308 194.206892 C 317.580929 192.594998 316.79324 190.143251 316.79324 186.851649 L 316.79324 149.475539 L 325.129182 149.475539 L 325.129182 186.523011 C 325.129182 188.547006 325.969036 189.559004 327.653961 189.559004 C 328.139094 189.559004 328.650309 189.480757 329.192823 189.319046 L 329.610142 189.439025 L 330.366532 195.850084 C 329.902265 196.090043 329.291937 196.283053 328.53033 196.423898 C 327.768723 196.559526 326.923653 196.632557 326.000335 196.632557 Z M 357.747858 162.808873 L 366.235078 162.808873 L 352.901744 198.077523 C 351.837581 200.925724 350.669089 203.21576 349.396267 204.952849 C 348.123445 206.689939 346.615881 207.97841 344.884008 208.818264 C 343.146919 209.663335 341.065542 210.08587 338.639876 210.08587 C 337.215776 210.08587 335.927305 209.971107 334.769245 209.752015 C 333.616402 209.532923 332.677435 209.240799 331.95756 208.880862 L 333.282547 202.141164 L 333.825061 201.958587 C 334.325844 202.219412 334.946606 202.428071 335.687346 202.589782 C 336.433304 202.751493 337.19491 202.82974 337.977383 202.82974 C 339.318019 202.82974 340.439563 202.657596 341.331582 202.302875 C 342.223601 201.953371 342.979991 201.369125 343.605969 200.56057 C 344.226731 199.746798 344.779678 198.620037 345.259595 197.175071 L 332.020158 162.808873 L 340.747336 162.808873 L 348.989381 185.886599 L 349.683173 185.886599 L 349.620576 186.131774 Z M 397.857405 196.632557 C 395.228297 196.632557 392.906962 195.996146 390.888183 194.723324 C 388.87462 193.445285 387.294025 191.520402 386.151615 188.943459 C 385.009205 186.366516 384.435392 183.189677 384.435392 179.418159 C 384.435392 175.625775 385.024854 172.44372 386.193347 169.866776 C 387.367056 167.284617 388.994599 165.359734 391.070759 164.086912 C 393.14692 162.81409 395.551719 162.177679 398.279941 162.177679 C 400.345668 162.177679 402.134923 162.532399 403.647703 163.241841 C 405.1657 163.9565 406.443739 165.062394 407.487035 166.569958 L 408.11823 166.41868 L 408.11823 149.475539 L 416.454172 149.475539 L 416.454172 196.001362 L 408.11823 196.001362 L 408.11823 191.697763 L 407.487035 191.577784 C 406.563718 193.142729 405.301328 194.373819 403.694651 195.276271 C 402.087974 196.178723 400.142226 196.632557 397.857405 196.632557 Z M 400.564761 189.559004 C 402.912179 189.559004 404.769247 188.724367 406.130749 187.049875 C 407.497468 185.370167 408.180828 182.82974 408.180828 179.418159 C 408.180828 176.006578 407.497468 173.460934 406.130749 171.77601 C 404.769247 170.091085 402.912179 169.246015 400.564761 169.246015 C 398.11823 169.246015 396.245512 170.065003 394.951824 171.697762 C 393.658136 173.335738 393.011292 175.907465 393.011292 179.418159 C 393.011292 182.907987 393.658136 185.474497 394.951824 187.107257 C 396.245512 188.745233 398.11823 189.559004 400.564761 189.559004 Z M 440.52303 196.632557 C 437.27316 196.632557 434.419744 195.964847 431.962779 194.629427 C 429.505815 193.299224 427.601799 191.343042 426.245513 188.760882 C 424.894443 186.183939 424.2163 183.069698 424.2163 179.418159 C 424.2163 175.76662 424.894443 172.647162 426.245513 170.059786 C 427.601799 167.47241 429.505815 165.511012 431.962779 164.175592 C 434.419744 162.840172 437.27316 162.177679 440.52303 162.177679 C 443.7729 162.177679 446.631533 162.840172 449.088497 164.175592 C 451.545461 165.511012 453.454695 167.47241 454.821413 170.059786 C 456.182916 172.647162 456.866275 175.76662 456.866275 179.418159 C 456.866275 183.069698 456.182916 186.183939 454.821413 188.760882 C 453.454695 191.343042 451.545461 193.299224 449.088497 194.629427 C 446.631533 195.964847 443.7729 196.632557 440.52303 196.632557 Z M 440.52303 189.559004 C 445.682133 189.559004 448.259076 186.178723 448.259076 179.418159 C 448.259076 175.907465 447.596583 173.335738 446.271596 171.697762 C 444.946609 170.065003 443.032159 169.246015 440.52303 169.246015 C 435.369144 169.246015 432.7922 172.636729 432.7922 179.418159 C 432.7922 186.178723 435.369144 189.559004 440.52303 189.559004 Z M 483.282551 158.833912 C 481.780204 158.833912 480.55433 158.380078 479.610147 157.467193 C 478.665963 156.554309 478.196479 155.375383 478.196479 153.930417 C 478.196479 152.506317 478.665963 151.337824 479.610147 150.42494 C 480.55433 149.512055 481.780204 149.053004 483.282551 149.053004 C 484.284116 149.053004 485.176135 149.26688 485.958608 149.689415 C 486.74108 150.106734 487.351409 150.685764 487.779161 151.416072 C 488.212129 152.151596 488.426005 152.986233 488.426005 153.930417 C 488.426005 154.874601 488.212129 155.714455 487.779161 156.460412 C 487.351409 157.201153 486.74108 157.780182 485.958608 158.202718 C 485.176135 158.625253 484.284116 158.833912 483.282551 158.833912 Z M 487.466172 196.001362 L 479.13023 196.001362 L 479.13023 162.808873 L 487.466172 162.808873 Z M 515.118755 188.087956 L 517.283596 194.25384 C 516.381144 194.994581 515.249167 195.578827 513.887664 196.001362 C 512.520946 196.423898 510.976866 196.632557 509.25021 196.632557 C 505.661269 196.632557 502.933048 195.651858 501.065546 193.695676 C 499.198045 191.739495 498.269511 188.896511 498.269511 185.166725 L 498.269511 169.428592 L 493.209521 169.428592 L 493.209521 162.808873 L 498.269511 162.808873 L 498.269511 156.309134 L 506.605452 154.952848 L 506.605452 162.808873 L 516.021207 162.808873 L 516.021207 169.428592 L 506.605452 169.428592 L 506.605452 184.566829 C 506.605452 186.210021 506.944524 187.409813 507.627883 188.160987 C 508.306026 188.91216 509.302375 189.287747 510.606496 189.287747 C 512.087977 189.287747 513.381665 188.886078 514.48756 188.087956 Z M 546.203784 159.767663 C 546.203784 160.753578 546.360279 161.765576 546.683701 162.808873 L 556.162053 162.808873 L 556.162053 169.428592 L 546.683701 169.428592 L 546.683701 196.001362 L 538.347759 196.001362 L 538.347759 169.428592 L 533.652923 169.428592 L 533.652923 162.808873 L 538.347759 162.808873 C 538.008688 161.405639 537.836544 160.080652 537.836544 158.833912 C 537.836544 156.726453 538.31646 154.926765 539.28151 153.434851 C 540.241343 151.93772 541.628928 150.800526 543.433831 150.018054 C 545.238735 149.235581 547.387926 148.844345 549.870973 148.844345 C 553.543378 148.844345 556.282032 149.475539 558.086935 150.737929 L 556.130754 156.877731 L 555.499559 156.99771 C 554.258036 156.116124 552.661792 155.677939 550.716043 155.677939 C 549.213696 155.677939 548.081719 156.043093 547.330545 156.773401 C 546.579371 157.508925 546.203784 158.505274 546.203784 159.767663 Z M 575.78125 196.632557 C 572.53138 196.632557 569.677963 195.964847 567.220999 194.629427 C 564.764035 193.299224 562.854802 191.343042 561.503733 188.760882 C 560.147447 186.183939 559.469304 183.069698 559.469304 179.418159 C 559.469304 175.76662 560.147447 172.647162 561.503733 170.059786 C 562.854802 167.47241 564.764035 165.511012 567.220999 164.175592 C 569.677963 162.840172 572.53138 162.177679 575.78125 162.177679 C 579.03112 162.177679 581.884537 162.840172 584.341501 164.175592 C 586.798465 165.511012 588.712914 167.47241 590.074417 170.059786 C 591.441136 172.647162 592.119279 175.76662 592.119279 179.418159 C 592.119279 183.069698 591.441136 186.183939 590.074417 188.760882 C 588.712914 191.343042 586.798465 193.299224 584.341501 194.629427 C 581.884537 195.964847 579.03112 196.632557 575.78125 196.632557 Z M 575.78125 189.559004 C 580.935136 189.559004 583.517296 186.178723 583.517296 179.418159 C 583.517296 175.907465 582.854803 173.335738 581.529816 171.697762 C 580.204829 170.065003 578.290379 169.246015 575.78125 169.246015 C 570.627364 169.246015 568.045204 172.636729 568.045204 179.418159 C 568.045204 186.178723 570.627364 189.559004 575.78125 189.559004 Z M 599.850108 196.001362 L 599.850108 162.808873 L 607.946092 162.808873 L 607.946092 167.743667 L 608.577286 167.863646 C 609.380625 166.017011 610.434355 164.665942 611.738476 163.800005 C 613.042597 162.939285 614.628408 162.506317 616.495909 162.506317 C 618.37906 162.506317 619.813593 162.829739 620.794293 163.471367 L 619.380625 170.659682 L 618.749431 170.779661 C 618.206916 170.560569 617.685268 170.398858 617.184485 170.299745 C 616.683703 170.200631 616.073374 170.148466 615.348283 170.148466 C 613.021731 170.148466 611.248126 170.967455 610.022253 172.605431 C 608.801595 174.23819 608.18605 176.862082 608.18605 180.471889 L 608.18605 196.001362 Z M 662.082765 162.808873 L 670.564769 162.808873 L 657.236651 198.077523 C 656.172489 200.925724 655.003996 203.21576 653.731174 204.952849 C 652.458352 206.689939 650.950788 207.97841 649.213699 208.818264 C 647.481826 209.663335 645.400449 210.08587 642.969567 210.08587 C 641.545467 210.08587 640.256995 209.971107 639.104152 209.752015 C 637.951309 209.532923 637.012342 209.240799 636.292467 208.880862 L 637.617454 202.141164 L 638.154752 201.958587 C 638.660751 202.219412 639.281513 202.428071 640.022253 202.589782 C 640.762994 202.751493 641.529817 202.82974 642.31229 202.82974 C 643.652926 202.82974 644.774471 202.657596 645.666489 202.302875 C 646.558508 201.953371 647.314898 201.369125 647.93566 200.56057 C 648.561638 199.746798 649.109369 198.620037 649.594502 197.175071 L 636.349849 162.808873 L 645.077027 162.808873 L 653.324288 185.886599 L 654.018081 185.886599 L 653.955483 186.131774 Z M 690.543903 196.632557 C 687.294034 196.632557 684.440617 195.964847 681.983653 194.629427 C 679.526689 193.299224 677.622672 191.343042 676.266386 188.760882 C 674.9101 186.183939 674.237174 183.069698 674.237174 179.418159 C 674.237174 175.76662 674.9101 172.647162 676.266386 170.059786 C 677.622672 167.47241 679.526689 165.511012 681.983653 164.175592 C 684.440617 162.840172 687.294034 162.177679 690.543903 162.177679 C 693.793773 162.177679 696.64719 162.840172 699.10937 164.175592 C 701.566335 165.511012 703.475568 167.47241 704.842287 170.059786 C 706.203789 172.647162 706.887148 175.76662 706.887148 179.418159 C 706.887148 183.069698 706.203789 186.183939 704.842287 188.760882 C 703.475568 191.343042 701.566335 193.299224 699.10937 194.629427 C 696.64719 195.964847 693.793773 196.632557 690.543903 196.632557 Z M 690.543903 189.559004 C 695.703006 189.559004 698.279949 186.178723 698.279949 179.418159 C 698.279949 175.907465 697.617456 173.335738 696.292469 171.697762 C 694.967482 170.065003 693.053032 169.246015 690.543903 169.246015 C 685.390017 169.246015 682.813074 172.636729 682.813074 179.418159 C 682.813074 186.178723 685.390017 189.559004 690.543903 189.559004 Z M 725.030081 196.632557 C 721.295078 196.632557 718.545991 195.615343 716.76717 193.575697 C 714.993565 191.541268 714.106763 188.614821 714.106763 184.806787 L 714.106763 162.808873 L 722.442704 162.808873 L 722.442704 183.753057 C 722.442704 185.777053 722.875673 187.258535 723.752042 188.192285 C 724.623195 189.126036 725.974264 189.590303 727.800034 189.590303 C 730.10572 189.590303 731.90019 188.833913 733.183445 187.315916 C 734.466701 185.803136 735.108328 183.419202 735.108328 180.169333 L 735.108328 162.808873 L 743.44427 162.808873 L 743.44427 196.001362 L 735.442183 196.001362 L 735.442183 191.12395 L 734.810989 190.972672 C 733.746826 192.881905 732.447921 194.300789 730.914275 195.234539 C 729.375412 196.163073 727.414014 196.632557 725.030081 196.632557 Z M 725.030081 196.632557 " stroke="#86ccf5" stroke-width="1.903764" stroke-opacity="1" stroke-miterlimit="4"></path></svg> 