<?xml version="1.0" encoding="UTF-8"?> <svg xmlns="http://www.w3.org/2000/svg" xmlns:xlink="http://www.w3.org/1999/xlink" width="1072" zoomAndPan="magnify" viewBox="0 0 804 159.750002" height="213" preserveAspectRatio="xMidYMid meet" version="1.0"><defs><clipPath id="14620e4bd2"><path d="M 0.628906 81 L 803.371094 81 L 803.371094 159.5 L 0.628906 159.5 Z M 0.628906 81 " clip-rule="nonzero"></path></clipPath></defs><path stroke-linecap="butt" transform="matrix(0.908579, 0, 0, 0.908579, 0.62812, -17.420122)" fill="none" stroke-linejoin="miter" d="M 354.219841 79.001929 L 354.219841 27.053539 L 375.075725 27.053539 C 380.454144 27.053539 384.512679 28.291736 387.247031 30.763831 C 389.981383 33.240226 391.352859 36.658166 391.352859 41.017652 C 391.352859 44.164736 390.55319 46.748613 388.953852 48.760683 C 387.354514 50.777053 384.968404 52.316201 381.791225 53.382426 L 381.791225 54.126204 C 383.429257 54.839887 384.74914 55.893215 385.755176 57.290486 C 386.761211 58.687757 387.715654 60.760018 388.614207 63.507268 L 393.803457 79.001929 L 383.248686 79.001929 L 378.166919 63.472873 C 377.646704 61.90793 377.062 60.695528 376.408507 59.83137 C 375.759313 58.967211 374.929549 58.339514 373.923514 57.948278 C 372.917479 57.557042 371.606193 57.359275 369.998257 57.359275 L 364.48656 57.359275 L 364.48656 79.001929 Z M 373.833229 49.225007 C 378.807514 49.225007 381.296806 46.903387 381.296806 42.260148 C 381.296806 37.543821 378.807514 35.187807 373.833229 35.187807 L 364.48656 35.187807 L 364.48656 49.225007 Z M 406.589563 35.119018 C 404.813954 35.119018 403.36939 34.577307 402.255873 33.502483 C 401.142355 32.423359 400.587746 31.030388 400.587746 29.327866 C 400.587746 27.642543 401.142355 26.262469 402.255873 25.187645 C 403.36939 24.108521 404.813954 23.571109 406.589563 23.571109 C 407.776168 23.571109 408.829496 23.820469 409.753844 24.314888 C 410.678193 24.813606 411.396175 25.492895 411.903492 26.357053 C 412.410809 27.225511 412.668767 28.214349 412.668767 29.327866 C 412.668767 30.441384 412.410809 31.434521 411.903492 32.311578 C 411.396175 33.188634 410.678193 33.872222 409.753844 34.37094 C 408.829496 34.869659 407.776168 35.119018 406.589563 35.119018 Z M 411.529454 79.001929 L 401.688366 79.001929 L 401.688366 39.80955 L 411.529454 39.80955 Z M 432.634696 79.001929 L 422.793608 79.001929 L 422.793608 24.065529 L 432.634696 24.065529 L 432.634696 54.551835 L 433.593439 54.551835 L 444.930682 39.80955 L 454.913647 39.80955 L 454.913647 40.626416 L 441.590129 57.823599 L 456.405502 78.111975 L 456.405502 79.001929 L 446.031302 79.001929 L 433.593439 62.475437 L 432.634696 62.475437 Z M 471.753988 79.745708 C 469.2432 79.745708 467.063457 79.285683 465.214759 78.361334 C 463.370362 77.436986 461.947295 76.078408 460.954157 74.289901 C 459.956721 72.501394 459.458002 70.351746 459.458002 67.840958 C 459.458002 65.519338 459.956721 63.571757 460.954157 61.998215 C 461.947295 60.424673 463.486443 59.130585 465.571601 58.124549 C 467.656759 57.118514 470.378214 56.340342 473.744562 55.79863 C 476.087678 55.420292 477.871886 55.003261 479.092886 54.551835 C 480.309587 54.104708 481.135052 53.593092 481.560682 53.025585 C 481.986312 52.458078 482.201277 51.735796 482.201277 50.85874 C 482.201277 49.603345 481.762749 48.644602 480.885692 47.982511 C 480.008636 47.31612 478.551175 46.985074 476.513309 46.985074 C 474.337865 46.985074 472.261305 47.470895 470.296527 48.442535 C 468.331749 49.414176 466.624928 50.691067 465.180365 52.281806 L 464.470981 52.281806 L 460.347957 46.060726 C 462.338531 43.859486 464.767633 42.139768 467.630964 40.910169 C 470.498594 39.676271 473.624182 39.061472 477.012027 39.061472 C 482.201277 39.061472 485.954562 40.162092 488.276182 42.36763 C 490.597802 44.56887 491.758611 47.694458 491.758611 51.748694 L 491.758611 68.765306 C 491.758611 70.519419 492.528185 71.396475 494.067333 71.396475 C 494.660636 71.396475 495.241041 71.288993 495.808548 71.078327 L 496.307266 71.220204 L 497.01665 78.077581 C 496.470639 78.430123 495.713963 78.722475 494.742323 78.946039 C 493.770682 79.169602 492.704456 79.285683 491.543647 79.285683 C 489.20053 79.285683 487.36903 78.834257 486.057745 77.935704 C 484.742161 77.032852 483.800615 75.622683 483.228809 73.705197 L 482.48503 73.636408 C 480.567545 77.707841 476.99053 79.745708 471.753988 79.745708 Z M 474.879576 72.389613 C 477.153904 72.389613 478.972506 71.628637 480.335383 70.098088 C 481.698259 68.571838 482.377548 66.443687 482.377548 63.722232 L 482.377548 59.741085 L 481.702559 59.599208 C 481.109256 60.07213 480.335383 60.471965 479.37664 60.790113 C 478.417897 61.108261 477.037823 61.422109 475.236418 61.731658 C 473.103967 62.0885 471.569119 62.694701 470.636171 63.563158 C 469.698925 64.427317 469.230302 65.652616 469.230302 67.239056 C 469.230302 68.920081 469.72902 70.201271 470.722157 71.078327 C 471.719594 71.951084 473.103967 72.389613 474.879576 72.389613 Z M 508.349594 35.119018 C 506.573984 35.119018 505.129421 34.577307 504.015904 33.502483 C 502.902386 32.423359 502.343477 31.030388 502.343477 29.327866 C 502.343477 27.642543 502.902386 26.262469 504.015904 25.187645 C 505.129421 24.108521 506.573984 23.571109 508.349594 23.571109 C 509.536199 23.571109 510.589527 23.820469 511.513875 24.314888 C 512.433925 24.813606 513.151907 25.492895 513.663523 26.357053 C 514.17084 27.225511 514.424498 28.214349 514.424498 29.327866 C 514.424498 30.441384 514.17084 31.434521 513.663523 32.311578 C 513.151907 33.188634 512.433925 33.872222 511.513875 34.37094 C 510.589527 34.869659 509.536199 35.119018 508.349594 35.119018 Z M 513.289484 79.001929 L 503.444097 79.001929 L 503.444097 39.80955 L 513.289484 39.80955 Z M 513.289484 79.001929 " stroke="#86ccf5" stroke-width="2.729168" stroke-opacity="1" stroke-miterlimit="4"></path><g clip-path="url(#14620e4bd2)"><path stroke-linecap="butt" transform="matrix(0.908579, 0, 0, 0.908579, 0.62812, -17.420122)" fill="none" stroke-linejoin="miter" d="M 17.051872 180.000985 L 6.780855 180.000985 L 6.780855 128.052595 L 17.051872 128.052595 Z M 29.485436 180.000985 L 29.485436 140.808605 L 38.939587 140.808605 L 38.939587 146.565362 L 39.683365 146.741633 C 42.125365 142.287563 46.080717 140.060528 51.549421 140.060528 C 56.07658 140.060528 59.399935 141.294425 61.519488 143.757922 C 63.639041 146.221418 64.696668 149.81133 64.696668 154.523358 L 64.696668 180.000985 L 54.85558 180.000985 L 54.85558 155.731461 C 54.85558 153.126087 54.335365 151.247295 53.290636 150.099383 C 52.250207 148.951471 50.58208 148.375366 48.281957 148.375366 C 45.461619 148.375366 43.264678 149.286816 41.691136 151.114017 C 40.117594 152.936918 39.326524 155.804549 39.326524 159.712608 L 39.326524 180.000985 Z M 96.782312 170.654316 L 99.340393 177.937323 C 98.274167 178.814379 96.937086 179.502267 95.324851 180.000985 C 93.712615 180.495404 91.889713 180.744763 89.851847 180.744763 C 85.612741 180.744763 82.392569 179.592552 80.18703 177.28383 C 77.985791 174.970809 76.885171 171.613059 76.885171 167.206281 L 76.885171 148.624725 L 70.913449 148.624725 L 70.913449 140.808605 L 76.885171 140.808605 L 76.885171 133.134362 L 86.726259 131.535024 L 86.726259 140.808605 L 97.848537 140.808605 L 97.848537 148.624725 L 86.726259 148.624725 L 86.726259 166.496897 C 86.726259 168.440179 87.130393 169.854647 87.934361 170.744601 C 88.738329 171.630256 89.912037 172.077383 91.451185 172.077383 C 93.205298 172.077383 94.731548 171.60446 96.034234 170.654316 Z M 138.919709 162.623232 L 113.76453 162.69632 C 114.048283 166.084165 115.011326 168.547661 116.657956 170.086809 C 118.304586 171.625957 120.561717 172.395531 123.429347 172.395531 C 125.677878 172.395531 127.505079 171.9742 128.90235 171.135837 C 130.299621 170.293175 131.421738 169.020584 132.277297 167.313763 L 133.021076 167.313763 L 139.560304 171.509876 C 138.279114 174.257126 136.34873 176.484161 133.769153 178.186682 C 131.185276 179.893503 127.74154 180.744763 123.429347 180.744763 C 119.37941 180.744763 115.879783 179.975189 112.930467 178.436041 C 109.98115 176.896893 107.706822 174.605369 106.107484 171.561467 C 104.508146 168.517566 103.708477 164.802975 103.708477 160.421992 C 103.708477 155.967922 104.551139 152.214637 106.232164 149.157837 C 107.913188 146.101038 110.187516 143.822411 113.055146 142.317658 C 115.918477 140.812904 119.142949 140.060528 122.719963 140.060528 C 128.261755 140.060528 132.50516 141.530887 135.454477 144.467306 C 138.403794 147.403725 139.878452 151.715918 139.878452 157.399587 C 139.878452 159.463249 139.809664 161.062587 139.667787 162.197601 Z M 130.462995 156.264573 C 130.36841 153.280862 129.676223 151.105418 128.386435 149.742542 C 127.092347 148.383964 125.204956 147.700376 122.719963 147.700376 C 117.741379 147.700376 114.817857 150.555108 113.940801 156.264573 Z M 159.066209 180.744763 C 155.536487 180.744763 152.840829 179.794619 150.979234 177.885731 C 149.121938 175.976844 148.19329 173.083418 148.19329 169.196855 L 148.19329 125.068883 L 158.034378 125.068883 L 158.034378 168.805619 C 158.034378 171.200327 159.027515 172.395531 161.018089 172.395531 C 161.585596 172.395531 162.191797 172.300946 162.832392 172.111777 L 163.326811 172.253654 L 164.216765 179.820415 C 163.670755 180.108467 162.948473 180.332031 162.04992 180.495404 C 161.151368 180.663077 160.153931 180.744763 159.066209 180.744763 Z M 181.59022 180.744763 C 178.060498 180.744763 175.364839 179.794619 173.507544 177.885731 C 171.645948 175.976844 170.717301 173.083418 170.717301 169.196855 L 170.717301 125.068883 L 180.562688 125.068883 L 180.562688 168.805619 C 180.562688 171.200327 181.555825 172.395531 183.546399 172.395531 C 184.113906 172.395531 184.715808 172.300946 185.356403 172.111777 L 185.855121 172.253654 L 186.745075 179.820415 C 186.199065 180.108467 185.476783 180.332031 184.573931 180.495404 C 183.675378 180.663077 182.682241 180.744763 181.59022 180.744763 Z M 198.396167 136.118073 C 196.620557 136.118073 195.175994 135.580661 194.062476 134.501538 C 192.948959 133.422415 192.39005 132.029443 192.39005 130.326922 C 192.39005 128.645897 192.948959 127.265823 194.062476 126.1867 C 195.175994 125.107577 196.620557 124.570165 198.396167 124.570165 C 199.582772 124.570165 200.6361 124.819524 201.560448 125.313943 C 202.480498 125.812661 203.19848 126.496249 203.710096 127.360408 C 204.217413 128.224566 204.471071 129.213404 204.471071 130.326922 C 204.471071 131.44044 204.217413 132.433577 203.710096 133.310633 C 203.19848 134.18769 202.480498 134.875577 201.560448 135.369996 C 200.6361 135.868714 199.582772 136.118073 198.396167 136.118073 Z M 203.336057 180.000985 L 193.494969 180.000985 L 193.494969 140.808605 L 203.336057 140.808605 Z M 229.273709 196.630661 C 222.807568 196.630661 218.03105 195.680517 214.952754 193.784527 C 211.874459 191.892837 210.335311 189.24877 210.335311 185.860925 C 210.335311 183.801562 210.993103 182.116238 212.304388 180.800654 C 213.619973 179.485069 215.511663 178.603714 217.975159 178.152288 L 217.975159 177.40421 C 216.646677 176.600242 215.692233 175.705989 215.111828 174.72145 C 214.531423 173.74121 214.243371 172.597598 214.243371 171.294911 C 214.243371 168.143527 216.289835 166.023975 220.391364 164.936253 L 220.391364 164.188175 C 218.280409 162.980073 216.693969 161.483918 215.627744 159.695411 C 214.561519 157.906904 214.028406 155.744358 214.028406 153.207774 C 214.028406 150.602401 214.626008 148.310876 215.825512 146.3332 C 217.020716 144.355524 218.774828 142.816376 221.08355 141.715756 C 223.392272 140.610837 226.156719 140.060528 229.381191 140.060528 C 232.648656 140.060528 235.254029 140.632334 237.197311 141.767348 C 238.405413 140.013235 239.101899 137.988267 239.291068 135.692443 L 240.039145 135.228119 L 247.111487 136.969334 C 246.896522 138.843827 246.350511 140.41307 245.473455 141.677063 C 244.600698 142.945355 243.237821 144.07607 241.389124 145.073506 L 241.389124 145.851679 C 243.590363 147.794961 244.695282 150.507816 244.695282 153.990246 C 244.695282 156.40645 244.089082 158.573295 242.88098 160.490781 C 241.672877 162.412566 239.914466 163.925918 237.605744 165.039436 C 235.297022 166.152953 232.554071 166.711862 229.381191 166.711862 L 227.885036 166.677467 C 226.939191 166.630175 226.277099 166.604379 225.898761 166.604379 C 224.995909 166.604379 224.290825 166.84514 223.783508 167.33096 C 223.271892 167.816781 223.018233 168.440179 223.018233 169.196855 C 223.018233 170.026619 223.349279 170.671513 224.01567 171.135837 C 224.677761 171.595862 225.649402 171.84952 226.926293 171.896813 L 235.705455 172.21926 C 244.372835 172.477217 248.710825 176.209006 248.710825 183.410326 C 248.710825 185.946911 248.061631 188.204041 246.771842 190.181717 C 245.482054 192.159393 243.392596 193.728636 240.49917 194.889446 C 237.610043 196.050256 233.869656 196.630661 229.273709 196.630661 Z M 229.381191 159.815791 C 231.272881 159.815791 232.756138 159.261182 233.822363 158.147665 C 234.888589 157.034147 235.421701 155.447707 235.421701 153.388344 C 235.421701 151.324682 234.888589 149.742542 233.822363 148.641922 C 232.756138 147.541302 231.272881 146.990992 229.381191 146.990992 C 227.459406 146.990992 225.980448 147.541302 224.935719 148.641922 C 223.89529 149.742542 223.375075 151.324682 223.375075 153.388344 C 223.375075 155.469203 223.89529 157.064242 224.935719 158.164862 C 225.980448 159.265482 227.459406 159.815791 229.381191 159.815791 Z M 229.273709 189.485231 C 232.635758 189.485231 235.082057 189.012309 236.608307 188.066464 C 238.138856 187.116319 238.899832 185.886721 238.899832 184.369069 C 238.899832 183.139471 238.512895 182.232319 237.730423 181.651915 C 236.947951 181.07151 235.705455 180.757661 233.998635 180.710369 L 226.251304 180.353527 C 225.993346 180.353527 225.748286 180.344929 225.524723 180.319133 C 225.29686 180.297636 225.081895 180.284738 224.86693 180.284738 C 223.207402 180.284738 221.947709 180.64158 221.08355 181.350964 C 220.219392 182.060348 219.785163 183.044886 219.785163 184.300281 C 219.785163 185.95551 220.580533 187.2367 222.166973 188.135253 C 223.753413 189.038105 226.122325 189.485231 229.273709 189.485231 Z M 288.432018 162.623232 L 263.272539 162.69632 C 263.560592 166.084165 264.523634 168.547661 266.170265 170.086809 C 267.816895 171.625957 270.074025 172.395531 272.937356 172.395531 C 275.190187 172.395531 277.013088 171.9742 278.41036 171.135837 C 279.807631 170.293175 280.934046 169.020584 281.785307 167.313763 L 282.533384 167.313763 L 289.072613 171.509876 C 287.791423 174.257126 285.861039 176.484161 283.277162 178.186682 C 280.697585 179.893503 277.24955 180.744763 272.937356 180.744763 C 268.88742 180.744763 265.387793 179.975189 262.438476 178.436041 C 259.489159 176.896893 257.214832 174.605369 255.615494 171.561467 C 254.020455 168.517566 253.220786 164.802975 253.220786 160.421992 C 253.220786 155.967922 254.059149 152.214637 255.740173 149.157837 C 257.425497 146.101038 259.695525 143.822411 262.563155 142.317658 C 265.430786 140.812904 268.650958 140.060528 272.227972 140.060528 C 277.769765 140.060528 282.017469 141.530887 284.966786 144.467306 C 287.916102 147.403725 289.390761 151.715918 289.390761 157.399587 C 289.390761 159.463249 289.317673 161.062587 289.175796 162.197601 Z M 279.975303 156.264573 C 279.880719 153.280862 279.188532 151.105418 277.894444 149.742542 C 276.604655 148.383964 274.717265 147.700376 272.227972 147.700376 C 267.253687 147.700376 264.330166 150.555108 263.45311 156.264573 Z M 297.950659 180.000985 L 297.950659 140.808605 L 307.40481 140.808605 L 307.40481 146.565362 L 308.148588 146.741633 C 310.590588 142.287563 314.54594 140.060528 320.018944 140.060528 C 324.541803 140.060528 327.865158 141.294425 329.984711 143.757922 C 332.104264 146.221418 333.161891 149.81133 333.161891 154.523358 L 333.161891 180.000985 L 323.320803 180.000985 L 323.320803 155.731461 C 323.320803 153.126087 322.800588 151.247295 321.760159 150.099383 C 320.71543 148.951471 319.047303 148.375366 316.74718 148.375366 C 313.931141 148.375366 311.729902 149.286816 310.156359 151.114017 C 308.582817 152.936918 307.791747 155.804549 307.791747 159.712608 L 307.791747 180.000985 Z M 365.247535 170.654316 L 367.805616 177.937323 C 366.739391 178.814379 365.40231 179.502267 363.790074 180.000985 C 362.177838 180.495404 360.354936 180.744763 358.31707 180.744763 C 354.077965 180.744763 350.857792 179.592552 348.652253 177.28383 C 346.451014 174.970809 345.350394 171.613059 345.350394 167.206281 L 345.350394 148.624725 L 339.378672 148.624725 L 339.378672 140.808605 L 345.350394 140.808605 L 345.350394 133.134362 L 355.191482 131.535024 L 355.191482 140.808605 L 366.31376 140.808605 L 366.31376 148.624725 L 355.191482 148.624725 L 355.191482 166.496897 C 355.191482 168.440179 355.595616 169.854647 356.399584 170.744601 C 357.203553 171.630256 358.37726 172.077383 359.916408 172.077383 C 361.670521 172.077383 363.196771 171.60446 364.499457 170.654316 Z M 384.929711 180.744763 C 381.399989 180.744763 378.704331 179.794619 376.847035 177.885731 C 374.98544 175.976844 374.056792 173.083418 374.056792 169.196855 L 374.056792 125.068883 L 383.89788 125.068883 L 383.89788 168.805619 C 383.89788 171.200327 384.895316 172.395531 386.88589 172.395531 C 387.453397 172.395531 388.055299 172.300946 388.695894 172.111777 L 389.194612 172.253654 L 390.080267 179.820415 C 389.538556 180.108467 388.816274 180.332031 387.913422 180.495404 C 387.014869 180.663077 386.017433 180.744763 384.929711 180.744763 Z M 422.41527 140.808605 L 432.436929 140.808605 L 416.692908 182.451584 C 415.437513 185.813633 414.057439 188.522189 412.552686 190.572953 C 411.052232 192.619418 409.272323 194.141369 407.225859 195.138805 C 405.175094 196.131943 402.720197 196.630661 399.852566 196.630661 C 398.171542 196.630661 396.649591 196.497383 395.286714 196.239425 C 393.923838 195.977168 392.814619 195.633224 391.963359 195.207594 L 393.528302 187.249598 L 394.168897 187.034633 C 394.757901 187.344182 395.49308 187.593541 396.370137 187.78271 C 397.247193 187.971879 398.145746 188.066464 399.070095 188.066464 C 400.656535 188.066464 401.976418 187.860098 403.034045 187.443066 C 404.087373 187.030334 404.981626 186.342446 405.716806 185.383703 C 406.447686 184.42496 407.101179 183.092179 407.668686 181.385358 L 392.036447 140.808605 L 402.337559 140.808605 L 412.075464 168.061841 L 412.89233 168.061841 L 412.819242 168.345594 Z M 469.776312 180.744763 C 466.672221 180.744763 463.92927 179.992386 461.551759 178.491932 C 459.16995 176.987179 457.304055 174.712851 455.954076 171.66895 C 454.604098 168.625048 453.929108 164.876063 453.929108 160.421992 C 453.929108 155.946425 454.621295 152.184542 456.005668 149.14064 C 457.394341 146.096739 459.311826 143.822411 461.762425 142.317658 C 464.213024 140.812904 467.050559 140.060528 470.275031 140.060528 C 472.712731 140.060528 474.827985 140.481859 476.616492 141.324521 C 478.404999 142.162883 479.914052 143.474168 481.147949 145.249778 L 481.891728 145.073506 L 481.891728 125.068883 L 491.732816 125.068883 L 491.732816 180.000985 L 481.891728 180.000985 L 481.891728 174.919217 L 481.147949 174.777341 C 480.055928 176.626038 478.564073 178.0792 476.668083 179.145425 C 474.772094 180.21165 472.47627 180.744763 469.776312 180.744763 Z M 472.974988 172.395531 C 475.743735 172.395531 477.936376 171.406693 479.548611 169.429017 C 481.156548 167.451341 481.964816 164.450432 481.964816 160.421992 C 481.964816 156.393552 481.156548 153.388344 479.548611 151.39777 C 477.936376 149.407196 475.743735 148.40976 472.974988 148.40976 C 470.085862 148.40976 467.876024 149.377101 466.345474 151.307485 C 464.819224 153.237869 464.05395 156.277471 464.05395 160.421992 C 464.05395 164.545017 464.819224 167.571721 466.345474 169.502105 C 467.876024 171.432489 470.085862 172.395531 472.974988 172.395531 Z M 520.159759 180.744763 C 516.320488 180.744763 512.94984 179.957992 510.047815 178.38445 C 507.145791 176.806608 504.897259 174.497886 503.297921 171.453985 C 501.698583 168.410084 500.898914 164.734186 500.898914 160.421992 C 500.898914 156.109799 501.698583 152.425302 503.297921 149.372802 C 504.897259 146.316003 507.145791 143.998682 510.047815 142.42514 C 512.94984 140.847299 516.320488 140.060528 520.159759 140.060528 C 523.994731 140.060528 527.365379 140.847299 530.267403 142.42514 C 533.169428 143.998682 535.426558 146.316003 537.034495 149.372802 C 538.646731 152.425302 539.450699 156.109799 539.450699 160.421992 C 539.450699 164.734186 538.646731 168.410084 537.034495 171.453985 C 535.426558 174.497886 533.169428 176.806608 530.267403 178.38445 C 527.365379 179.957992 523.994731 180.744763 520.159759 180.744763 Z M 520.159759 172.395531 C 526.247562 172.395531 529.291463 168.405784 529.291463 160.421992 C 529.291463 156.277471 528.508991 153.237869 526.944048 151.307485 C 525.379104 149.377101 523.117674 148.40976 520.159759 148.40976 C 514.071956 148.40976 511.028055 152.416704 511.028055 160.421992 C 511.028055 168.405784 514.071956 172.395531 520.159759 172.395531 Z M 570.646389 136.118073 C 568.87078 136.118073 567.421917 135.580661 566.308399 134.501538 C 565.194882 133.422415 564.640273 132.029443 564.640273 130.326922 C 564.640273 128.645897 565.194882 127.265823 566.308399 126.1867 C 567.421917 125.107577 568.87078 124.570165 570.646389 124.570165 C 571.828695 124.570165 572.882023 124.819524 573.806371 125.313943 C 574.73072 125.812661 575.448702 126.496249 575.956019 127.360408 C 576.467635 128.224566 576.721294 129.213404 576.721294 130.326922 C 576.721294 131.44044 576.467635 132.433577 575.956019 133.310633 C 575.448702 134.18769 574.73072 134.875577 573.806371 135.369996 C 572.882023 135.868714 571.828695 136.118073 570.646389 136.118073 Z M 575.58628 180.000985 L 565.740892 180.000985 L 565.740892 140.808605 L 575.58628 140.808605 Z M 608.235132 170.654316 L 610.793212 177.937323 C 609.731286 178.814379 608.389906 179.502267 606.78197 180.000985 C 605.169734 180.495404 603.346832 180.744763 601.308966 180.744763 C 597.06986 180.744763 593.845389 179.592552 591.644149 177.28383 C 589.438611 174.970809 588.337991 171.613059 588.337991 167.206281 L 588.337991 148.624725 L 582.370568 148.624725 L 582.370568 140.808605 L 588.337991 140.808605 L 588.337991 133.134362 L 598.183378 131.535024 L 598.183378 140.808605 L 609.301357 140.808605 L 609.301357 148.624725 L 598.183378 148.624725 L 598.183378 166.496897 C 598.183378 168.440179 598.583213 169.854647 599.39148 170.744601 C 600.195448 171.630256 601.369156 172.077383 602.908304 172.077383 C 604.658117 172.077383 606.188667 171.60446 607.491353 170.654316 Z M 644.938219 137.218693 C 644.938219 138.379503 645.127388 139.574707 645.505726 140.808605 L 656.701092 140.808605 L 656.701092 148.624725 L 645.505726 148.624725 L 645.505726 180.000985 L 635.664638 180.000985 L 635.664638 148.624725 L 630.122846 148.624725 L 630.122846 140.808605 L 635.664638 140.808605 C 635.260505 139.149077 635.062737 137.588433 635.062737 136.118073 C 635.062737 133.628781 635.630244 131.504929 636.765258 129.737918 C 637.904571 127.975207 639.538304 126.629528 641.670754 125.705179 C 643.803205 124.78083 646.33549 124.320806 649.271909 124.320806 C 653.609899 124.320806 656.842969 125.068883 658.97542 126.560739 L 656.666698 133.809352 L 655.918621 133.951228 C 654.448261 132.906499 652.56517 132.386285 650.269346 132.386285 C 648.493737 132.386285 647.160955 132.820514 646.271001 133.684672 C 645.381047 134.54883 644.938219 135.726837 644.938219 137.218693 Z M 679.865698 180.744763 C 676.026427 180.744763 672.660078 179.957992 669.758054 178.38445 C 666.856029 176.806608 664.603198 174.497886 663.00386 171.453985 C 661.404522 168.410084 660.609152 164.734186 660.609152 160.421992 C 660.609152 156.109799 661.404522 152.425302 663.00386 149.372802 C 664.603198 146.316003 666.856029 143.998682 669.758054 142.42514 C 672.660078 140.847299 676.026427 140.060528 679.865698 140.060528 C 683.704969 140.060528 687.071317 140.847299 689.973342 142.42514 C 692.875367 143.998682 695.132497 146.316003 696.744733 149.372802 C 698.35267 152.425302 699.160937 156.109799 699.160937 160.421992 C 699.160937 164.734186 698.35267 168.410084 696.744733 171.453985 C 695.132497 174.497886 692.875367 176.806608 689.973342 178.38445 C 687.071317 179.957992 683.704969 180.744763 679.865698 180.744763 Z M 679.865698 172.395531 C 685.953501 172.395531 688.997402 168.405784 688.997402 160.421992 C 688.997402 156.277471 688.21493 153.237869 686.654286 151.307485 C 685.089342 149.377101 682.827913 148.40976 679.865698 148.40976 C 673.777895 148.40976 670.733994 152.416704 670.733994 160.421992 C 670.733994 168.405784 673.777895 172.395531 679.865698 172.395531 Z M 708.288342 180.000985 L 708.288342 140.808605 L 717.845676 140.808605 L 717.845676 146.634151 L 718.593754 146.776028 C 719.539599 144.596285 720.782095 143.001246 722.325543 141.982313 C 723.86469 140.96338 725.734884 140.451763 727.936123 140.451763 C 730.163159 140.451763 731.857081 140.830101 733.017891 141.591077 L 731.349764 150.082186 L 730.601687 150.224063 C 729.961092 149.961806 729.346292 149.772637 728.75299 149.656556 C 728.163986 149.536175 727.441704 149.475985 726.586145 149.475985 C 723.838895 149.475985 721.745138 150.443327 720.300574 152.373711 C 718.851712 154.304094 718.12943 157.399587 718.12943 161.664489 L 718.12943 180.000985 Z M 781.767605 140.808605 L 791.784965 140.808605 L 776.045243 182.451584 C 774.789848 185.813633 773.409775 188.522189 771.905021 190.572953 C 770.400268 192.619418 768.624658 194.141369 766.578194 195.138805 C 764.52743 196.131943 762.068232 196.630661 759.204901 196.630661 C 757.519577 196.630661 755.997627 196.497383 754.639049 196.239425 C 753.276173 195.977168 752.166954 195.633224 751.315694 195.207594 L 752.880637 187.249598 L 753.516933 187.034633 C 754.110236 187.344182 754.845416 187.593541 755.722472 187.78271 C 756.599528 187.971879 757.498081 188.066464 758.42243 188.066464 C 760.00887 188.066464 761.328754 187.860098 762.382081 187.443066 C 763.439708 187.030334 764.329662 186.342446 765.064841 185.383703 C 765.800021 184.42496 766.453514 183.092179 767.021021 181.385358 L 751.384482 140.808605 L 761.689894 140.808605 L 771.427799 168.061841 L 772.244665 168.061841 L 772.171577 168.345594 Z M 815.3752 180.744763 C 811.540228 180.744763 808.169581 179.957992 805.267556 178.38445 C 802.365531 176.806608 800.117 174.497886 798.517662 171.453985 C 796.918324 168.410084 796.118655 164.734186 796.118655 160.421992 C 796.118655 156.109799 796.918324 152.425302 798.517662 149.372802 C 800.117 146.316003 802.365531 143.998682 805.267556 142.42514 C 808.169581 140.847299 811.540228 140.060528 815.3752 140.060528 C 819.214471 140.060528 822.585119 140.847299 825.487144 142.42514 C 828.389168 143.998682 830.646299 146.316003 832.254235 149.372802 C 833.866471 152.425302 834.67044 156.109799 834.67044 160.421992 C 834.67044 164.734186 833.866471 168.410084 832.254235 171.453985 C 830.646299 174.497886 828.389168 176.806608 825.487144 178.38445 C 822.585119 179.957992 819.214471 180.744763 815.3752 180.744763 Z M 815.3752 172.395531 C 821.463003 172.395531 824.506904 168.405784 824.506904 160.421992 C 824.506904 156.277471 823.728732 153.237869 822.163788 151.307485 C 820.598845 149.377101 818.337415 148.40976 815.3752 148.40976 C 809.287397 148.40976 806.243496 152.416704 806.243496 160.421992 C 806.243496 168.405784 809.287397 172.395531 815.3752 172.395531 Z M 856.09383 180.744763 C 851.687052 180.744763 848.436784 179.54526 846.338728 177.137654 C 844.244971 174.734348 843.195943 171.282013 843.195943 166.780651 L 843.195943 140.808605 L 853.037031 140.808605 L 853.037031 165.538154 C 853.037031 167.932862 853.552946 169.678376 854.584777 170.778996 C 855.616608 171.879615 857.207348 172.429925 859.361295 172.429925 C 862.087048 172.429925 864.206601 171.535672 865.724253 169.747165 C 867.237605 167.958658 867.99858 165.146918 867.99858 161.311946 L 867.99858 140.808605 L 877.839668 140.808605 L 877.839668 180.000985 L 868.389816 180.000985 L 868.389816 174.244228 L 867.641739 174.067957 C 866.386344 176.316489 864.851496 177.993214 863.041492 179.093834 C 861.227189 180.194453 858.914168 180.744763 856.09383 180.744763 Z M 856.09383 180.744763 " stroke="#86ccf5" stroke-width="2.729168" stroke-opacity="1" stroke-miterlimit="4"></path></g></svg> 