<svg width="22" height="22" viewBox="0 0 22 22" fill="none" xmlns="http://www.w3.org/2000/svg">
<path d="M19.9011 18.5994L16.5003 15.2261C17.8204 13.5802 18.4597 11.491 18.2867 9.38814C18.1137 7.28531 17.1416 5.32866 15.5703 3.92054C13.999 2.51241 11.9479 1.75983 9.83879 1.81754C7.72965 1.87526 5.72277 2.73888 4.23083 4.23083C2.73888 5.72277 1.87526 7.72965 1.81754 9.83879C1.75983 11.9479 2.51241 13.999 3.92054 15.5703C5.32866 17.1416 7.28531 18.1137 9.38814 18.2867C11.491 18.4597 13.5802 17.8204 15.2261 16.5003L18.5994 19.8736C18.6847 19.9595 18.786 20.0277 18.8977 20.0743C19.0095 20.1208 19.1293 20.1448 19.2503 20.1448C19.3713 20.1448 19.4911 20.1208 19.6028 20.0743C19.7145 20.0277 19.8159 19.9595 19.9011 19.8736C20.0663 19.7027 20.1587 19.4743 20.1587 19.2365C20.1587 18.9988 20.0663 18.7704 19.9011 18.5994ZM10.0836 16.5003C8.81452 16.5003 7.57392 16.1239 6.5187 15.4189C5.46349 14.7138 4.64105 13.7117 4.15538 12.5392C3.66972 11.3667 3.54265 10.0765 3.79024 8.83178C4.03783 7.58707 4.64896 6.44373 5.54634 5.54634C6.44373 4.64896 7.58707 4.03783 8.83178 3.79024C10.0765 3.54265 11.3667 3.66972 12.5392 4.15538C13.7117 4.64105 14.7138 5.46349 15.4189 6.5187C16.1239 7.57392 16.5003 8.81452 16.5003 10.0836C16.5003 11.7854 15.8242 13.4175 14.6209 14.6209C13.4175 15.8242 11.7854 16.5003 10.0836 16.5003Z" fill="white"/>
</svg>
