<svg xmlns="http://www.w3.org/2000/svg" xmlns:xlink="http://www.w3.org/1999/xlink" width="40" height="40" viewBox="0 0 40 40">
  <defs>
    <clipPath id="clip-path">
      <rect id="Rectangle_1" data-name="Rectangle 1" width="40" height="40" transform="translate(0)" fill="#fff"/>
    </clipPath>
  </defs>
  <g id="Group_3" data-name="Group 3" transform="translate(-751 -414)">
    <g id="call" transform="translate(751 414)" clip-path="url(#clip-path)">
      <path id="Path_1" data-name="Path 1" d="M39.3,32.268l-4.434-2.957-3.942-2.628a1.746,1.746,0,0,0-2.345.381L26.14,30.2a1.737,1.737,0,0,1-2.218.46c-1.655-.921-3.612-1.788-7.931-6.112S10.8,18.273,9.879,16.618a1.737,1.737,0,0,1,.46-2.218l3.136-2.439a1.746,1.746,0,0,0,.381-2.345L11.309,5.8,8.272,1.239A1.746,1.746,0,0,0,5.921.71l-3.5,2.1A4.28,4.28,0,0,0,.475,5.327c-.958,3.492-1.151,11.2,11.2,23.543s20.05,12.153,23.542,11.195a4.279,4.279,0,0,0,2.515-1.943l2.1-3.5A1.746,1.746,0,0,0,39.3,32.268Z" transform="translate(-0.077 -0.461)" fill="#222"/>
      <path id="Path_2" data-name="Path 2" d="M29.145,8.412A11.737,11.737,0,0,1,40.869,20.136a.69.69,0,1,0,1.379,0,13.118,13.118,0,0,0-13.1-13.1.69.69,0,0,0,0,1.379Z" transform="translate(-6.386 -2.206)" fill="#222"/>
      <path id="Path_3" data-name="Path 3" d="M29.145,14.047a7.6,7.6,0,0,1,7.586,7.586.69.69,0,0,0,1.379,0,8.976,8.976,0,0,0-8.965-8.965.69.69,0,1,0,0,1.379Z" transform="translate(-6.386 -3.703)" fill="#670001"/>
      <path id="Path_4" data-name="Path 4" d="M29.145,19.68a3.452,3.452,0,0,1,3.448,3.448.69.69,0,1,0,1.379,0A4.833,4.833,0,0,0,29.145,18.3a.69.69,0,0,0,0,1.379Z" transform="translate(-6.386 -5.198)" fill="#670001"/>
    </g>
  </g>
</svg>
