<svg xmlns="http://www.w3.org/2000/svg" width="58.325" height="51.356" viewBox="0 0 58.325 51.356">
  <g id="zalo" transform="translate(-0.957 -0.085)">
    <path id="Path_6" data-name="Path 6" d="M9.446,51.441H5.314l2.922-2.922A9.889,9.889,0,0,0,11.06,42.67a22.272,22.272,0,0,1-8.728-10.32A20.211,20.211,0,0,1,1.748,19.4,25.355,25.355,0,0,1,11.463,5.836,31.745,31.745,0,0,1,30.217.085c8.893,0,16.389,2.555,21.678,7.389a22.18,22.18,0,0,1,5.532,25.408A22.814,22.814,0,0,1,51.881,40.6c-5.3,4.853-12.787,7.418-21.664,7.418a39.419,39.419,0,0,1-9.8-1.247A15.314,15.314,0,0,1,9.446,51.441Z" fill="#222"/>
    <path id="Path_7" data-name="Path 7" d="M16.094,27.924c1.946,0,3.776-.013,5.594,0,1.018.013,1.572.437,1.676,1.246a1.442,1.442,0,0,1-1.585,1.708c-2.088.026-4.163.013-6.251.013-.606,0-1.2.026-1.8-.013a1.772,1.772,0,0,1-1.456-3.057c1.985-2.518,3.982-5.048,5.98-7.566.116-.154.232-.308.348-.45-.129-.218-.309-.116-.464-.128-1.392-.013-2.8,0-4.189-.013a4.715,4.715,0,0,1-.954-.1,1.345,1.345,0,0,1-.026-2.62,3.96,3.96,0,0,1,.954-.116c2.294-.013,4.6-.013,6.9,0a4.289,4.289,0,0,1,1.212.141,1.4,1.4,0,0,1,.9,1.952,9.084,9.084,0,0,1-1.289,1.991q-2.532,3.218-5.065,6.4c-.142.167-.271.334-.477.616Z" fill="#fff"/>
    <path id="Path_8" data-name="Path 8" d="M31.02,21.154a1.978,1.978,0,0,1,1.158-.879,1.581,1.581,0,0,1,1.981,1.486c.039,2.584.026,5.169,0,7.753a1.527,1.527,0,0,1-1.068,1.46,1.56,1.56,0,0,1-1.8-.5c-.219-.271-.309-.323-.618-.077a3.925,3.925,0,0,1-3.924.659c-2.29-.749-3.229-2.546-3.487-4.729A5.367,5.367,0,0,1,25.886,20.7a4.062,4.062,0,0,1,5.134.452Zm-4.555,4.717a2.828,2.828,0,0,0,.54,1.564,2.119,2.119,0,0,0,2.959.426,2.217,2.217,0,0,0,.425-.426,3.234,3.234,0,0,0,0-3.579,1.931,1.931,0,0,0-1.531-.814c-1.415-.09-2.406,1.008-2.393,2.83Zm13.472.078c-.1-3.321,2.072-5.8,5.16-5.892a5.34,5.34,0,0,1,5.777,5.337,5.376,5.376,0,0,1-4.966,5.892,5.258,5.258,0,0,1-5.97-5.337Zm3.23-.31a2.869,2.869,0,0,0,.553,1.809,2.093,2.093,0,0,0,2.959.388,2.479,2.479,0,0,0,.373-.362,3.227,3.227,0,0,0,.013-3.618,1.967,1.967,0,0,0-1.531-.814c-1.39-.077-2.367.982-2.367,2.6ZM38.8,23.377c0,2,.013,4.006,0,6.009a1.677,1.677,0,0,1-1.621,1.706,1.988,1.988,0,0,1-.476-.052,1.675,1.675,0,0,1-1.132-1.667V19.1c0-.607-.013-1.2,0-1.809a1.615,1.615,0,1,1,3.229.026c.013,2.016,0,4.045,0,6.06Z" fill="#fff"/>
  </g>
</svg>
