<?xml version="1.0" encoding="UTF-8"?> <svg xmlns="http://www.w3.org/2000/svg" width="570" height="190" viewBox="0 0 570 190" fill="none"><path d="M88.9358 78.6699C78.6958 78.6699 70.8558 75.9819 65.4158 70.6059C60.0398 65.1659 57.3518 56.7819 57.3518 45.4539C57.3518 34.4459 59.9438 26.1259 65.1278 20.4939C70.3118 14.7979 78.2478 11.9499 88.9358 11.9499C92.3278 11.9499 95.7518 12.3659 99.2078 13.1979C102.664 14.0299 106.024 15.1819 109.288 16.6539V30.1899C105.96 28.0139 102.76 26.4459 99.6878 25.4859C96.6158 24.5259 93.7358 24.0459 91.0478 24.0459C87.2718 24.0459 84.0718 24.7179 81.4478 26.0619C78.8878 27.4059 76.9038 29.6459 75.4958 32.7819C74.1518 35.9179 73.4798 40.1419 73.4798 45.4539C73.4798 50.7659 74.1518 54.9579 75.4958 58.0299C76.9038 61.1019 78.9518 63.3099 81.6398 64.6539C84.3918 65.9339 87.7518 66.5739 91.7198 66.5739C94.0878 66.5739 96.7758 66.1259 99.7838 65.2299C102.792 64.3339 105.96 62.7979 109.288 60.6219V74.1579C107.496 75.0539 105.448 75.8539 103.144 76.5579C100.904 77.1979 98.5358 77.7099 96.0398 78.0939C93.6078 78.4779 91.2398 78.6699 88.9358 78.6699ZM142.493 78.8619C134.301 78.8619 128.125 76.6859 123.965 72.3339C119.869 67.9179 117.821 61.4539 117.821 52.9419C117.821 43.7899 119.901 37.2299 124.061 33.2619C128.285 29.2299 134.429 27.2139 142.493 27.2139C147.933 27.2139 152.477 28.1419 156.125 29.9979C159.837 31.7899 162.621 34.5739 164.477 38.3499C166.397 42.1259 167.357 46.9899 167.357 52.9419C167.357 61.4539 165.213 67.9179 160.925 72.3339C156.637 76.6859 150.493 78.8619 142.493 78.8619ZM142.493 67.4379C144.861 67.4379 146.813 66.8939 148.349 65.8059C149.949 64.6539 151.133 63.0219 151.901 60.9099C152.733 58.7339 153.149 56.0779 153.149 52.9419C153.149 49.3579 152.733 46.5419 151.901 44.4939C151.133 42.3819 149.949 40.8779 148.349 39.9819C146.749 39.0219 144.797 38.5419 142.493 38.5419C140.061 38.5419 138.077 39.0219 136.541 39.9819C135.005 40.9419 133.853 42.4779 133.085 44.5899C132.381 46.6379 132.029 49.4219 132.029 52.9419C132.029 57.8059 132.861 61.4539 134.525 63.8859C136.253 66.2539 138.909 67.4379 142.493 67.4379ZM177.23 77.4219V33.9339C178.126 33.1659 179.726 32.3019 182.03 31.3419C184.334 30.3179 186.958 29.4219 189.902 28.6539C192.91 27.8219 195.918 27.4059 198.926 27.4059C201.934 27.4059 204.302 27.6299 206.03 28.0779C207.758 28.5259 209.07 29.1019 209.966 29.8059V40.2699C208.878 40.0139 207.502 39.8219 205.838 39.6939C204.174 39.5659 202.446 39.5019 200.654 39.5019C198.862 39.4379 197.166 39.4379 195.566 39.5019C193.966 39.5659 192.622 39.6939 191.534 39.8859V77.4219H177.23ZM244.5 78.8619C243.54 78.8619 242.132 78.7659 240.276 78.5739C238.42 78.3819 236.5 77.9659 234.516 77.3259C232.532 76.6219 230.836 75.5659 229.428 74.1579L232.308 69.6459V94.7979H218.292V39.1179C218.292 37.0059 218.9 35.2139 220.116 33.7419C221.332 32.2699 222.996 31.0539 225.108 30.0939C227.22 29.1339 229.652 28.4299 232.404 27.9819C235.22 27.4699 238.228 27.2139 241.428 27.2139C246.292 27.2139 250.548 28.0459 254.196 29.7099C257.908 31.3099 260.788 34.0299 262.836 37.8699C264.948 41.7099 266.004 46.9579 266.004 53.6139C266.004 58.6059 265.14 63.0219 263.412 66.8619C261.684 70.6379 259.22 73.5819 256.02 75.6939C252.884 77.8059 249.044 78.8619 244.5 78.8619ZM240.276 67.3419C242.836 67.3419 244.948 66.8939 246.612 65.9979C248.276 65.1019 249.524 63.6299 250.356 61.5819C251.252 59.4699 251.7 56.6539 251.7 53.1339C251.7 50.1899 251.38 47.6939 250.74 45.6459C250.1 43.5979 248.98 42.0299 247.38 40.9419C245.844 39.7899 243.668 39.2139 240.852 39.2139C237.78 39.2139 235.572 39.5339 234.228 40.1739C232.948 40.7499 232.308 41.5179 232.308 42.4779V65.3259C233.524 66.0299 234.868 66.5419 236.34 66.8619C237.812 67.1819 239.124 67.3419 240.276 67.3419ZM297.836 78.8619C289.644 78.8619 283.468 76.6859 279.308 72.3339C275.212 67.9179 273.164 61.4539 273.164 52.9419C273.164 43.7899 275.244 37.2299 279.404 33.2619C283.628 29.2299 289.772 27.2139 297.836 27.2139C303.276 27.2139 307.82 28.1419 311.468 29.9979C315.18 31.7899 317.964 34.5739 319.82 38.3499C321.74 42.1259 322.7 46.9899 322.7 52.9419C322.7 61.4539 320.556 67.9179 316.268 72.3339C311.98 76.6859 305.836 78.8619 297.836 78.8619ZM297.836 67.4379C300.204 67.4379 302.156 66.8939 303.692 65.8059C305.292 64.6539 306.476 63.0219 307.244 60.9099C308.076 58.7339 308.492 56.0779 308.492 52.9419C308.492 49.3579 308.076 46.5419 307.244 44.4939C306.476 42.3819 305.292 40.8779 303.692 39.9819C302.092 39.0219 300.14 38.5419 297.836 38.5419C295.404 38.5419 293.42 39.0219 291.884 39.9819C290.348 40.9419 289.196 42.4779 288.428 44.5899C287.724 46.6379 287.372 49.4219 287.372 52.9419C287.372 57.8059 288.204 61.4539 289.868 63.8859C291.596 66.2539 294.252 67.4379 297.836 67.4379ZM332.573 77.4219V33.9339C333.469 33.1659 335.069 32.3019 337.373 31.3419C339.677 30.3179 342.301 29.4219 345.245 28.6539C348.253 27.8219 351.261 27.4059 354.269 27.4059C357.277 27.4059 359.645 27.6299 361.373 28.0779C363.101 28.5259 364.413 29.1019 365.309 29.8059V40.2699C364.221 40.0139 362.845 39.8219 361.181 39.6939C359.517 39.5659 357.789 39.5019 355.997 39.5019C354.205 39.4379 352.509 39.4379 350.909 39.5019C349.309 39.5659 347.965 39.6939 346.877 39.8859V77.4219H332.573ZM392.356 78.8619C389.412 78.8619 386.628 78.5739 384.004 77.9979C381.444 77.4859 379.172 76.6219 377.188 75.4059C375.268 74.1259 373.764 72.4299 372.676 70.3179C371.588 68.1419 371.044 65.4539 371.044 62.2539C371.044 59.2459 371.652 56.6219 372.868 54.3819C374.148 52.1419 376.068 50.4139 378.628 49.1979C381.188 47.9819 384.42 47.3739 388.324 47.3739C390.5 47.3739 392.612 47.5979 394.66 48.0459C396.708 48.4939 398.532 49.1019 400.132 49.8699C401.796 50.6379 403.108 51.4699 404.068 52.3659L404.644 59.2779C403.364 58.5099 401.828 57.9019 400.036 57.4539C398.244 57.0059 396.324 56.7819 394.276 56.7819C391.14 56.7819 388.836 57.2619 387.364 58.2219C385.956 59.1179 385.252 60.5579 385.252 62.5419C385.252 63.7579 385.604 64.8459 386.308 65.8059C387.012 66.7659 387.94 67.5019 389.092 68.0139C390.308 68.5259 391.556 68.7819 392.836 68.7819C396.1 68.7819 398.372 68.5579 399.652 68.1099C400.996 67.6619 401.668 66.7659 401.668 65.4219V47.5659C401.668 44.6219 400.708 42.5099 398.788 41.2299C396.932 39.8859 394.276 39.2139 390.82 39.2139C388.004 39.2139 385.156 39.7259 382.276 40.7499C379.46 41.7099 377.156 42.8939 375.364 44.3019V31.6299C377.028 30.6059 379.588 29.6459 383.044 28.7499C386.564 27.8539 390.5 27.4059 394.852 27.4059C396.388 27.4059 398.084 27.5339 399.94 27.7899C401.796 28.0459 403.652 28.5259 405.508 29.2299C407.364 29.8699 409.06 30.8299 410.596 32.1099C412.196 33.3899 413.476 35.0219 414.436 37.0059C415.396 38.9899 415.876 41.4539 415.876 44.3979L415.78 67.3419C415.78 70.0939 414.852 72.3339 412.996 74.0619C411.14 75.7259 408.452 76.9419 404.932 77.7099C401.476 78.4779 397.284 78.8619 392.356 78.8619ZM448.445 79.3419C442.813 79.3419 438.621 78.0299 435.869 75.4059C433.117 72.7179 431.741 68.9419 431.741 64.0779V39.7899H424.637V28.8459H431.741V15.5019H446.717V28.8459H457.373V39.7899H446.717V62.2539C446.717 63.9179 447.069 65.1659 447.773 65.9979C448.477 66.7659 449.661 67.1499 451.325 67.1499C452.285 67.1499 453.341 66.9579 454.493 66.5739C455.645 66.1899 456.605 65.7099 457.373 65.1339V77.4219C456.029 78.1259 454.557 78.6059 452.957 78.8619C451.421 79.1819 449.917 79.3419 448.445 79.3419ZM490.214 78.8619C485.35 78.8619 481.03 77.8699 477.254 75.8859C473.542 73.8379 470.63 70.9579 468.518 67.2459C466.47 63.4699 465.446 58.9899 465.446 53.8059C465.446 45.3579 467.526 38.8299 471.686 34.2219C475.91 29.5499 481.926 27.2139 489.734 27.2139C495.11 27.2139 499.43 28.3659 502.694 30.6699C506.022 32.9739 508.454 36.3339 509.99 40.7499C511.526 45.1659 512.262 50.5419 512.198 56.8779H475.238L473.702 47.7579H500.39L498.278 52.2699C498.214 47.0859 497.478 43.4379 496.07 41.3259C494.662 39.2139 492.358 38.1579 489.158 38.1579C487.366 38.1579 485.734 38.6059 484.262 39.5019C482.854 40.3979 481.734 41.9019 480.902 44.0139C480.134 46.0619 479.75 48.9099 479.75 52.5579C479.75 57.1659 480.838 60.7179 483.014 63.2139C485.254 65.7099 488.806 66.9579 493.67 66.9579C495.462 66.9579 497.222 66.7659 498.95 66.3819C500.742 65.9339 502.406 65.4219 503.942 64.8459C505.478 64.2699 506.79 63.7579 507.878 63.3099V75.5979C505.574 76.5579 502.982 77.3259 500.102 77.9019C497.286 78.5419 493.99 78.8619 490.214 78.8619Z" fill="url(#paint0_linear_91_351)"></path><path d="M18 185.898V121.866H33.552V185.898H18ZM46.6763 141.45C47.8923 140.81 49.4922 140.17 51.4762 139.53C53.4602 138.826 55.6362 138.218 58.0042 137.706C60.3722 137.194 62.7402 136.778 65.1082 136.458C67.5402 136.138 69.7803 135.978 71.8283 135.978C76.1803 135.978 79.8923 136.554 82.9643 137.706C86.0363 138.794 88.3723 140.586 89.9723 143.082C91.6363 145.578 92.4683 148.97 92.4683 153.258V185.898H78.1643V156.138C78.1643 154.922 77.9722 153.802 77.5882 152.778C77.2682 151.754 76.7563 150.89 76.0522 150.186C75.3483 149.418 74.3883 148.842 73.1722 148.458C71.9562 148.01 70.4842 147.786 68.7562 147.786C67.2842 147.786 65.8122 147.978 64.3402 148.362C62.8682 148.682 61.7483 149.034 60.9803 149.418V185.898H46.6763V141.45ZM108.824 185.898V148.266H101.624V137.322H108.92V136.17C108.92 133.034 109.24 130.346 109.88 128.106C110.52 125.866 111.416 124.01 112.568 122.538C113.72 121.002 115.064 119.818 116.6 118.986C118.136 118.154 119.832 117.578 121.688 117.258C123.544 116.874 125.464 116.682 127.448 116.682C128.472 116.682 129.592 116.778 130.808 116.97C132.024 117.098 133.016 117.322 133.784 117.642V130.314C133.208 129.61 132.568 129.066 131.864 128.682C131.16 128.298 130.2 128.106 128.984 128.106C128.152 128.106 127.384 128.202 126.68 128.394C125.976 128.586 125.368 128.906 124.856 129.354C124.344 129.802 123.928 130.442 123.608 131.274C123.352 132.106 123.224 133.162 123.224 134.442V137.322H133.784V148.266H123.128V185.898H108.824ZM163.158 187.338C154.966 187.338 148.79 185.162 144.63 180.81C140.534 176.394 138.486 169.93 138.486 161.418C138.486 152.266 140.566 145.706 144.726 141.738C148.95 137.706 155.094 135.69 163.158 135.69C168.598 135.69 173.142 136.618 176.79 138.474C180.502 140.266 183.286 143.05 185.142 146.826C187.062 150.602 188.022 155.466 188.022 161.418C188.022 169.93 185.878 176.394 181.59 180.81C177.302 185.162 171.158 187.338 163.158 187.338ZM163.158 175.914C165.526 175.914 167.478 175.37 169.014 174.282C170.614 173.13 171.798 171.498 172.566 169.386C173.398 167.21 173.814 164.554 173.814 161.418C173.814 157.834 173.398 155.018 172.566 152.97C171.798 150.858 170.614 149.354 169.014 148.458C167.414 147.498 165.462 147.018 163.158 147.018C160.726 147.018 158.742 147.498 157.206 148.458C155.67 149.418 154.518 150.954 153.75 153.066C153.046 155.114 152.694 157.898 152.694 161.418C152.694 166.282 153.526 169.93 155.19 172.362C156.918 174.73 159.574 175.914 163.158 175.914ZM197.895 185.898V142.41C198.791 141.642 200.391 140.778 202.695 139.818C204.999 138.794 207.623 137.898 210.567 137.13C213.575 136.298 216.583 135.882 219.591 135.882C222.599 135.882 224.967 136.106 226.695 136.554C228.423 137.002 229.735 137.578 230.631 138.282V148.746C229.543 148.49 228.167 148.298 226.503 148.17C224.839 148.042 223.111 147.978 221.319 147.978C219.527 147.914 217.831 147.914 216.231 147.978C214.631 148.042 213.287 148.17 212.199 148.362V185.898H197.895ZM284.078 153.258V185.898H269.773V156.138C269.773 154.922 269.581 153.802 269.197 152.778C268.877 151.754 268.365 150.89 267.661 150.186C266.957 149.418 265.997 148.842 264.781 148.458C263.565 148.01 262.093 147.786 260.365 147.786C258.893 147.786 257.518 147.978 256.238 148.362C255.022 148.682 254.03 149.034 253.262 149.418V185.898H238.958V141.45C240.174 140.81 241.774 140.17 243.758 139.53C245.742 138.826 247.918 138.218 250.286 137.706C252.654 137.194 255.021 136.778 257.389 136.458C259.821 136.138 262.061 135.978 264.109 135.978C268.461 135.978 272.109 136.554 275.053 137.706C278.061 138.794 280.301 140.586 281.773 143.082C283.309 145.578 284.078 148.97 284.078 153.258ZM269.389 144.714C271.373 142.986 273.774 141.482 276.59 140.202C279.406 138.858 282.381 137.834 285.517 137.13C288.653 136.362 291.566 135.978 294.254 135.978C298.606 135.978 302.254 136.554 305.198 137.706C308.206 138.794 310.446 140.586 311.918 143.082C313.454 145.578 314.221 148.97 314.221 153.258V185.898H299.918V156.138C299.918 154.922 299.725 153.802 299.341 152.778C299.021 151.754 298.51 150.89 297.806 150.186C297.102 149.418 296.142 148.842 294.926 148.458C293.71 148.01 292.237 147.786 290.509 147.786C289.037 147.786 287.662 148.01 286.382 148.458C285.166 148.842 284.174 149.354 283.406 149.994L269.389 144.714ZM345.615 187.338C342.671 187.338 339.887 187.05 337.263 186.474C334.703 185.962 332.431 185.098 330.447 183.882C328.527 182.602 327.023 180.906 325.935 178.794C324.847 176.618 324.303 173.93 324.303 170.73C324.303 167.722 324.911 165.098 326.127 162.858C327.407 160.618 329.327 158.89 331.887 157.674C334.447 156.458 337.679 155.85 341.583 155.85C343.759 155.85 345.871 156.074 347.919 156.522C349.967 156.97 351.791 157.578 353.391 158.346C355.055 159.114 356.367 159.946 357.327 160.842L357.903 167.754C356.623 166.986 355.087 166.378 353.295 165.93C351.503 165.482 349.583 165.258 347.535 165.258C344.399 165.258 342.095 165.738 340.623 166.698C339.215 167.594 338.511 169.034 338.511 171.018C338.511 172.234 338.863 173.322 339.567 174.282C340.271 175.242 341.199 175.978 342.351 176.49C343.567 177.002 344.815 177.258 346.095 177.258C349.359 177.258 351.631 177.034 352.911 176.586C354.255 176.138 354.927 175.242 354.927 173.898V156.042C354.927 153.098 353.967 150.986 352.047 149.706C350.191 148.362 347.535 147.69 344.079 147.69C341.263 147.69 338.415 148.202 335.535 149.226C332.719 150.186 330.415 151.37 328.623 152.778V140.106C330.287 139.082 332.847 138.122 336.303 137.226C339.823 136.33 343.759 135.882 348.111 135.882C349.647 135.882 351.343 136.01 353.199 136.266C355.055 136.522 356.911 137.002 358.767 137.706C360.623 138.346 362.319 139.306 363.855 140.586C365.455 141.866 366.735 143.498 367.695 145.482C368.655 147.466 369.135 149.93 369.135 152.874L369.039 175.818C369.039 178.57 368.111 180.81 366.255 182.538C364.399 184.202 361.711 185.418 358.191 186.186C354.735 186.954 350.543 187.338 345.615 187.338ZM401.704 187.818C396.072 187.818 391.881 186.506 389.129 183.882C386.377 181.194 385 177.418 385 172.554V148.266H377.897V137.322H385V123.978H399.977V137.322H410.633V148.266H399.977V170.73C399.977 172.394 400.329 173.642 401.033 174.474C401.737 175.242 402.921 175.626 404.585 175.626C405.545 175.626 406.601 175.434 407.753 175.05C408.905 174.666 409.865 174.186 410.633 173.61V185.898C409.289 186.602 407.816 187.082 406.216 187.338C404.68 187.658 403.176 187.818 401.704 187.818ZM421.777 185.898V137.994H436.081L436.177 185.898H421.777ZM421.489 130.698V119.658H436.273V130.698H421.489ZM470.845 187.338C462.653 187.338 456.478 185.162 452.318 180.81C448.222 176.394 446.173 169.93 446.173 161.418C446.173 152.266 448.254 145.706 452.414 141.738C456.638 137.706 462.781 135.69 470.845 135.69C476.285 135.69 480.83 136.618 484.478 138.474C488.19 140.266 490.973 143.05 492.829 146.826C494.75 150.602 495.71 155.466 495.71 161.418C495.71 169.93 493.565 176.394 489.277 180.81C484.989 185.162 478.845 187.338 470.845 187.338ZM470.845 175.914C473.213 175.914 475.166 175.37 476.702 174.282C478.302 173.13 479.486 171.498 480.254 169.386C481.086 167.21 481.501 164.554 481.501 161.418C481.501 157.834 481.086 155.018 480.254 152.97C479.486 150.858 478.302 149.354 476.702 148.458C475.102 147.498 473.149 147.018 470.845 147.018C468.413 147.018 466.429 147.498 464.893 148.458C463.357 149.418 462.205 150.954 461.438 153.066C460.733 155.114 460.382 157.898 460.382 161.418C460.382 166.282 461.214 169.93 462.878 172.362C464.606 174.73 467.261 175.914 470.845 175.914ZM505.582 141.45C506.798 140.81 508.399 140.17 510.383 139.53C512.367 138.826 514.542 138.218 516.91 137.706C519.278 137.194 521.646 136.778 524.014 136.458C526.446 136.138 528.686 135.978 530.734 135.978C535.086 135.978 538.798 136.554 541.87 137.706C544.942 138.794 547.278 140.586 548.878 143.082C550.542 145.578 551.375 148.97 551.375 153.258V185.898H537.07V156.138C537.07 154.922 536.879 153.802 536.495 152.778C536.175 151.754 535.662 150.89 534.958 150.186C534.254 149.418 533.294 148.842 532.078 148.458C530.862 148.01 529.391 147.786 527.663 147.786C526.191 147.786 524.718 147.978 523.246 148.362C521.774 148.682 520.655 149.034 519.887 149.418V185.898H505.582V141.45Z" stroke="url(#paint1_linear_91_351)" stroke-width="4" stroke-linejoin="round"></path><defs><linearGradient id="paint0_linear_91_351" x1="-7.4589" y1="89.5748" x2="570.809" y2="54.5092" gradientUnits="userSpaceOnUse"><stop stop-color="#67C0F2"></stop><stop offset="0.349674" stop-color="#EEF5FF"></stop><stop offset="0.612643" stop-color="#7AC7F4"></stop><stop offset="0.628962" stop-color="#67C0F2"></stop><stop offset="0.883072" stop-color="#DAEDFD"></stop></linearGradient><linearGradient id="paint1_linear_91_351" x1="11.0155" y1="175.568" x2="550.511" y2="129.189" gradientUnits="userSpaceOnUse"><stop stop-color="#67C0F2"></stop><stop offset="0.349674" stop-color="#EEF5FF"></stop><stop offset="0.612643" stop-color="#7AC7F4"></stop><stop offset="0.628962" stop-color="#67C0F2"></stop><stop offset="0.883072" stop-color="#DAEDFD"></stop></linearGradient></defs></svg> 