<?xml version="1.0" encoding="UTF-8"?> <svg xmlns="http://www.w3.org/2000/svg" width="721" height="116" viewBox="0 0 721 116" fill="none"><g filter="url(#filter0_d_1_1669)"><path fill-rule="evenodd" clip-rule="evenodd" d="M13.674 98.2765C10.9055 98.2765 8.66113 96.0321 8.66113 93.2636V13.0176C8.66113 10.2491 10.9055 8.00477 13.674 8.00477H52.7744C62.5762 8.00477 70.9407 10.3036 77.2483 15.5182C83.8708 20.9093 86.7816 28.9252 86.7816 38.5231C86.7816 42.7557 85.9121 46.9007 84.2273 50.9256L84.2108 50.9646C82.4687 55.0295 79.8984 58.5598 76.5506 61.5251C76.5303 61.5431 76.5098 61.5609 76.4892 61.5786C75.3515 62.5537 74.1336 63.4094 72.8424 64.1505L90.057 90.5236C91.0628 92.0644 91.1435 94.0323 90.2674 95.6504C89.3914 97.2684 87.6993 98.2765 85.8593 98.2765H61.0757C59.2801 98.2765 57.6216 97.3161 56.7279 95.7587L42.2928 70.6054H38.1769V93.2636C38.1769 96.0321 35.9326 98.2765 33.164 98.2765H13.674ZM33.164 65.5926H45.1957L61.0757 93.2636H85.8593L65.3612 61.8601C66.0984 61.6547 66.8102 61.4196 67.4966 61.1549C68.4081 60.8035 69.2747 60.3998 70.0967 59.9439C71.2243 59.3184 72.2677 58.5946 73.2269 57.7725C76.0341 55.2861 78.1595 52.3586 79.6032 48.99C81.0469 45.5411 81.7688 42.0522 81.7688 38.5231C81.7688 29.9411 79.2022 23.5647 74.069 19.394C68.9358 15.1431 61.8376 13.0176 52.7744 13.0176H13.674V93.2636H33.164V65.5926ZM57.9476 30.9436C59.7924 32.8686 60.7147 35.6758 60.7147 39.3653C60.7147 43.6162 59.7122 46.664 57.707 48.5087C55.7019 50.3535 52.9749 51.2758 49.526 51.2758H33.164V28.0562H50.3682C53.6566 28.0562 56.1831 29.0187 57.9476 30.9436ZM38.1769 33.0691V46.263H49.526C52.0647 46.263 53.4603 45.6041 54.313 44.8196C54.829 44.3449 55.7019 42.9879 55.7019 39.3653C55.7019 36.4659 54.9829 35.095 54.3284 34.4121C54.3158 34.3989 54.3032 34.3856 54.2907 34.3723C54.2778 34.3586 54.2651 34.3448 54.2524 34.331C53.6719 33.6977 52.6408 33.0691 50.3682 33.0691H38.1769ZM107.347 95.7763C107.317 95.7604 107.287 95.7443 107.257 95.7278C101.79 92.7115 97.4735 88.4384 94.3734 82.9898C94.3566 82.9603 94.3401 82.9307 94.324 82.9008C91.2849 77.2976 89.8677 70.8274 89.8677 63.6676C89.8677 52.2917 92.6746 42.7496 98.9797 35.7655L98.9822 35.7628C105.446 28.6129 114.482 25.3292 125.319 25.3292C132.731 25.3292 139.251 26.9146 144.432 30.5646C149.597 34.1467 153.223 39.2903 155.438 45.6588C157.607 51.8942 158.568 59.2417 158.484 67.5681C158.456 70.3168 156.22 72.5304 153.471 72.5304H152.037C152.698 73.3937 153.07 74.4614 153.07 75.5782V90.9777C153.07 93.0014 151.853 94.8267 149.985 95.605C146.763 96.9476 143.212 97.9937 139.358 98.768C135.389 99.6636 130.892 100.081 125.92 100.081C119.127 100.081 112.893 98.6906 107.347 95.7763ZM138.312 93.8652C141.921 93.1433 145.17 92.1808 148.057 90.9777V75.5782C146.694 76.1396 145.049 76.7813 143.124 77.5031C143.098 77.5132 143.071 77.5232 143.044 77.5331C141.142 78.2428 139.083 78.8744 136.868 79.4281C134.703 79.9093 132.497 80.1499 130.251 80.1499C124.156 80.1499 119.704 78.5859 116.897 75.4579C116.136 74.5851 115.481 73.6093 114.933 72.5304C114.181 71.0527 113.629 69.3818 113.276 67.5175H153.471C153.477 66.8822 153.477 66.2546 153.471 65.6347C153.46 64.5685 153.43 63.5252 153.381 62.5047C153.102 56.7019 152.21 51.6355 150.704 47.3056C148.779 41.7714 145.731 37.5606 141.56 34.6732C137.47 31.7858 132.056 30.3421 125.319 30.3421C115.534 30.3421 107.994 33.2696 102.701 39.1246C97.4872 44.8995 94.8805 53.0805 94.8805 63.6676C94.8805 70.1643 96.1638 75.7787 98.7304 80.5109C101.377 85.1628 105.027 88.7721 109.679 91.3387C114.411 93.825 119.825 95.0682 125.92 95.0682C130.652 95.0682 134.783 94.6672 138.312 93.8652ZM114.38 51.0753C114.336 51.181 114.293 51.2879 114.25 51.3961C113.761 52.701 113.396 54.265 113.155 56.0882H135.689C135.629 55.5719 135.56 55.0741 135.483 54.5948C135.272 53.2828 135 52.1096 134.667 51.0753C134.28 49.8711 133.811 48.8552 133.259 48.0275C131.495 45.3807 128.607 44.0573 124.597 44.0573C122.351 44.0573 120.306 44.6187 118.461 45.7416C116.769 46.8186 115.408 48.5965 114.38 51.0753ZM129.252 51.0753C129.197 50.979 129.143 50.89 129.088 50.8081C128.497 49.9221 127.425 49.0702 124.597 49.0702C123.253 49.0702 122.13 49.3882 121.116 49.9946C120.807 50.1978 120.437 50.5301 120.044 51.0753H129.252ZM121.042 72.5304H142.105C141.863 72.6218 141.616 72.7149 141.364 72.8095C139.656 73.45 137.776 74.0316 135.718 74.5484C133.934 74.9402 132.114 75.1371 130.251 75.1371C125.383 75.1371 122.621 73.9976 121.042 72.5304ZM183.842 54.8645L202.259 32.3874H224.035L198.938 58.9136L225.599 93.2636H202.861L183.804 68.0961L183.731 93.2636H165.926V9.40837H183.972L183.842 54.8645ZM188.774 82.964L188.744 93.278C188.736 96.0409 186.494 98.2765 183.731 98.2765H165.926C163.157 98.2765 160.913 96.0321 160.913 93.2636V9.40837C160.913 6.63984 163.157 4.39551 165.926 4.39551H183.972C185.304 4.39551 186.581 4.92562 187.522 5.86883C188.462 6.81204 188.989 8.09078 188.985 9.42276L188.895 40.788L198.382 29.2102C199.334 28.0482 200.757 27.3745 202.259 27.3745H224.035C226.037 27.3745 227.847 28.566 228.639 30.4051C229.431 32.2442 229.052 34.3781 227.676 35.8325L205.534 59.236L229.559 90.19C230.732 91.7017 230.943 93.7496 230.101 95.4683C229.259 97.1869 227.513 98.2765 225.599 98.2765H202.861C201.291 98.2765 199.812 97.5412 198.864 96.2897L188.774 82.964ZM238.82 35.8763C240.905 34.593 244.113 33.3899 248.444 32.267C252.856 31.1442 257.788 30.5827 263.242 30.5827C265.167 30.5827 267.293 30.7431 269.619 31.064C271.945 31.3848 274.271 31.9863 276.597 32.8686C278.923 33.6706 281.048 34.8737 282.973 36.4778C284.978 38.082 286.582 40.1272 287.785 42.6136C288.988 45.1 289.59 48.1879 289.59 51.8774L289.47 80.6312C289.47 84.08 288.307 86.8872 285.981 89.0528C283.655 91.1381 280.286 92.662 275.875 93.6245C271.544 94.587 266.29 95.0682 260.114 95.0682C256.425 95.0682 252.936 94.7073 249.647 93.9855C246.439 93.3438 243.592 92.261 241.106 90.7371C238.699 89.133 236.815 87.0075 235.451 84.3607C234.088 81.6338 233.406 78.2651 233.406 74.2548C233.406 70.4851 234.168 67.1967 235.692 64.3895C237.296 61.5823 239.702 59.4167 242.91 57.8928C246.118 56.3689 250.169 55.6069 255.061 55.6069C257.788 55.6069 260.435 55.8877 263.002 56.4491C264.334 56.7405 265.59 57.086 266.771 57.4854C267.866 57.8556 268.895 58.2721 269.859 58.735C270.549 59.0534 271.191 59.3806 271.784 59.7166V55.8476C271.784 55.4872 271.773 55.1369 271.75 54.7964C271.747 54.7508 271.743 54.7054 271.74 54.6602C271.724 54.4534 271.704 54.2503 271.679 54.0509C271.339 51.2856 270.171 49.2377 268.175 47.9072C265.849 46.2229 262.521 45.3807 258.189 45.3807C254.66 45.3807 251.091 46.0223 247.482 47.3056C246.178 47.7502 244.961 48.2331 243.833 48.7543C241.907 49.6437 240.236 50.6446 238.82 51.7571V35.8763ZM271.784 68.8359C271.309 68.6754 270.816 68.5258 270.305 68.3871C270.119 68.3364 269.93 68.2871 269.739 68.2394C268.779 67.9994 267.79 67.8107 266.771 67.6733C265.407 67.4892 263.99 67.3972 262.521 67.3972C258.59 67.3972 255.703 67.9987 253.858 69.2018C252.094 70.3247 251.211 72.1294 251.211 74.6157C251.211 76.1396 251.653 77.5031 252.535 78.7062C253.417 79.9093 254.58 80.8317 256.024 81.4733C257.548 82.115 259.112 82.4358 260.716 82.4358C264.806 82.4358 267.654 82.1551 269.258 81.5937C270.942 81.0322 271.784 79.9093 271.784 78.225V68.8359ZM258.017 76.8733C258.928 77.25 259.816 77.4229 260.716 77.4229C263.763 77.4229 265.689 77.2516 266.771 77.0607V72.7414C265.448 72.5237 264.033 72.4101 262.521 72.4101C258.899 72.4101 257.208 73.002 256.597 73.4007L256.55 73.431C256.465 73.4845 256.43 73.5211 256.419 73.5337C256.408 73.5453 256.395 73.5619 256.377 73.5992C256.341 73.6725 256.224 73.9581 256.224 74.6157C256.224 75.098 256.34 75.4181 256.577 75.7418C256.905 76.1892 257.347 76.568 258.017 76.8733ZM264.889 51.7385C263.686 51.0107 261.617 50.3936 258.189 50.3936C257.16 50.3936 256.118 50.4596 255.064 50.5941C258.137 50.5943 261.142 50.911 264.073 51.552C264.347 51.612 264.619 51.6741 264.889 51.7385ZM248.618 98.8916C244.919 98.1468 241.521 96.871 238.486 95.0111C238.432 94.9778 238.378 94.9434 238.325 94.9081C235.188 92.817 232.736 90.0372 230.995 86.6564L230.967 86.6026C229.164 82.9956 228.393 78.8076 228.393 74.2548C228.393 69.8005 229.297 65.6611 231.286 61.9979C231.303 61.9659 231.321 61.934 231.339 61.9024C232.637 59.6305 234.317 57.7005 236.326 56.1057C234.775 55.2169 233.807 53.5614 233.807 51.7571V35.8763C233.807 34.1355 234.71 32.5194 236.192 31.6071C238.918 29.9296 242.701 28.5774 247.186 27.4146L247.208 27.4091C252.094 26.1654 257.451 25.5699 263.242 25.5699C265.44 25.5699 267.798 25.7525 270.304 26.0981C273.001 26.4701 275.67 27.1612 278.305 28.1551C281.171 29.1536 283.791 30.6417 286.144 32.5952C288.757 34.6957 290.802 37.3385 292.298 40.4302C293.922 43.786 294.603 47.6737 294.603 51.8774L294.603 51.8984L294.483 80.6312C294.483 80.6321 294.483 80.633 294.483 80.6339C294.482 85.341 292.833 89.5219 289.397 92.7217C289.374 92.7431 289.35 92.7643 289.327 92.7852C286.133 95.6487 281.855 97.4493 276.955 98.5197C272.16 99.5844 266.522 100.081 260.114 100.081C256.114 100.081 252.277 99.6913 248.618 98.8916ZM305.864 98.2765C303.095 98.2765 300.851 96.0321 300.851 93.2636V33.2295C300.851 31.2622 301.984 29.5595 303.634 28.7388C301.791 27.9978 300.49 26.1939 300.49 24.086V10.2505C300.49 7.482 302.734 5.23767 305.503 5.23767H324.03C326.799 5.23767 329.043 7.482 329.043 10.2505V24.086C329.043 26.1688 327.773 27.9549 325.965 28.7119C327.641 29.5205 328.799 31.2342 328.802 33.2195L328.923 93.2535C328.925 94.5848 328.398 95.8624 327.458 96.8047C326.518 97.7469 325.241 98.2765 323.91 98.2765H305.864ZM305.864 93.2636V33.2295H323.788L323.91 93.2636H305.864ZM336.766 109.589C335.83 108.235 335.618 106.508 336.2 104.968L345.103 81.387C345.839 79.436 347.707 78.1448 349.792 78.1448H364.47C366.185 78.1448 367.781 79.0218 368.701 80.4696C369.621 81.9174 369.737 83.7349 369.008 85.2877L357.939 108.868C357.114 110.628 355.345 111.751 353.402 111.751H340.889C339.243 111.751 337.702 110.943 336.766 109.589ZM340.889 106.738H353.402L364.47 83.1577H349.792L340.889 106.738ZM412.326 93.9244C410.597 93.0864 409.5 91.3345 409.5 89.4137V70.8862C409.5 68.9568 410.607 67.1987 412.347 66.3652C414.087 65.5317 416.151 65.7708 417.655 66.9801C420.857 69.556 424.488 71.5175 428.585 72.8597C432.819 74.2465 436.701 74.8965 440.259 74.8965C443.432 74.8965 445.038 74.2934 445.768 73.7842C446.226 73.4501 446.675 72.9346 446.675 71.3674C446.675 71.0193 446.608 70.8735 446.576 70.8142C446.541 70.748 446.428 70.5663 446.058 70.3092C445.99 70.2614 445.922 70.2119 445.856 70.1607C444.69 69.2598 442.897 68.3236 440.276 67.4735L440.238 67.461C440.212 67.4524 440.187 67.4436 440.161 67.4346C437.22 66.4014 433.923 65.2492 430.268 63.978C427.703 63.1769 425.193 62.1603 422.738 60.9328C420.058 59.593 417.639 57.9038 415.503 55.8644C415.475 55.8376 415.447 55.8104 415.42 55.7829C413.159 53.5222 411.405 50.8385 410.131 47.8005C408.759 44.5304 408.177 40.7805 408.177 36.7185C408.177 32.8023 408.896 29.0096 410.331 25.3735C411.811 21.6244 414.072 18.3053 417.042 15.4308C417.061 15.4124 417.08 15.3941 417.1 15.376C420.254 12.4188 424.131 10.2091 428.588 8.65738C433.185 6.97547 438.392 6.20014 444.109 6.20014C447.583 6.20014 450.744 6.41083 453.557 6.86364C456.369 7.30366 459.075 7.96503 461.67 8.85469C464.256 9.66222 466.85 10.7231 469.45 12.023C471.148 12.8721 472.221 14.6079 472.221 16.5066V35.2748C472.221 37.216 471.1 38.9827 469.344 39.8098C467.588 40.6369 465.512 40.3758 464.015 39.1395C462.435 37.8343 460.613 36.6022 458.53 35.4531C458.47 35.4196 458.41 35.3849 458.35 35.3489C456.398 34.1638 454.343 33.1878 452.177 32.4196C450.199 31.7177 448.11 31.3277 445.886 31.2623L445.867 31.2617C443.895 31.196 442.209 31.3972 440.768 31.8007C439.492 32.1579 438.849 32.6393 438.497 33.0416C438.462 33.0819 438.426 33.1217 438.389 33.1609C438.278 33.2803 438.053 33.5474 438.053 34.4326C438.053 35.5941 438.362 35.9263 438.521 36.0758C439.238 36.7504 440.448 37.5209 442.4 38.2437C444.753 39.0279 447.38 39.8903 450.28 40.831C453.69 41.832 456.856 42.9684 459.769 44.2486C462.99 45.5462 465.884 47.2446 468.401 49.374C471.086 51.6459 473.146 54.4388 474.568 57.6882C475.401 59.5934 475.967 61.6451 476.3 63.8151C476.293 63.4075 476.289 62.9974 476.289 62.5849C476.289 50.5337 479.003 40.6469 485.661 34.2955C492.194 28.0597 501.324 25.3292 512.221 25.3292C519.559 25.3292 526.073 26.5738 531.532 29.3395C537.182 32.0794 541.455 36.3725 544.256 42.0567C547.124 47.7134 548.394 54.6509 548.394 62.5849C548.394 74.0495 545.5 83.6001 538.917 90.3794L538.891 90.4055C532.31 97.0854 523.157 100.081 512.221 100.081C501.096 100.081 491.84 97.1108 485.378 90.351C485.361 90.3329 485.344 90.3146 485.326 90.2962C480.368 84.9506 477.613 77.9073 476.667 69.5788C476.573 74.9745 475.251 80.026 472.665 84.6445L472.643 84.6823C469.905 89.4739 465.956 93.2388 460.952 95.9769C460.931 95.9886 460.909 96.0002 460.887 96.0116C455.739 98.7317 449.672 99.9608 442.906 99.9608C438.657 99.9608 434.76 99.7529 431.23 99.3224C427.716 98.8937 424.407 98.2447 421.317 97.3617C418.229 96.4795 415.231 95.333 412.326 93.9244ZM539.772 44.2979C537.446 39.5658 533.957 36.0768 529.305 33.8311C524.734 31.5051 519.039 30.3421 512.221 30.3421C502.115 30.3421 494.416 32.8686 489.122 37.9216C483.909 42.8943 481.302 51.1154 481.302 62.5849C481.302 73.2522 483.869 81.353 489.002 86.8872C494.215 92.3412 501.955 95.0682 512.221 95.0682C522.247 95.0682 529.947 92.3412 535.321 86.8872C540.694 81.353 543.381 73.2522 543.381 62.5849C543.381 55.1257 542.178 49.0301 539.772 44.2979ZM457.824 48.8697C455.097 47.6666 452.089 46.5838 448.801 45.6213C445.833 44.6588 443.146 43.7766 440.74 42.9745C438.334 42.0923 436.449 41.0095 435.086 39.7262C433.722 38.4429 433.04 36.6784 433.04 34.4326C433.04 32.5077 433.602 30.9436 434.725 29.7406C435.848 28.4573 437.412 27.5349 439.417 26.9735C441.422 26.412 443.628 26.1714 446.034 26.2516C448.761 26.3318 451.367 26.813 453.854 27.6953C456.34 28.5776 458.706 29.7005 460.952 31.064C461.374 31.297 461.789 31.5339 462.195 31.7749C464.027 32.8609 465.698 34.0276 467.208 35.2748V16.5066C464.802 15.3035 462.436 14.341 460.11 13.6192C457.784 12.8171 455.338 12.2156 452.771 11.8145C450.285 11.4135 447.397 11.213 444.109 11.213C438.815 11.213 434.203 11.9349 430.273 13.3786C426.343 14.7421 423.095 16.6269 420.528 19.0331C418.042 21.4393 416.197 24.1663 414.994 27.2141C413.791 30.2619 413.189 33.43 413.189 36.7185C413.189 40.3277 413.711 43.3756 414.753 45.8619C415.796 48.3483 417.2 50.4738 418.964 52.2383C420.729 53.9226 422.734 55.3262 424.98 56.4491C427.225 57.572 429.511 58.4944 431.837 59.2162C435.527 60.4995 438.855 61.6625 441.823 62.7052C444.79 63.6676 447.157 64.8306 448.921 66.1941C450.766 67.4774 451.688 69.2018 451.688 71.3674C451.688 74.2548 450.686 76.4204 448.68 77.8641C446.756 79.2276 443.948 79.9093 440.259 79.9093C436.088 79.9093 431.677 79.1474 427.025 77.6235C424.368 76.7532 421.868 75.6474 419.526 74.3063C417.766 73.299 416.095 72.159 414.513 70.8862V89.4137C417.16 90.697 419.887 91.7397 422.694 92.5417C425.501 93.3438 428.549 93.9454 431.837 94.3464C435.126 94.7474 438.815 94.9479 442.906 94.9479C449.081 94.9479 454.295 93.825 458.546 91.5793C462.797 89.2533 466.045 86.1253 468.291 82.1952C470.537 78.1849 471.659 73.7736 471.659 68.9612C471.659 65.352 471.098 62.264 469.975 59.6974C468.852 57.1309 467.248 54.9653 465.163 53.2008C463.077 51.4362 460.631 49.9925 457.824 48.8697ZM519.301 70.8574C519.31 70.8316 519.32 70.8058 519.329 70.7802C520.092 68.7849 520.563 66.1018 520.563 62.5849C520.563 58.3878 520.062 55.5945 519.367 53.8844C519.344 53.827 519.322 53.7691 519.301 53.7108C518.652 51.9284 517.845 51.1282 517.111 50.7169C517.067 50.6925 517.024 50.6674 516.981 50.6417C515.919 50.0044 514.413 49.5514 512.221 49.5514C509.8 49.5514 508.318 50.0321 507.419 50.5941C506.659 51.0694 505.829 51.963 505.158 53.7882C504.541 55.6078 504.121 58.4574 504.121 62.5849C504.121 68.1995 505.098 71.5608 506.33 73.4055C507.342 74.7564 508.979 75.7386 512.221 75.7386C514.408 75.7386 515.765 75.2458 516.648 74.6263C517.718 73.8504 518.636 72.6854 519.301 70.8574ZM519.56 78.7062C517.635 80.0697 515.189 80.7515 512.221 80.7515C507.73 80.7515 504.401 79.2677 502.236 76.3001C500.15 73.2522 499.108 68.6805 499.108 62.5849C499.108 58.1735 499.549 54.6846 500.431 52.118C501.394 49.4712 502.837 47.5463 504.762 46.3432C506.687 45.1401 509.174 44.5385 512.221 44.5385C515.109 44.5385 517.555 45.1401 519.56 46.3432C521.565 47.4661 523.049 49.3509 524.012 51.9977C525.054 54.5643 525.576 58.0933 525.576 62.5849C525.576 66.5149 525.054 69.8435 524.012 72.5705C523.049 75.2173 521.565 77.2625 519.56 78.7062ZM578.573 93.2636C578.573 96.0321 576.329 98.2765 573.56 98.2765H555.754C552.986 98.2765 550.741 96.0321 550.741 93.2636V9.40837C550.741 6.63984 552.986 4.39551 555.754 4.39551H573.56C576.329 4.39551 578.573 6.63984 578.573 9.40837V93.2636ZM609.806 98.2765C607.783 98.2765 605.958 97.0603 605.179 95.1929L579.794 34.3167C579.149 32.7695 579.32 31.0022 580.249 29.6073C581.179 28.2124 582.744 27.3745 584.421 27.3745H603.911C605.973 27.3745 607.824 28.6371 608.577 30.5566L619.762 59.0661L629.614 30.7405C630.315 28.7252 632.215 27.3745 634.349 27.3745H653.237C654.914 27.3745 656.479 28.2124 657.409 29.6073C658.338 31.0022 658.509 32.7695 657.864 34.3167L632.479 95.1929C631.7 97.0603 629.875 98.2765 627.852 98.2765H609.806ZM620.044 73.5125L603.911 32.3874H584.421L609.806 93.2636H627.852L653.237 32.3874H634.349L620.044 73.5125ZM669.415 95.7763C669.384 95.7604 669.354 95.7443 669.325 95.7278C663.858 92.7115 659.541 88.4384 656.441 82.9898C656.424 82.9603 656.408 82.9307 656.392 82.9008C653.353 77.2976 651.935 70.8274 651.935 63.6676C651.935 52.2917 654.742 42.7496 661.047 35.7655L661.05 35.7628C667.514 28.6129 676.55 25.3292 687.386 25.3292C694.799 25.3292 701.32 26.9149 706.501 30.5655C711.666 34.1476 715.291 39.2907 717.506 45.6588C719.675 51.8942 720.635 59.2417 720.551 67.5681C720.523 70.3168 718.287 72.5304 715.539 72.5304H714.105C714.766 73.3937 715.138 74.4614 715.138 75.5782V90.9777C715.138 93.0014 713.921 94.8267 712.053 95.605C708.83 96.9477 705.279 97.9937 701.426 98.768C697.456 99.6636 692.959 100.081 687.988 100.081C681.195 100.081 674.961 98.6906 669.415 95.7763ZM700.38 93.8652C703.989 93.1433 707.237 92.1808 710.125 90.9777V75.5782C708.761 76.1396 707.117 76.7813 705.192 77.5031C705.165 77.5132 705.139 77.5231 705.112 77.5331C703.209 78.2428 701.151 78.8744 698.936 79.4281C696.77 79.9093 694.565 80.1499 692.319 80.1499C686.223 80.1499 681.772 78.5859 678.965 75.4579C678.204 74.5851 677.549 73.6093 677 72.5304C676.249 71.0527 675.697 69.3818 675.344 67.5175H715.539C715.545 66.8826 715.545 66.2553 715.539 65.6358C715.528 64.5693 715.497 63.5256 715.448 62.5047C715.17 56.7019 714.278 51.6355 712.771 47.3056C710.846 41.7714 707.799 37.5606 703.628 34.6732C699.537 31.7858 694.124 30.3421 687.386 30.3421C677.601 30.3421 670.062 33.2696 664.768 39.1246C659.555 44.8995 656.948 53.0805 656.948 63.6676C656.948 70.1643 658.231 75.7787 660.798 80.5109C663.445 85.1628 667.094 88.7721 671.746 91.3387C676.478 93.825 681.892 95.0682 687.988 95.0682C692.72 95.0682 696.851 94.6672 700.38 93.8652ZM676.448 51.0753C676.404 51.181 676.36 51.2879 676.318 51.3961C675.829 52.701 675.464 54.265 675.223 56.0882H697.757C697.696 55.5719 697.627 55.0741 697.55 54.5948C697.339 53.2828 697.068 52.1096 696.735 51.0753C696.348 49.8711 695.879 48.8552 695.327 48.0275C693.562 45.3807 690.675 44.0573 686.664 44.0573C684.419 44.0573 682.373 44.6187 680.529 45.7416C678.836 46.8186 677.476 48.5965 676.448 51.0753ZM683.183 49.9948C682.875 50.198 682.504 50.5302 682.112 51.0753H691.32C691.265 50.979 691.21 50.89 691.156 50.8081C690.565 49.9221 689.492 49.0702 686.664 49.0702C685.321 49.0702 684.198 49.3883 683.183 49.9948ZM683.109 72.5304H704.172C703.931 72.6218 703.684 72.7149 703.432 72.8095C701.724 73.45 699.844 74.0316 697.786 74.5484C696.002 74.9401 694.182 75.1371 692.319 75.1371C687.45 75.1371 684.688 73.9976 683.109 72.5304ZM305.503 24.086H324.03V10.2505H305.503V24.086ZM573.56 93.2636V9.40837H555.754V93.2636H573.56Z" fill="url(#paint0_linear_1_1669)"></path></g><defs><filter id="filter0_d_1_1669" x="0.661133" y="0.395508" width="719.895" height="115.355" filterUnits="userSpaceOnUse" color-interpolation-filters="sRGB"><feFlood flood-opacity="0" result="BackgroundImageFix"></feFlood><feColorMatrix in="SourceAlpha" type="matrix" values="0 0 0 0 0 0 0 0 0 0 0 0 0 0 0 0 0 0 127 0" result="hardAlpha"></feColorMatrix><feOffset dx="-4"></feOffset><feGaussianBlur stdDeviation="2"></feGaussianBlur><feComposite in2="hardAlpha" operator="out"></feComposite><feColorMatrix type="matrix" values="0 0 0 0 0.00784314 0 0 0 0 0.105882 0 0 0 0 0.466667 0 0 0 1 0"></feColorMatrix><feBlend mode="normal" in2="BackgroundImageFix" result="effect1_dropShadow_1_1669"></feBlend><feBlend mode="normal" in="SourceGraphic" in2="effect1_dropShadow_1_1669" result="shape"></feBlend></filter><linearGradient id="paint0_linear_1_1669" x1="-0.661127" y1="93.2635" x2="720.556" y2="38.429" gradientUnits="userSpaceOnUse"><stop stop-color="#67C0F2"></stop><stop offset="0.349674" stop-color="#EEF5FF"></stop><stop offset="0.612643" stop-color="#7AC7F4"></stop><stop offset="0.628962" stop-color="#67C0F2"></stop><stop offset="0.883072" stop-color="#DAEDFD"></stop></linearGradient></defs></svg> 