<?xml version="1.0" encoding="UTF-8"?> <svg xmlns="http://www.w3.org/2000/svg" width="1072" height="213" viewBox="0 0 1072 213" fill="none"><mask id="path-1-outside-1_1_5124" maskUnits="userSpaceOnUse" x="0.64502" y="117.875" width="1071" height="95" fill="black"><rect fill="white" x="0.64502" y="117.875" width="1071" height="95"></rect><path d="M32.4823 192.039C23.7008 192.039 16.8513 189.61 11.9337 184.75C7.07456 179.891 4.64502 172.954 4.64502 163.938V129.515H18.871V163.411C18.871 174.418 23.4374 179.921 32.5701 179.921C37.0194 179.921 40.4149 178.603 42.7567 175.969C45.0984 173.276 46.2693 169.09 46.2693 163.411V129.515H60.3196V163.938C60.3196 172.954 57.8608 179.891 52.9432 184.75C48.0841 189.61 41.2638 192.039 32.4823 192.039Z"></path><path d="M103.883 143.038C109.738 143.038 114.45 144.795 118.022 148.307C121.651 151.82 123.466 157.03 123.466 163.938V190.985H109.767V166.046C109.767 162.299 108.947 159.518 107.308 157.703C105.669 155.83 103.298 154.893 100.195 154.893C96.7411 154.893 93.9895 155.976 91.9405 158.143C89.8915 160.25 88.867 163.411 88.867 167.627V190.985H75.1679V143.741H88.2523V149.273C90.0671 147.283 92.3211 145.761 95.014 144.707C97.707 143.595 100.663 143.038 103.883 143.038Z"></path><path d="M186.277 125.827V190.985H173.193V185.541C169.797 189.639 164.879 191.688 158.44 191.688C153.99 191.688 149.951 190.693 146.321 188.702C142.75 186.712 139.94 183.872 137.891 180.184C135.842 176.496 134.817 172.222 134.817 167.363C134.817 162.504 135.842 158.23 137.891 154.542C139.94 150.854 142.75 148.015 146.321 146.024C149.951 144.034 153.99 143.038 158.44 143.038C164.47 143.038 169.182 144.941 172.578 148.746V125.827H186.277ZM160.811 180.448C164.265 180.448 167.133 179.277 169.417 176.935C171.7 174.535 172.841 171.344 172.841 167.363C172.841 163.382 171.7 160.221 169.417 157.879C167.133 155.479 164.265 154.279 160.811 154.279C157.298 154.279 154.4 155.479 152.117 157.879C149.834 160.221 148.692 163.382 148.692 167.363C148.692 171.344 149.834 174.535 152.117 176.935C154.4 179.277 157.298 180.448 160.811 180.448Z"></path><path d="M246.991 167.539C246.991 167.714 246.903 168.944 246.727 171.227H210.987C211.631 174.154 213.153 176.467 215.553 178.164C217.953 179.862 220.939 180.711 224.51 180.711C226.969 180.711 229.135 180.36 231.008 179.657C232.94 178.896 234.726 177.725 236.365 176.145L243.654 184.048C239.204 189.141 232.706 191.688 224.159 191.688C218.831 191.688 214.119 190.663 210.021 188.614C205.923 186.507 202.761 183.609 200.537 179.921C198.312 176.232 197.2 172.047 197.2 167.363C197.2 162.738 198.283 158.582 200.449 154.893C202.673 151.147 205.688 148.249 209.494 146.2C213.358 144.092 217.661 143.038 222.403 143.038C227.027 143.038 231.213 144.034 234.96 146.024C238.707 148.015 241.634 150.883 243.742 154.63C245.908 158.318 246.991 162.621 246.991 167.539ZM222.49 153.401C219.388 153.401 216.782 154.279 214.675 156.035C212.567 157.791 211.279 160.192 210.811 163.236H234.082C233.614 160.25 232.326 157.879 230.218 156.123C228.11 154.308 225.535 153.401 222.49 153.401Z"></path><path d="M270.952 149.976C272.591 147.693 274.786 145.966 277.538 144.795C280.348 143.624 283.568 143.038 287.198 143.038V155.684C285.675 155.567 284.651 155.508 284.124 155.508C280.202 155.508 277.128 156.62 274.903 158.845C272.679 161.011 271.566 164.29 271.566 168.68V190.985H257.867V143.741H270.952V149.976Z"></path><path d="M313.165 191.688C309.243 191.688 305.408 191.219 301.662 190.283C297.915 189.288 294.929 188.058 292.704 186.595L297.271 176.759C299.378 178.106 301.925 179.218 304.911 180.096C307.896 180.916 310.824 181.326 313.692 181.326C319.488 181.326 322.386 179.891 322.386 177.023C322.386 175.676 321.596 174.71 320.015 174.125C318.434 173.539 316.005 173.042 312.726 172.632C308.862 172.047 305.672 171.373 303.154 170.612C300.637 169.851 298.442 168.505 296.568 166.573C294.753 164.641 293.846 161.889 293.846 158.318C293.846 155.332 294.695 152.698 296.393 150.415C298.149 148.073 300.666 146.258 303.945 144.97C307.282 143.682 311.204 143.038 315.712 143.038C319.049 143.038 322.357 143.419 325.635 144.18C328.972 144.882 331.724 145.878 333.89 147.166L329.323 156.913C325.167 154.571 320.63 153.401 315.712 153.401C312.785 153.401 310.589 153.81 309.126 154.63C307.662 155.45 306.93 156.503 306.93 157.791C306.93 159.255 307.721 160.279 309.301 160.865C310.882 161.45 313.4 162.006 316.854 162.533C320.717 163.177 323.879 163.88 326.338 164.641C328.796 165.343 330.933 166.661 332.748 168.593C334.563 170.524 335.47 173.217 335.47 176.671C335.47 179.599 334.592 182.204 332.836 184.487C331.08 186.77 328.504 188.556 325.108 189.844C321.771 191.073 317.79 191.688 313.165 191.688Z"></path><path d="M376.151 188.702C374.804 189.697 373.136 190.458 371.145 190.985C369.213 191.454 367.164 191.688 364.998 191.688C359.378 191.688 355.016 190.254 351.914 187.385C348.869 184.516 347.347 180.301 347.347 174.74V155.332H340.059V144.795H347.347V133.291H361.046V144.795H372.814V155.332H361.046V174.564C361.046 176.554 361.544 178.106 362.539 179.218C363.593 180.272 365.057 180.799 366.93 180.799C369.096 180.799 370.94 180.213 372.462 179.042L376.151 188.702Z"></path><path d="M404.653 143.038C411.971 143.038 417.591 144.795 421.513 148.307C425.435 151.761 427.397 157.001 427.397 164.026V190.985H414.576V185.102C412 189.492 407.199 191.688 400.174 191.688C396.544 191.688 393.383 191.073 390.69 189.844C388.056 188.614 386.036 186.917 384.631 184.75C383.226 182.584 382.523 180.126 382.523 177.374C382.523 172.983 384.163 169.529 387.441 167.012C390.778 164.494 395.9 163.236 402.809 163.236H413.698C413.698 160.25 412.79 157.967 410.975 156.386C409.16 154.747 406.438 153.927 402.809 153.927C400.291 153.927 397.803 154.337 395.344 155.157C392.944 155.918 390.895 156.972 389.197 158.318L384.28 148.746C386.855 146.932 389.929 145.526 393.5 144.531C397.13 143.536 400.847 143.038 404.653 143.038ZM403.599 182.467C405.941 182.467 408.019 181.94 409.834 180.887C411.649 179.774 412.937 178.164 413.698 176.057V171.227H404.301C398.681 171.227 395.871 173.071 395.871 176.759C395.871 178.516 396.544 179.921 397.891 180.974C399.296 181.97 401.199 182.467 403.599 182.467Z"></path><path d="M470.267 143.038C476.121 143.038 480.834 144.795 484.405 148.307C488.035 151.82 489.849 157.03 489.849 163.938V190.985H476.15V166.046C476.15 162.299 475.331 159.518 473.692 157.703C472.052 155.83 469.681 154.893 466.579 154.893C463.124 154.893 460.373 155.976 458.324 158.143C456.275 160.25 455.25 163.411 455.25 167.627V190.985H441.551V143.741H454.636V149.273C456.451 147.283 458.704 145.761 461.397 144.707C464.09 143.595 467.047 143.038 470.267 143.038Z"></path><path d="M552.66 125.827V190.985H539.576V185.541C536.18 189.639 531.263 191.688 524.823 191.688C520.374 191.688 516.334 190.693 512.705 188.702C509.134 186.712 506.323 183.872 504.274 180.184C502.225 176.496 501.201 172.222 501.201 167.363C501.201 162.504 502.225 158.23 504.274 154.542C506.323 150.854 509.134 148.015 512.705 146.024C516.334 144.034 520.374 143.038 524.823 143.038C530.853 143.038 535.566 144.941 538.961 148.746V125.827H552.66ZM527.194 180.448C530.648 180.448 533.517 179.277 535.8 176.935C538.083 174.535 539.225 171.344 539.225 167.363C539.225 163.382 538.083 160.221 535.8 157.879C533.517 155.479 530.648 154.279 527.194 154.279C523.682 154.279 520.784 155.479 518.5 157.879C516.217 160.221 515.076 163.382 515.076 167.363C515.076 171.344 516.217 174.535 518.5 176.935C520.784 179.277 523.682 180.448 527.194 180.448Z"></path><path d="M640.615 143.741L619.276 193.883C617.109 199.328 614.416 203.162 611.197 205.387C608.035 207.612 604.201 208.724 599.693 208.724C597.234 208.724 594.804 208.343 592.404 207.582C590.004 206.821 588.043 205.767 586.521 204.421L591.526 194.674C592.58 195.61 593.78 196.342 595.126 196.869C596.531 197.396 597.907 197.659 599.254 197.659C601.127 197.659 602.649 197.191 603.82 196.254C604.991 195.376 606.045 193.883 606.981 191.776L607.157 191.337L586.696 143.741H600.834L614.094 175.793L627.442 143.741H640.615Z"></path><path d="M669.155 191.688C664.179 191.688 659.7 190.663 655.719 188.614C651.797 186.507 648.723 183.609 646.499 179.921C644.274 176.232 643.162 172.047 643.162 167.363C643.162 162.68 644.274 158.494 646.499 154.806C648.723 151.117 651.797 148.249 655.719 146.2C659.7 144.092 664.179 143.038 669.155 143.038C674.131 143.038 678.581 144.092 682.503 146.2C686.425 148.249 689.499 151.117 691.723 154.806C693.948 158.494 695.061 162.68 695.061 167.363C695.061 172.047 693.948 176.232 691.723 179.921C689.499 183.609 686.425 186.507 682.503 188.614C678.581 190.663 674.131 191.688 669.155 191.688ZM669.155 180.448C672.668 180.448 675.536 179.277 677.761 176.935C680.044 174.535 681.186 171.344 681.186 167.363C681.186 163.382 680.044 160.221 677.761 157.879C675.536 155.479 672.668 154.279 669.155 154.279C665.642 154.279 662.745 155.479 660.461 157.879C658.178 160.221 657.037 163.382 657.037 167.363C657.037 171.344 658.178 174.535 660.461 176.935C662.745 179.277 665.642 180.448 669.155 180.448Z"></path><path d="M753.569 143.741V190.985H740.573V185.365C738.758 187.414 736.592 188.995 734.074 190.107C731.557 191.161 728.835 191.688 725.907 191.688C719.702 191.688 714.784 189.902 711.155 186.331C707.525 182.76 705.71 177.462 705.71 170.437V143.741H719.409V168.417C719.409 176.028 722.6 179.833 728.981 179.833C732.259 179.833 734.894 178.779 736.884 176.671C738.875 174.505 739.87 171.315 739.87 167.1V143.741H753.569Z"></path><path d="M781.101 149.976C782.74 147.693 784.936 145.966 787.687 144.795C790.497 143.624 793.717 143.038 797.347 143.038V155.684C795.825 155.567 794.8 155.508 794.273 155.508C790.351 155.508 787.278 156.62 785.053 158.845C782.828 161.011 781.716 164.29 781.716 168.68V190.985H768.017V143.741H781.101V149.976Z"></path><path d="M894.722 143.038C900.635 143.038 905.318 144.795 908.772 148.307C912.285 151.761 914.041 156.972 914.041 163.938V190.985H900.342V166.046C900.342 162.299 899.552 159.518 897.971 157.703C896.449 155.83 894.254 154.893 891.385 154.893C888.165 154.893 885.618 155.947 883.745 158.055C881.872 160.104 880.935 163.177 880.935 167.275V190.985H867.236V166.046C867.236 158.611 864.25 154.893 858.279 154.893C855.117 154.893 852.6 155.947 850.727 158.055C848.853 160.104 847.917 163.177 847.917 167.275V190.985H834.217V143.741H847.302V149.185C849.058 147.195 851.195 145.673 853.712 144.619C856.288 143.565 859.098 143.038 862.143 143.038C865.48 143.038 868.495 143.712 871.188 145.058C873.881 146.346 876.047 148.249 877.686 150.766C879.618 148.307 882.047 146.405 884.974 145.058C887.96 143.712 891.209 143.038 894.722 143.038Z"></path><path d="M928.076 143.741H941.776V190.985H928.076V143.741ZM934.926 137.155C932.409 137.155 930.36 136.423 928.779 134.959C927.198 133.496 926.408 131.681 926.408 129.515C926.408 127.349 927.198 125.534 928.779 124.07C930.36 122.607 932.409 121.875 934.926 121.875C937.443 121.875 939.492 122.578 941.073 123.983C942.654 125.388 943.444 127.144 943.444 129.251C943.444 131.535 942.654 133.437 941.073 134.959C939.492 136.423 937.443 137.155 934.926 137.155Z"></path><path d="M984.961 143.038C990.816 143.038 995.528 144.795 999.099 148.307C1002.73 151.82 1004.54 157.03 1004.54 163.938V190.985H990.845V166.046C990.845 162.299 990.025 159.518 988.386 157.703C986.747 155.83 984.376 154.893 981.273 154.893C977.819 154.893 975.067 155.976 973.018 158.143C970.969 160.25 969.945 163.411 969.945 167.627V190.985H956.246V143.741H969.33V149.273C971.145 147.283 973.399 145.761 976.092 144.707C978.785 143.595 981.741 143.038 984.961 143.038Z"></path><path d="M1067.35 125.827V190.985H1054.27V185.541C1050.88 189.639 1045.96 191.688 1039.52 191.688C1035.07 191.688 1031.03 190.693 1027.4 188.702C1023.83 186.712 1021.02 183.872 1018.97 180.184C1016.92 176.496 1015.9 172.222 1015.9 167.363C1015.9 162.504 1016.92 158.23 1018.97 154.542C1021.02 150.854 1023.83 148.015 1027.4 146.024C1031.03 144.034 1035.07 143.038 1039.52 143.038C1045.55 143.038 1050.26 144.941 1053.66 148.746V125.827H1067.35ZM1041.89 180.448C1045.34 180.448 1048.21 179.277 1050.49 176.935C1052.78 174.535 1053.92 171.344 1053.92 167.363C1053.92 163.382 1052.78 160.221 1050.49 157.879C1048.21 155.479 1045.34 154.279 1041.89 154.279C1038.38 154.279 1035.48 155.479 1033.19 157.879C1030.91 160.221 1029.77 163.382 1029.77 167.363C1029.77 171.344 1030.91 174.535 1033.19 176.935C1035.48 179.277 1038.38 180.448 1041.89 180.448Z"></path></mask><path d="M32.4823 192.039C23.7008 192.039 16.8513 189.61 11.9337 184.75C7.07456 179.891 4.64502 172.954 4.64502 163.938V129.515H18.871V163.411C18.871 174.418 23.4374 179.921 32.5701 179.921C37.0194 179.921 40.4149 178.603 42.7567 175.969C45.0984 173.276 46.2693 169.09 46.2693 163.411V129.515H60.3196V163.938C60.3196 172.954 57.8608 179.891 52.9432 184.75C48.0841 189.61 41.2638 192.039 32.4823 192.039Z" stroke="url(#paint0_linear_1_5124)" stroke-width="8" stroke-linejoin="round" mask="url(#path-1-outside-1_1_5124)"></path><path d="M103.883 143.038C109.738 143.038 114.45 144.795 118.022 148.307C121.651 151.82 123.466 157.03 123.466 163.938V190.985H109.767V166.046C109.767 162.299 108.947 159.518 107.308 157.703C105.669 155.83 103.298 154.893 100.195 154.893C96.7411 154.893 93.9895 155.976 91.9405 158.143C89.8915 160.25 88.867 163.411 88.867 167.627V190.985H75.1679V143.741H88.2523V149.273C90.0671 147.283 92.3211 145.761 95.014 144.707C97.707 143.595 100.663 143.038 103.883 143.038Z" stroke="url(#paint1_linear_1_5124)" stroke-width="8" stroke-linejoin="round" mask="url(#path-1-outside-1_1_5124)"></path><path d="M186.277 125.827V190.985H173.193V185.541C169.797 189.639 164.879 191.688 158.44 191.688C153.99 191.688 149.951 190.693 146.321 188.702C142.75 186.712 139.94 183.872 137.891 180.184C135.842 176.496 134.817 172.222 134.817 167.363C134.817 162.504 135.842 158.23 137.891 154.542C139.94 150.854 142.75 148.015 146.321 146.024C149.951 144.034 153.99 143.038 158.44 143.038C164.47 143.038 169.182 144.941 172.578 148.746V125.827H186.277ZM160.811 180.448C164.265 180.448 167.133 179.277 169.417 176.935C171.7 174.535 172.841 171.344 172.841 167.363C172.841 163.382 171.7 160.221 169.417 157.879C167.133 155.479 164.265 154.279 160.811 154.279C157.298 154.279 154.4 155.479 152.117 157.879C149.834 160.221 148.692 163.382 148.692 167.363C148.692 171.344 149.834 174.535 152.117 176.935C154.4 179.277 157.298 180.448 160.811 180.448Z" stroke="url(#paint2_linear_1_5124)" stroke-width="8" stroke-linejoin="round" mask="url(#path-1-outside-1_1_5124)"></path><path d="M246.991 167.539C246.991 167.714 246.903 168.944 246.727 171.227H210.987C211.631 174.154 213.153 176.467 215.553 178.164C217.953 179.862 220.939 180.711 224.51 180.711C226.969 180.711 229.135 180.36 231.008 179.657C232.94 178.896 234.726 177.725 236.365 176.145L243.654 184.048C239.204 189.141 232.706 191.688 224.159 191.688C218.831 191.688 214.119 190.663 210.021 188.614C205.923 186.507 202.761 183.609 200.537 179.921C198.312 176.232 197.2 172.047 197.2 167.363C197.2 162.738 198.283 158.582 200.449 154.893C202.673 151.147 205.688 148.249 209.494 146.2C213.358 144.092 217.661 143.038 222.403 143.038C227.027 143.038 231.213 144.034 234.96 146.024C238.707 148.015 241.634 150.883 243.742 154.63C245.908 158.318 246.991 162.621 246.991 167.539ZM222.49 153.401C219.388 153.401 216.782 154.279 214.675 156.035C212.567 157.791 211.279 160.192 210.811 163.236H234.082C233.614 160.25 232.326 157.879 230.218 156.123C228.11 154.308 225.535 153.401 222.49 153.401Z" stroke="url(#paint3_linear_1_5124)" stroke-width="8" stroke-linejoin="round" mask="url(#path-1-outside-1_1_5124)"></path><path d="M270.952 149.976C272.591 147.693 274.786 145.966 277.538 144.795C280.348 143.624 283.568 143.038 287.198 143.038V155.684C285.675 155.567 284.651 155.508 284.124 155.508C280.202 155.508 277.128 156.62 274.903 158.845C272.679 161.011 271.566 164.29 271.566 168.68V190.985H257.867V143.741H270.952V149.976Z" stroke="url(#paint4_linear_1_5124)" stroke-width="8" stroke-linejoin="round" mask="url(#path-1-outside-1_1_5124)"></path><path d="M313.165 191.688C309.243 191.688 305.408 191.219 301.662 190.283C297.915 189.288 294.929 188.058 292.704 186.595L297.271 176.759C299.378 178.106 301.925 179.218 304.911 180.096C307.896 180.916 310.824 181.326 313.692 181.326C319.488 181.326 322.386 179.891 322.386 177.023C322.386 175.676 321.596 174.71 320.015 174.125C318.434 173.539 316.005 173.042 312.726 172.632C308.862 172.047 305.672 171.373 303.154 170.612C300.637 169.851 298.442 168.505 296.568 166.573C294.753 164.641 293.846 161.889 293.846 158.318C293.846 155.332 294.695 152.698 296.393 150.415C298.149 148.073 300.666 146.258 303.945 144.97C307.282 143.682 311.204 143.038 315.712 143.038C319.049 143.038 322.357 143.419 325.635 144.18C328.972 144.882 331.724 145.878 333.89 147.166L329.323 156.913C325.167 154.571 320.63 153.401 315.712 153.401C312.785 153.401 310.589 153.81 309.126 154.63C307.662 155.45 306.93 156.503 306.93 157.791C306.93 159.255 307.721 160.279 309.301 160.865C310.882 161.45 313.4 162.006 316.854 162.533C320.717 163.177 323.879 163.88 326.338 164.641C328.796 165.343 330.933 166.661 332.748 168.593C334.563 170.524 335.47 173.217 335.47 176.671C335.47 179.599 334.592 182.204 332.836 184.487C331.08 186.77 328.504 188.556 325.108 189.844C321.771 191.073 317.79 191.688 313.165 191.688Z" stroke="url(#paint5_linear_1_5124)" stroke-width="8" stroke-linejoin="round" mask="url(#path-1-outside-1_1_5124)"></path><path d="M376.151 188.702C374.804 189.697 373.136 190.458 371.145 190.985C369.213 191.454 367.164 191.688 364.998 191.688C359.378 191.688 355.016 190.254 351.914 187.385C348.869 184.516 347.347 180.301 347.347 174.74V155.332H340.059V144.795H347.347V133.291H361.046V144.795H372.814V155.332H361.046V174.564C361.046 176.554 361.544 178.106 362.539 179.218C363.593 180.272 365.057 180.799 366.93 180.799C369.096 180.799 370.94 180.213 372.462 179.042L376.151 188.702Z" stroke="url(#paint6_linear_1_5124)" stroke-width="8" stroke-linejoin="round" mask="url(#path-1-outside-1_1_5124)"></path><path d="M404.653 143.038C411.971 143.038 417.591 144.795 421.513 148.307C425.435 151.761 427.397 157.001 427.397 164.026V190.985H414.576V185.102C412 189.492 407.199 191.688 400.174 191.688C396.544 191.688 393.383 191.073 390.69 189.844C388.056 188.614 386.036 186.917 384.631 184.75C383.226 182.584 382.523 180.126 382.523 177.374C382.523 172.983 384.163 169.529 387.441 167.012C390.778 164.494 395.9 163.236 402.809 163.236H413.698C413.698 160.25 412.79 157.967 410.975 156.386C409.16 154.747 406.438 153.927 402.809 153.927C400.291 153.927 397.803 154.337 395.344 155.157C392.944 155.918 390.895 156.972 389.197 158.318L384.28 148.746C386.855 146.932 389.929 145.526 393.5 144.531C397.13 143.536 400.847 143.038 404.653 143.038ZM403.599 182.467C405.941 182.467 408.019 181.94 409.834 180.887C411.649 179.774 412.937 178.164 413.698 176.057V171.227H404.301C398.681 171.227 395.871 173.071 395.871 176.759C395.871 178.516 396.544 179.921 397.891 180.974C399.296 181.97 401.199 182.467 403.599 182.467Z" stroke="url(#paint7_linear_1_5124)" stroke-width="8" stroke-linejoin="round" mask="url(#path-1-outside-1_1_5124)"></path><path d="M470.267 143.038C476.121 143.038 480.834 144.795 484.405 148.307C488.035 151.82 489.849 157.03 489.849 163.938V190.985H476.15V166.046C476.15 162.299 475.331 159.518 473.692 157.703C472.052 155.83 469.681 154.893 466.579 154.893C463.124 154.893 460.373 155.976 458.324 158.143C456.275 160.25 455.25 163.411 455.25 167.627V190.985H441.551V143.741H454.636V149.273C456.451 147.283 458.704 145.761 461.397 144.707C464.09 143.595 467.047 143.038 470.267 143.038Z" stroke="url(#paint8_linear_1_5124)" stroke-width="8" stroke-linejoin="round" mask="url(#path-1-outside-1_1_5124)"></path><path d="M552.66 125.827V190.985H539.576V185.541C536.18 189.639 531.263 191.688 524.823 191.688C520.374 191.688 516.334 190.693 512.705 188.702C509.134 186.712 506.323 183.872 504.274 180.184C502.225 176.496 501.201 172.222 501.201 167.363C501.201 162.504 502.225 158.23 504.274 154.542C506.323 150.854 509.134 148.015 512.705 146.024C516.334 144.034 520.374 143.038 524.823 143.038C530.853 143.038 535.566 144.941 538.961 148.746V125.827H552.66ZM527.194 180.448C530.648 180.448 533.517 179.277 535.8 176.935C538.083 174.535 539.225 171.344 539.225 167.363C539.225 163.382 538.083 160.221 535.8 157.879C533.517 155.479 530.648 154.279 527.194 154.279C523.682 154.279 520.784 155.479 518.5 157.879C516.217 160.221 515.076 163.382 515.076 167.363C515.076 171.344 516.217 174.535 518.5 176.935C520.784 179.277 523.682 180.448 527.194 180.448Z" stroke="url(#paint9_linear_1_5124)" stroke-width="8" stroke-linejoin="round" mask="url(#path-1-outside-1_1_5124)"></path><path d="M640.615 143.741L619.276 193.883C617.109 199.328 614.416 203.162 611.197 205.387C608.035 207.612 604.201 208.724 599.693 208.724C597.234 208.724 594.804 208.343 592.404 207.582C590.004 206.821 588.043 205.767 586.521 204.421L591.526 194.674C592.58 195.61 593.78 196.342 595.126 196.869C596.531 197.396 597.907 197.659 599.254 197.659C601.127 197.659 602.649 197.191 603.82 196.254C604.991 195.376 606.045 193.883 606.981 191.776L607.157 191.337L586.696 143.741H600.834L614.094 175.793L627.442 143.741H640.615Z" stroke="url(#paint10_linear_1_5124)" stroke-width="8" stroke-linejoin="round" mask="url(#path-1-outside-1_1_5124)"></path><path d="M669.155 191.688C664.179 191.688 659.7 190.663 655.719 188.614C651.797 186.507 648.723 183.609 646.499 179.921C644.274 176.232 643.162 172.047 643.162 167.363C643.162 162.68 644.274 158.494 646.499 154.806C648.723 151.117 651.797 148.249 655.719 146.2C659.7 144.092 664.179 143.038 669.155 143.038C674.131 143.038 678.581 144.092 682.503 146.2C686.425 148.249 689.499 151.117 691.723 154.806C693.948 158.494 695.061 162.68 695.061 167.363C695.061 172.047 693.948 176.232 691.723 179.921C689.499 183.609 686.425 186.507 682.503 188.614C678.581 190.663 674.131 191.688 669.155 191.688ZM669.155 180.448C672.668 180.448 675.536 179.277 677.761 176.935C680.044 174.535 681.186 171.344 681.186 167.363C681.186 163.382 680.044 160.221 677.761 157.879C675.536 155.479 672.668 154.279 669.155 154.279C665.642 154.279 662.745 155.479 660.461 157.879C658.178 160.221 657.037 163.382 657.037 167.363C657.037 171.344 658.178 174.535 660.461 176.935C662.745 179.277 665.642 180.448 669.155 180.448Z" stroke="url(#paint11_linear_1_5124)" stroke-width="8" stroke-linejoin="round" mask="url(#path-1-outside-1_1_5124)"></path><path d="M753.569 143.741V190.985H740.573V185.365C738.758 187.414 736.592 188.995 734.074 190.107C731.557 191.161 728.835 191.688 725.907 191.688C719.702 191.688 714.784 189.902 711.155 186.331C707.525 182.76 705.71 177.462 705.71 170.437V143.741H719.409V168.417C719.409 176.028 722.6 179.833 728.981 179.833C732.259 179.833 734.894 178.779 736.884 176.671C738.875 174.505 739.87 171.315 739.87 167.1V143.741H753.569Z" stroke="url(#paint12_linear_1_5124)" stroke-width="8" stroke-linejoin="round" mask="url(#path-1-outside-1_1_5124)"></path><path d="M781.101 149.976C782.74 147.693 784.936 145.966 787.687 144.795C790.497 143.624 793.717 143.038 797.347 143.038V155.684C795.825 155.567 794.8 155.508 794.273 155.508C790.351 155.508 787.278 156.62 785.053 158.845C782.828 161.011 781.716 164.29 781.716 168.68V190.985H768.017V143.741H781.101V149.976Z" stroke="url(#paint13_linear_1_5124)" stroke-width="8" stroke-linejoin="round" mask="url(#path-1-outside-1_1_5124)"></path><path d="M894.722 143.038C900.635 143.038 905.318 144.795 908.772 148.307C912.285 151.761 914.041 156.972 914.041 163.938V190.985H900.342V166.046C900.342 162.299 899.552 159.518 897.971 157.703C896.449 155.83 894.254 154.893 891.385 154.893C888.165 154.893 885.618 155.947 883.745 158.055C881.872 160.104 880.935 163.177 880.935 167.275V190.985H867.236V166.046C867.236 158.611 864.25 154.893 858.279 154.893C855.117 154.893 852.6 155.947 850.727 158.055C848.853 160.104 847.917 163.177 847.917 167.275V190.985H834.217V143.741H847.302V149.185C849.058 147.195 851.195 145.673 853.712 144.619C856.288 143.565 859.098 143.038 862.143 143.038C865.48 143.038 868.495 143.712 871.188 145.058C873.881 146.346 876.047 148.249 877.686 150.766C879.618 148.307 882.047 146.405 884.974 145.058C887.96 143.712 891.209 143.038 894.722 143.038Z" stroke="url(#paint14_linear_1_5124)" stroke-width="8" stroke-linejoin="round" mask="url(#path-1-outside-1_1_5124)"></path><path d="M928.076 143.741H941.776V190.985H928.076V143.741ZM934.926 137.155C932.409 137.155 930.36 136.423 928.779 134.959C927.198 133.496 926.408 131.681 926.408 129.515C926.408 127.349 927.198 125.534 928.779 124.07C930.36 122.607 932.409 121.875 934.926 121.875C937.443 121.875 939.492 122.578 941.073 123.983C942.654 125.388 943.444 127.144 943.444 129.251C943.444 131.535 942.654 133.437 941.073 134.959C939.492 136.423 937.443 137.155 934.926 137.155Z" stroke="url(#paint15_linear_1_5124)" stroke-width="8" stroke-linejoin="round" mask="url(#path-1-outside-1_1_5124)"></path><path d="M984.961 143.038C990.816 143.038 995.528 144.795 999.099 148.307C1002.73 151.82 1004.54 157.03 1004.54 163.938V190.985H990.845V166.046C990.845 162.299 990.025 159.518 988.386 157.703C986.747 155.83 984.376 154.893 981.273 154.893C977.819 154.893 975.067 155.976 973.018 158.143C970.969 160.25 969.945 163.411 969.945 167.627V190.985H956.246V143.741H969.33V149.273C971.145 147.283 973.399 145.761 976.092 144.707C978.785 143.595 981.741 143.038 984.961 143.038Z" stroke="url(#paint16_linear_1_5124)" stroke-width="8" stroke-linejoin="round" mask="url(#path-1-outside-1_1_5124)"></path><path d="M1067.35 125.827V190.985H1054.27V185.541C1050.88 189.639 1045.96 191.688 1039.52 191.688C1035.07 191.688 1031.03 190.693 1027.4 188.702C1023.83 186.712 1021.02 183.872 1018.97 180.184C1016.92 176.496 1015.9 172.222 1015.9 167.363C1015.9 162.504 1016.92 158.23 1018.97 154.542C1021.02 150.854 1023.83 148.015 1027.4 146.024C1031.03 144.034 1035.07 143.038 1039.52 143.038C1045.55 143.038 1050.26 144.941 1053.66 148.746V125.827H1067.35ZM1041.89 180.448C1045.34 180.448 1048.21 179.277 1050.49 176.935C1052.78 174.535 1053.92 171.344 1053.92 167.363C1053.92 163.382 1052.78 160.221 1050.49 157.879C1048.21 155.479 1045.34 154.279 1041.89 154.279C1038.38 154.279 1035.48 155.479 1033.19 157.879C1030.91 160.221 1029.77 163.382 1029.77 167.363C1029.77 171.344 1030.91 174.535 1033.19 176.935C1035.48 179.277 1038.38 180.448 1041.89 180.448Z" stroke="url(#paint17_linear_1_5124)" stroke-width="8" stroke-linejoin="round" mask="url(#path-1-outside-1_1_5124)"></path><path d="M410 78.2453C410 79.3499 410.895 80.2453 412 80.2453H427.289C428.394 80.2453 429.289 79.3499 429.289 78.2453V61.8491H440.268L452.352 79.3803C452.725 79.9219 453.341 80.2453 453.999 80.2453H470.515C471.26 80.2453 471.943 79.8311 472.288 79.1706C472.633 78.5101 472.582 77.7127 472.155 77.1015L458.736 57.8527C462.369 55.9006 465.295 53.2899 467.464 50.0085L467.473 49.9949C470.042 46.0399 471.288 41.4035 471.288 36.1698C471.288 30.8788 470.044 26.2095 467.473 22.2504C464.916 18.3119 461.299 15.3354 456.704 13.3071C452.11 11.2157 446.721 10.2075 440.597 10.2075H412C410.895 10.2075 410 11.103 410 12.2075V78.2453ZM439.747 45.6792H429.289V26.6604H439.747C444.232 26.6604 447.196 27.624 449.01 29.1922C450.816 30.7537 451.81 32.9844 451.81 36.1698C451.81 39.2722 450.828 41.5206 448.998 43.1573C447.183 44.7197 444.222 45.6792 439.747 45.6792ZM482.139 78.2453C482.139 79.3499 483.034 80.2453 484.139 80.2453H498.862C499.966 80.2453 500.862 79.3499 500.862 78.2453V27.4906C500.862 26.386 499.966 25.4906 498.862 25.4906H484.139C483.034 25.4906 482.139 26.386 482.139 27.4906V78.2453ZM499.492 19.4986L499.494 19.4975C501.601 17.4686 502.655 14.8965 502.655 11.9245C502.655 9.0473 501.575 6.59836 499.419 4.75509C497.289 2.87019 494.589 2 491.5 2C488.382 2 485.665 2.91924 483.535 4.89069C481.425 6.84383 480.345 9.3266 480.345 12.2075C480.345 15.0885 481.425 17.5713 483.535 19.5244C485.665 21.4959 488.382 22.4151 491.5 22.4151C494.665 22.4151 497.405 21.5045 499.492 19.4986ZM533.024 43.2347V8.24528C533.024 7.14071 532.129 6.24528 531.024 6.24528H516.301C515.196 6.24528 514.301 7.14071 514.301 8.24528V78.2453C514.301 79.3499 515.196 80.2453 516.301 80.2453H531.024C532.129 80.2453 533.024 79.3499 533.024 78.2453V66.2022L537.964 61.3469L552.589 79.5C552.969 79.9713 553.542 80.2453 554.147 80.2453H571.984C572.75 80.2453 573.449 79.8078 573.784 79.1188C574.118 78.4298 574.03 77.6102 573.556 77.0083L551.611 49.1266L571.522 28.8934C572.088 28.3189 572.253 27.4612 571.942 26.7178C571.63 25.9744 570.903 25.4906 570.097 25.4906H552.542C552.031 25.4906 551.538 25.6868 551.167 26.039L533.024 43.2347ZM610.604 78.2453C610.604 79.3499 611.5 80.2453 612.604 80.2453H626.383C627.488 80.2453 628.383 79.3499 628.383 78.2453V49.283C628.383 41.1923 626.137 34.8412 621.263 30.6856C616.507 26.6303 609.975 24.7359 601.939 24.7359C597.733 24.7359 593.591 25.2946 589.519 26.4108C585.437 27.5295 581.882 29.1268 578.892 31.2327C578.076 31.8072 577.809 32.8949 578.265 33.7822L583.55 44.0652C583.824 44.5975 584.321 44.9794 584.906 45.1058C585.491 45.2323 586.102 45.09 586.571 44.7182C588.177 43.4449 590.154 42.4172 592.539 41.6613L592.567 41.6522C595.012 40.8376 597.473 40.434 599.957 40.434C603.678 40.434 606.009 41.2674 607.37 42.5379L607.394 42.56C608.454 43.5164 609.176 44.7719 609.487 46.434H599.957C594.66 46.434 590.195 47.1074 586.659 48.5593C583.179 49.9264 580.451 51.9071 578.663 54.5884C578.656 54.5992 578.648 54.6101 578.641 54.621C576.964 57.2454 576.156 60.2706 576.156 63.6226C576.156 66.8847 577.014 69.876 578.743 72.5415C580.477 75.2124 582.943 77.295 586.055 78.8158C586.066 78.8211 586.077 78.8263 586.088 78.8314C589.245 80.3041 592.946 81 597.126 81C601.832 81 605.869 80.1071 609.103 78.168C609.63 77.8519 610.13 77.5117 610.604 77.1478V78.2453ZM609.66 59.0189V61.8154C608.929 63.5211 607.839 64.7843 606.389 65.6785C604.775 66.6103 602.931 67.0943 600.807 67.0943C598.511 67.0943 596.929 66.6223 595.867 65.8857C594.945 65.1495 594.502 64.236 594.502 62.9623C594.502 61.8379 594.885 60.9687 595.707 60.2213C596.457 59.593 598.202 59.0189 601.562 59.0189H609.66ZM641.484 78.2453C641.484 79.3499 642.379 80.2453 643.484 80.2453H658.207C659.311 80.2453 660.207 79.3499 660.207 78.2453V27.4906C660.207 26.386 659.311 25.4906 658.207 25.4906H643.484C642.379 25.4906 641.484 26.386 641.484 27.4906V78.2453ZM658.838 19.4986L658.839 19.4975C660.947 17.4686 662 14.8965 662 11.9245C662 9.0473 660.92 6.59837 658.764 4.75509C656.635 2.87019 653.935 2 650.845 2C647.727 2 645.01 2.91924 642.88 4.89069C640.77 6.84383 639.691 9.3266 639.691 12.2075C639.691 15.0885 640.77 17.5713 642.88 19.5244C645.01 21.4959 647.727 22.4151 650.845 22.4151C654.01 22.4151 656.751 21.5045 658.838 19.4986Z" stroke="url(#paint18_linear_1_5124)" stroke-width="4" stroke-linejoin="round"></path><defs><linearGradient id="paint0_linear_1_5124" x1="-9.27116" y1="193.768" x2="1052.68" y2="44.7802" gradientUnits="userSpaceOnUse"><stop stop-color="#67C0F2"></stop><stop offset="0.195531" stop-color="#EEF5FF"></stop><stop offset="0.446866" stop-color="#7AC7F4"></stop><stop offset="0.591388" stop-color="#87CDF5"></stop><stop offset="0.782642" stop-color="#DAEDFD"></stop><stop offset="1" stop-color="#67C0F2"></stop></linearGradient><linearGradient id="paint1_linear_1_5124" x1="-9.27116" y1="193.768" x2="1052.68" y2="44.7802" gradientUnits="userSpaceOnUse"><stop stop-color="#67C0F2"></stop><stop offset="0.195531" stop-color="#EEF5FF"></stop><stop offset="0.446866" stop-color="#7AC7F4"></stop><stop offset="0.591388" stop-color="#87CDF5"></stop><stop offset="0.782642" stop-color="#DAEDFD"></stop><stop offset="1" stop-color="#67C0F2"></stop></linearGradient><linearGradient id="paint2_linear_1_5124" x1="-9.27116" y1="193.768" x2="1052.68" y2="44.7802" gradientUnits="userSpaceOnUse"><stop stop-color="#67C0F2"></stop><stop offset="0.195531" stop-color="#EEF5FF"></stop><stop offset="0.446866" stop-color="#7AC7F4"></stop><stop offset="0.591388" stop-color="#87CDF5"></stop><stop offset="0.782642" stop-color="#DAEDFD"></stop><stop offset="1" stop-color="#67C0F2"></stop></linearGradient><linearGradient id="paint3_linear_1_5124" x1="-9.27116" y1="193.768" x2="1052.68" y2="44.7802" gradientUnits="userSpaceOnUse"><stop stop-color="#67C0F2"></stop><stop offset="0.195531" stop-color="#EEF5FF"></stop><stop offset="0.446866" stop-color="#7AC7F4"></stop><stop offset="0.591388" stop-color="#87CDF5"></stop><stop offset="0.782642" stop-color="#DAEDFD"></stop><stop offset="1" stop-color="#67C0F2"></stop></linearGradient><linearGradient id="paint4_linear_1_5124" x1="-9.27116" y1="193.768" x2="1052.68" y2="44.7802" gradientUnits="userSpaceOnUse"><stop stop-color="#67C0F2"></stop><stop offset="0.195531" stop-color="#EEF5FF"></stop><stop offset="0.446866" stop-color="#7AC7F4"></stop><stop offset="0.591388" stop-color="#87CDF5"></stop><stop offset="0.782642" stop-color="#DAEDFD"></stop><stop offset="1" stop-color="#67C0F2"></stop></linearGradient><linearGradient id="paint5_linear_1_5124" x1="-9.27116" y1="193.768" x2="1052.68" y2="44.7802" gradientUnits="userSpaceOnUse"><stop stop-color="#67C0F2"></stop><stop offset="0.195531" stop-color="#EEF5FF"></stop><stop offset="0.446866" stop-color="#7AC7F4"></stop><stop offset="0.591388" stop-color="#87CDF5"></stop><stop offset="0.782642" stop-color="#DAEDFD"></stop><stop offset="1" stop-color="#67C0F2"></stop></linearGradient><linearGradient id="paint6_linear_1_5124" x1="-9.27116" y1="193.768" x2="1052.68" y2="44.7802" gradientUnits="userSpaceOnUse"><stop stop-color="#67C0F2"></stop><stop offset="0.195531" stop-color="#EEF5FF"></stop><stop offset="0.446866" stop-color="#7AC7F4"></stop><stop offset="0.591388" stop-color="#87CDF5"></stop><stop offset="0.782642" stop-color="#DAEDFD"></stop><stop offset="1" stop-color="#67C0F2"></stop></linearGradient><linearGradient id="paint7_linear_1_5124" x1="-9.27116" y1="193.768" x2="1052.68" y2="44.7802" gradientUnits="userSpaceOnUse"><stop stop-color="#67C0F2"></stop><stop offset="0.195531" stop-color="#EEF5FF"></stop><stop offset="0.446866" stop-color="#7AC7F4"></stop><stop offset="0.591388" stop-color="#87CDF5"></stop><stop offset="0.782642" stop-color="#DAEDFD"></stop><stop offset="1" stop-color="#67C0F2"></stop></linearGradient><linearGradient id="paint8_linear_1_5124" x1="-9.27116" y1="193.768" x2="1052.68" y2="44.7802" gradientUnits="userSpaceOnUse"><stop stop-color="#67C0F2"></stop><stop offset="0.195531" stop-color="#EEF5FF"></stop><stop offset="0.446866" stop-color="#7AC7F4"></stop><stop offset="0.591388" stop-color="#87CDF5"></stop><stop offset="0.782642" stop-color="#DAEDFD"></stop><stop offset="1" stop-color="#67C0F2"></stop></linearGradient><linearGradient id="paint9_linear_1_5124" x1="-9.27116" y1="193.768" x2="1052.68" y2="44.7802" gradientUnits="userSpaceOnUse"><stop stop-color="#67C0F2"></stop><stop offset="0.195531" stop-color="#EEF5FF"></stop><stop offset="0.446866" stop-color="#7AC7F4"></stop><stop offset="0.591388" stop-color="#87CDF5"></stop><stop offset="0.782642" stop-color="#DAEDFD"></stop><stop offset="1" stop-color="#67C0F2"></stop></linearGradient><linearGradient id="paint10_linear_1_5124" x1="-9.27116" y1="193.768" x2="1052.68" y2="44.7802" gradientUnits="userSpaceOnUse"><stop stop-color="#67C0F2"></stop><stop offset="0.195531" stop-color="#EEF5FF"></stop><stop offset="0.446866" stop-color="#7AC7F4"></stop><stop offset="0.591388" stop-color="#87CDF5"></stop><stop offset="0.782642" stop-color="#DAEDFD"></stop><stop offset="1" stop-color="#67C0F2"></stop></linearGradient><linearGradient id="paint11_linear_1_5124" x1="-9.27116" y1="193.768" x2="1052.68" y2="44.7802" gradientUnits="userSpaceOnUse"><stop stop-color="#67C0F2"></stop><stop offset="0.195531" stop-color="#EEF5FF"></stop><stop offset="0.446866" stop-color="#7AC7F4"></stop><stop offset="0.591388" stop-color="#87CDF5"></stop><stop offset="0.782642" stop-color="#DAEDFD"></stop><stop offset="1" stop-color="#67C0F2"></stop></linearGradient><linearGradient id="paint12_linear_1_5124" x1="-9.27116" y1="193.768" x2="1052.68" y2="44.7802" gradientUnits="userSpaceOnUse"><stop stop-color="#67C0F2"></stop><stop offset="0.195531" stop-color="#EEF5FF"></stop><stop offset="0.446866" stop-color="#7AC7F4"></stop><stop offset="0.591388" stop-color="#87CDF5"></stop><stop offset="0.782642" stop-color="#DAEDFD"></stop><stop offset="1" stop-color="#67C0F2"></stop></linearGradient><linearGradient id="paint13_linear_1_5124" x1="-9.27116" y1="193.768" x2="1052.68" y2="44.7802" gradientUnits="userSpaceOnUse"><stop stop-color="#67C0F2"></stop><stop offset="0.195531" stop-color="#EEF5FF"></stop><stop offset="0.446866" stop-color="#7AC7F4"></stop><stop offset="0.591388" stop-color="#87CDF5"></stop><stop offset="0.782642" stop-color="#DAEDFD"></stop><stop offset="1" stop-color="#67C0F2"></stop></linearGradient><linearGradient id="paint14_linear_1_5124" x1="-9.27116" y1="193.768" x2="1052.68" y2="44.7802" gradientUnits="userSpaceOnUse"><stop stop-color="#67C0F2"></stop><stop offset="0.195531" stop-color="#EEF5FF"></stop><stop offset="0.446866" stop-color="#7AC7F4"></stop><stop offset="0.591388" stop-color="#87CDF5"></stop><stop offset="0.782642" stop-color="#DAEDFD"></stop><stop offset="1" stop-color="#67C0F2"></stop></linearGradient><linearGradient id="paint15_linear_1_5124" x1="-9.27116" y1="193.768" x2="1052.68" y2="44.7802" gradientUnits="userSpaceOnUse"><stop stop-color="#67C0F2"></stop><stop offset="0.195531" stop-color="#EEF5FF"></stop><stop offset="0.446866" stop-color="#7AC7F4"></stop><stop offset="0.591388" stop-color="#87CDF5"></stop><stop offset="0.782642" stop-color="#DAEDFD"></stop><stop offset="1" stop-color="#67C0F2"></stop></linearGradient><linearGradient id="paint16_linear_1_5124" x1="-9.27116" y1="193.768" x2="1052.68" y2="44.7802" gradientUnits="userSpaceOnUse"><stop stop-color="#67C0F2"></stop><stop offset="0.195531" stop-color="#EEF5FF"></stop><stop offset="0.446866" stop-color="#7AC7F4"></stop><stop offset="0.591388" stop-color="#87CDF5"></stop><stop offset="0.782642" stop-color="#DAEDFD"></stop><stop offset="1" stop-color="#67C0F2"></stop></linearGradient><linearGradient id="paint17_linear_1_5124" x1="-9.27116" y1="193.768" x2="1052.68" y2="44.7802" gradientUnits="userSpaceOnUse"><stop stop-color="#67C0F2"></stop><stop offset="0.195531" stop-color="#EEF5FF"></stop><stop offset="0.446866" stop-color="#7AC7F4"></stop><stop offset="0.591388" stop-color="#87CDF5"></stop><stop offset="0.782642" stop-color="#DAEDFD"></stop><stop offset="1" stop-color="#67C0F2"></stop></linearGradient><linearGradient id="paint18_linear_1_5124" x1="408.752" y1="66.0844" x2="661.09" y2="56.5175" gradientUnits="userSpaceOnUse"><stop stop-color="#67C0F2"></stop><stop offset="0.349674" stop-color="#EEF5FF"></stop><stop offset="0.612643" stop-color="#7AC7F4"></stop><stop offset="0.628962" stop-color="#67C0F2"></stop><stop offset="0.883072" stop-color="#DAEDFD"></stop></linearGradient></defs></svg> 