<?xml version="1.0" encoding="UTF-8"?> <svg xmlns="http://www.w3.org/2000/svg" width="1072" height="210" viewBox="0 0 1072 210" fill="none"><mask id="path-1-outside-1_2_5132" maskUnits="userSpaceOnUse" x="0.64502" y="114.875" width="1071" height="95" fill="black"><rect fill="white" x="0.64502" y="114.875" width="1071" height="95"></rect><path d="M32.4823 189.039C23.7008 189.039 16.8513 186.61 11.9337 181.75C7.07456 176.891 4.64502 169.954 4.64502 160.938V126.515H18.871V160.411C18.871 171.418 23.4374 176.921 32.5701 176.921C37.0194 176.921 40.4149 175.603 42.7567 172.969C45.0984 170.276 46.2693 166.09 46.2693 160.411V126.515H60.3196V160.938C60.3196 169.954 57.8608 176.891 52.9432 181.75C48.0841 186.61 41.2638 189.039 32.4823 189.039Z"></path><path d="M103.883 140.038C109.738 140.038 114.45 141.795 118.022 145.307C121.651 148.82 123.466 154.03 123.466 160.938V187.985H109.767V163.046C109.767 159.299 108.947 156.518 107.308 154.703C105.669 152.83 103.298 151.893 100.195 151.893C96.7411 151.893 93.9895 152.976 91.9405 155.143C89.8915 157.25 88.867 160.411 88.867 164.627V187.985H75.1679V140.741H88.2523V146.273C90.0671 144.283 92.3211 142.761 95.014 141.707C97.707 140.595 100.663 140.038 103.883 140.038Z"></path><path d="M186.277 122.827V187.985H173.193V182.541C169.797 186.639 164.879 188.688 158.44 188.688C153.99 188.688 149.951 187.693 146.321 185.702C142.75 183.712 139.94 180.872 137.891 177.184C135.842 173.496 134.817 169.222 134.817 164.363C134.817 159.504 135.842 155.23 137.891 151.542C139.94 147.854 142.75 145.015 146.321 143.024C149.951 141.034 153.99 140.038 158.44 140.038C164.47 140.038 169.182 141.941 172.578 145.746V122.827H186.277ZM160.811 177.448C164.265 177.448 167.133 176.277 169.417 173.935C171.7 171.535 172.841 168.344 172.841 164.363C172.841 160.382 171.7 157.221 169.417 154.879C167.133 152.479 164.265 151.279 160.811 151.279C157.298 151.279 154.4 152.479 152.117 154.879C149.834 157.221 148.692 160.382 148.692 164.363C148.692 168.344 149.834 171.535 152.117 173.935C154.4 176.277 157.298 177.448 160.811 177.448Z"></path><path d="M246.991 164.539C246.991 164.714 246.903 165.944 246.727 168.227H210.987C211.631 171.154 213.153 173.467 215.553 175.164C217.953 176.862 220.939 177.711 224.51 177.711C226.969 177.711 229.135 177.36 231.008 176.657C232.94 175.896 234.726 174.725 236.365 173.145L243.654 181.048C239.204 186.141 232.706 188.688 224.159 188.688C218.831 188.688 214.119 187.663 210.021 185.614C205.923 183.507 202.761 180.609 200.537 176.921C198.312 173.232 197.2 169.047 197.2 164.363C197.2 159.738 198.283 155.582 200.449 151.893C202.673 148.147 205.688 145.249 209.494 143.2C213.358 141.092 217.661 140.038 222.403 140.038C227.027 140.038 231.213 141.034 234.96 143.024C238.707 145.015 241.634 147.883 243.742 151.63C245.908 155.318 246.991 159.621 246.991 164.539ZM222.49 150.401C219.388 150.401 216.782 151.279 214.675 153.035C212.567 154.791 211.279 157.192 210.811 160.236H234.082C233.614 157.25 232.326 154.879 230.218 153.123C228.11 151.308 225.535 150.401 222.49 150.401Z"></path><path d="M270.952 146.976C272.591 144.693 274.786 142.966 277.538 141.795C280.348 140.624 283.568 140.038 287.198 140.038V152.684C285.675 152.567 284.651 152.508 284.124 152.508C280.202 152.508 277.128 153.62 274.903 155.845C272.679 158.011 271.566 161.29 271.566 165.68V187.985H257.867V140.741H270.952V146.976Z"></path><path d="M313.165 188.688C309.243 188.688 305.408 188.219 301.662 187.283C297.915 186.288 294.929 185.058 292.704 183.595L297.271 173.759C299.378 175.106 301.925 176.218 304.911 177.096C307.896 177.916 310.824 178.326 313.692 178.326C319.488 178.326 322.386 176.891 322.386 174.023C322.386 172.676 321.596 171.71 320.015 171.125C318.434 170.539 316.005 170.042 312.726 169.632C308.862 169.047 305.672 168.373 303.154 167.612C300.637 166.851 298.442 165.505 296.568 163.573C294.753 161.641 293.846 158.889 293.846 155.318C293.846 152.332 294.695 149.698 296.393 147.415C298.149 145.073 300.666 143.258 303.945 141.97C307.282 140.682 311.204 140.038 315.712 140.038C319.049 140.038 322.357 140.419 325.635 141.18C328.972 141.882 331.724 142.878 333.89 144.166L329.323 153.913C325.167 151.571 320.63 150.401 315.712 150.401C312.785 150.401 310.589 150.81 309.126 151.63C307.662 152.45 306.93 153.503 306.93 154.791C306.93 156.255 307.721 157.279 309.301 157.865C310.882 158.45 313.4 159.006 316.854 159.533C320.717 160.177 323.879 160.88 326.338 161.641C328.796 162.343 330.933 163.661 332.748 165.593C334.563 167.524 335.47 170.217 335.47 173.671C335.47 176.599 334.592 179.204 332.836 181.487C331.08 183.77 328.504 185.556 325.108 186.844C321.771 188.073 317.79 188.688 313.165 188.688Z"></path><path d="M376.151 185.702C374.804 186.697 373.136 187.458 371.145 187.985C369.213 188.454 367.164 188.688 364.998 188.688C359.378 188.688 355.016 187.254 351.914 184.385C348.869 181.516 347.347 177.301 347.347 171.74V152.332H340.059V141.795H347.347V130.291H361.046V141.795H372.814V152.332H361.046V171.564C361.046 173.554 361.544 175.106 362.539 176.218C363.593 177.272 365.057 177.799 366.93 177.799C369.096 177.799 370.94 177.213 372.462 176.042L376.151 185.702Z"></path><path d="M404.653 140.038C411.971 140.038 417.591 141.795 421.513 145.307C425.435 148.761 427.397 154.001 427.397 161.026V187.985H414.576V182.102C412 186.492 407.199 188.688 400.174 188.688C396.544 188.688 393.383 188.073 390.69 186.844C388.056 185.614 386.036 183.917 384.631 181.75C383.226 179.584 382.523 177.126 382.523 174.374C382.523 169.983 384.163 166.529 387.441 164.012C390.778 161.494 395.9 160.236 402.809 160.236H413.698C413.698 157.25 412.79 154.967 410.975 153.386C409.16 151.747 406.438 150.927 402.809 150.927C400.291 150.927 397.803 151.337 395.344 152.157C392.944 152.918 390.895 153.972 389.197 155.318L384.28 145.746C386.855 143.932 389.929 142.526 393.5 141.531C397.13 140.536 400.847 140.038 404.653 140.038ZM403.599 179.467C405.941 179.467 408.019 178.94 409.834 177.887C411.649 176.774 412.937 175.164 413.698 173.057V168.227H404.301C398.681 168.227 395.871 170.071 395.871 173.759C395.871 175.516 396.544 176.921 397.891 177.974C399.296 178.97 401.199 179.467 403.599 179.467Z"></path><path d="M470.267 140.038C476.121 140.038 480.834 141.795 484.405 145.307C488.035 148.82 489.849 154.03 489.849 160.938V187.985H476.15V163.046C476.15 159.299 475.331 156.518 473.692 154.703C472.052 152.83 469.681 151.893 466.579 151.893C463.124 151.893 460.373 152.976 458.324 155.143C456.275 157.25 455.25 160.411 455.25 164.627V187.985H441.551V140.741H454.636V146.273C456.451 144.283 458.704 142.761 461.397 141.707C464.09 140.595 467.047 140.038 470.267 140.038Z"></path><path d="M552.66 122.827V187.985H539.576V182.541C536.18 186.639 531.263 188.688 524.823 188.688C520.374 188.688 516.334 187.693 512.705 185.702C509.134 183.712 506.323 180.872 504.274 177.184C502.225 173.496 501.201 169.222 501.201 164.363C501.201 159.504 502.225 155.23 504.274 151.542C506.323 147.854 509.134 145.015 512.705 143.024C516.334 141.034 520.374 140.038 524.823 140.038C530.853 140.038 535.566 141.941 538.961 145.746V122.827H552.66ZM527.194 177.448C530.648 177.448 533.517 176.277 535.8 173.935C538.083 171.535 539.225 168.344 539.225 164.363C539.225 160.382 538.083 157.221 535.8 154.879C533.517 152.479 530.648 151.279 527.194 151.279C523.682 151.279 520.784 152.479 518.5 154.879C516.217 157.221 515.076 160.382 515.076 164.363C515.076 168.344 516.217 171.535 518.5 173.935C520.784 176.277 523.682 177.448 527.194 177.448Z"></path><path d="M640.615 140.741L619.276 190.883C617.109 196.328 614.416 200.162 611.197 202.387C608.035 204.612 604.201 205.724 599.693 205.724C597.234 205.724 594.804 205.343 592.404 204.582C590.004 203.821 588.043 202.767 586.521 201.421L591.526 191.674C592.58 192.61 593.78 193.342 595.126 193.869C596.531 194.396 597.907 194.659 599.254 194.659C601.127 194.659 602.649 194.191 603.82 193.254C604.991 192.376 606.045 190.883 606.981 188.776L607.157 188.337L586.696 140.741H600.834L614.094 172.793L627.442 140.741H640.615Z"></path><path d="M669.155 188.688C664.179 188.688 659.7 187.663 655.719 185.614C651.797 183.507 648.723 180.609 646.499 176.921C644.274 173.232 643.162 169.047 643.162 164.363C643.162 159.68 644.274 155.494 646.499 151.806C648.723 148.117 651.797 145.249 655.719 143.2C659.7 141.092 664.179 140.038 669.155 140.038C674.131 140.038 678.581 141.092 682.503 143.2C686.425 145.249 689.499 148.117 691.723 151.806C693.948 155.494 695.061 159.68 695.061 164.363C695.061 169.047 693.948 173.232 691.723 176.921C689.499 180.609 686.425 183.507 682.503 185.614C678.581 187.663 674.131 188.688 669.155 188.688ZM669.155 177.448C672.668 177.448 675.536 176.277 677.761 173.935C680.044 171.535 681.186 168.344 681.186 164.363C681.186 160.382 680.044 157.221 677.761 154.879C675.536 152.479 672.668 151.279 669.155 151.279C665.642 151.279 662.745 152.479 660.461 154.879C658.178 157.221 657.037 160.382 657.037 164.363C657.037 168.344 658.178 171.535 660.461 173.935C662.745 176.277 665.642 177.448 669.155 177.448Z"></path><path d="M753.569 140.741V187.985H740.573V182.365C738.758 184.414 736.592 185.995 734.074 187.107C731.557 188.161 728.835 188.688 725.907 188.688C719.702 188.688 714.784 186.902 711.155 183.331C707.525 179.76 705.71 174.462 705.71 167.437V140.741H719.409V165.417C719.409 173.028 722.6 176.833 728.981 176.833C732.259 176.833 734.894 175.779 736.884 173.671C738.875 171.505 739.87 168.315 739.87 164.1V140.741H753.569Z"></path><path d="M781.101 146.976C782.74 144.693 784.936 142.966 787.687 141.795C790.497 140.624 793.717 140.038 797.347 140.038V152.684C795.825 152.567 794.8 152.508 794.273 152.508C790.351 152.508 787.278 153.62 785.053 155.845C782.828 158.011 781.716 161.29 781.716 165.68V187.985H768.017V140.741H781.101V146.976Z"></path><path d="M894.722 140.038C900.635 140.038 905.318 141.795 908.772 145.307C912.285 148.761 914.041 153.972 914.041 160.938V187.985H900.342V163.046C900.342 159.299 899.552 156.518 897.971 154.703C896.449 152.83 894.254 151.893 891.385 151.893C888.165 151.893 885.618 152.947 883.745 155.055C881.872 157.104 880.935 160.177 880.935 164.275V187.985H867.236V163.046C867.236 155.611 864.25 151.893 858.279 151.893C855.117 151.893 852.6 152.947 850.727 155.055C848.853 157.104 847.917 160.177 847.917 164.275V187.985H834.217V140.741H847.302V146.185C849.058 144.195 851.195 142.673 853.712 141.619C856.288 140.565 859.098 140.038 862.143 140.038C865.48 140.038 868.495 140.712 871.188 142.058C873.881 143.346 876.047 145.249 877.686 147.766C879.618 145.307 882.047 143.405 884.974 142.058C887.96 140.712 891.209 140.038 894.722 140.038Z"></path><path d="M928.076 140.741H941.776V187.985H928.076V140.741ZM934.926 134.155C932.409 134.155 930.36 133.423 928.779 131.959C927.198 130.496 926.408 128.681 926.408 126.515C926.408 124.349 927.198 122.534 928.779 121.07C930.36 119.607 932.409 118.875 934.926 118.875C937.443 118.875 939.492 119.578 941.073 120.983C942.654 122.388 943.444 124.144 943.444 126.251C943.444 128.535 942.654 130.437 941.073 131.959C939.492 133.423 937.443 134.155 934.926 134.155Z"></path><path d="M984.961 140.038C990.816 140.038 995.528 141.795 999.099 145.307C1002.73 148.82 1004.54 154.03 1004.54 160.938V187.985H990.845V163.046C990.845 159.299 990.025 156.518 988.386 154.703C986.747 152.83 984.376 151.893 981.273 151.893C977.819 151.893 975.067 152.976 973.018 155.143C970.969 157.25 969.945 160.411 969.945 164.627V187.985H956.246V140.741H969.33V146.273C971.145 144.283 973.399 142.761 976.092 141.707C978.785 140.595 981.741 140.038 984.961 140.038Z"></path><path d="M1067.35 122.827V187.985H1054.27V182.541C1050.88 186.639 1045.96 188.688 1039.52 188.688C1035.07 188.688 1031.03 187.693 1027.4 185.702C1023.83 183.712 1021.02 180.872 1018.97 177.184C1016.92 173.496 1015.9 169.222 1015.9 164.363C1015.9 159.504 1016.92 155.23 1018.97 151.542C1021.02 147.854 1023.83 145.015 1027.4 143.024C1031.03 141.034 1035.07 140.038 1039.52 140.038C1045.55 140.038 1050.26 141.941 1053.66 145.746V122.827H1067.35ZM1041.89 177.448C1045.34 177.448 1048.21 176.277 1050.49 173.935C1052.78 171.535 1053.92 168.344 1053.92 164.363C1053.92 160.382 1052.78 157.221 1050.49 154.879C1048.21 152.479 1045.34 151.279 1041.89 151.279C1038.38 151.279 1035.48 152.479 1033.19 154.879C1030.91 157.221 1029.77 160.382 1029.77 164.363C1029.77 168.344 1030.91 171.535 1033.19 173.935C1035.48 176.277 1038.38 177.448 1041.89 177.448Z"></path></mask><path d="M32.4823 189.039C23.7008 189.039 16.8513 186.61 11.9337 181.75C7.07456 176.891 4.64502 169.954 4.64502 160.938V126.515H18.871V160.411C18.871 171.418 23.4374 176.921 32.5701 176.921C37.0194 176.921 40.4149 175.603 42.7567 172.969C45.0984 170.276 46.2693 166.09 46.2693 160.411V126.515H60.3196V160.938C60.3196 169.954 57.8608 176.891 52.9432 181.75C48.0841 186.61 41.2638 189.039 32.4823 189.039Z" stroke="url(#paint0_linear_2_5132)" stroke-width="8" stroke-linejoin="round" mask="url(#path-1-outside-1_2_5132)"></path><path d="M103.883 140.038C109.738 140.038 114.45 141.795 118.022 145.307C121.651 148.82 123.466 154.03 123.466 160.938V187.985H109.767V163.046C109.767 159.299 108.947 156.518 107.308 154.703C105.669 152.83 103.298 151.893 100.195 151.893C96.7411 151.893 93.9895 152.976 91.9405 155.143C89.8915 157.25 88.867 160.411 88.867 164.627V187.985H75.1679V140.741H88.2523V146.273C90.0671 144.283 92.3211 142.761 95.014 141.707C97.707 140.595 100.663 140.038 103.883 140.038Z" stroke="url(#paint1_linear_2_5132)" stroke-width="8" stroke-linejoin="round" mask="url(#path-1-outside-1_2_5132)"></path><path d="M186.277 122.827V187.985H173.193V182.541C169.797 186.639 164.879 188.688 158.44 188.688C153.99 188.688 149.951 187.693 146.321 185.702C142.75 183.712 139.94 180.872 137.891 177.184C135.842 173.496 134.817 169.222 134.817 164.363C134.817 159.504 135.842 155.23 137.891 151.542C139.94 147.854 142.75 145.015 146.321 143.024C149.951 141.034 153.99 140.038 158.44 140.038C164.47 140.038 169.182 141.941 172.578 145.746V122.827H186.277ZM160.811 177.448C164.265 177.448 167.133 176.277 169.417 173.935C171.7 171.535 172.841 168.344 172.841 164.363C172.841 160.382 171.7 157.221 169.417 154.879C167.133 152.479 164.265 151.279 160.811 151.279C157.298 151.279 154.4 152.479 152.117 154.879C149.834 157.221 148.692 160.382 148.692 164.363C148.692 168.344 149.834 171.535 152.117 173.935C154.4 176.277 157.298 177.448 160.811 177.448Z" stroke="url(#paint2_linear_2_5132)" stroke-width="8" stroke-linejoin="round" mask="url(#path-1-outside-1_2_5132)"></path><path d="M246.991 164.539C246.991 164.714 246.903 165.944 246.727 168.227H210.987C211.631 171.154 213.153 173.467 215.553 175.164C217.953 176.862 220.939 177.711 224.51 177.711C226.969 177.711 229.135 177.36 231.008 176.657C232.94 175.896 234.726 174.725 236.365 173.145L243.654 181.048C239.204 186.141 232.706 188.688 224.159 188.688C218.831 188.688 214.119 187.663 210.021 185.614C205.923 183.507 202.761 180.609 200.537 176.921C198.312 173.232 197.2 169.047 197.2 164.363C197.2 159.738 198.283 155.582 200.449 151.893C202.673 148.147 205.688 145.249 209.494 143.2C213.358 141.092 217.661 140.038 222.403 140.038C227.027 140.038 231.213 141.034 234.96 143.024C238.707 145.015 241.634 147.883 243.742 151.63C245.908 155.318 246.991 159.621 246.991 164.539ZM222.49 150.401C219.388 150.401 216.782 151.279 214.675 153.035C212.567 154.791 211.279 157.192 210.811 160.236H234.082C233.614 157.25 232.326 154.879 230.218 153.123C228.11 151.308 225.535 150.401 222.49 150.401Z" stroke="url(#paint3_linear_2_5132)" stroke-width="8" stroke-linejoin="round" mask="url(#path-1-outside-1_2_5132)"></path><path d="M270.952 146.976C272.591 144.693 274.786 142.966 277.538 141.795C280.348 140.624 283.568 140.038 287.198 140.038V152.684C285.675 152.567 284.651 152.508 284.124 152.508C280.202 152.508 277.128 153.62 274.903 155.845C272.679 158.011 271.566 161.29 271.566 165.68V187.985H257.867V140.741H270.952V146.976Z" stroke="url(#paint4_linear_2_5132)" stroke-width="8" stroke-linejoin="round" mask="url(#path-1-outside-1_2_5132)"></path><path d="M313.165 188.688C309.243 188.688 305.408 188.219 301.662 187.283C297.915 186.288 294.929 185.058 292.704 183.595L297.271 173.759C299.378 175.106 301.925 176.218 304.911 177.096C307.896 177.916 310.824 178.326 313.692 178.326C319.488 178.326 322.386 176.891 322.386 174.023C322.386 172.676 321.596 171.71 320.015 171.125C318.434 170.539 316.005 170.042 312.726 169.632C308.862 169.047 305.672 168.373 303.154 167.612C300.637 166.851 298.442 165.505 296.568 163.573C294.753 161.641 293.846 158.889 293.846 155.318C293.846 152.332 294.695 149.698 296.393 147.415C298.149 145.073 300.666 143.258 303.945 141.97C307.282 140.682 311.204 140.038 315.712 140.038C319.049 140.038 322.357 140.419 325.635 141.18C328.972 141.882 331.724 142.878 333.89 144.166L329.323 153.913C325.167 151.571 320.63 150.401 315.712 150.401C312.785 150.401 310.589 150.81 309.126 151.63C307.662 152.45 306.93 153.503 306.93 154.791C306.93 156.255 307.721 157.279 309.301 157.865C310.882 158.45 313.4 159.006 316.854 159.533C320.717 160.177 323.879 160.88 326.338 161.641C328.796 162.343 330.933 163.661 332.748 165.593C334.563 167.524 335.47 170.217 335.47 173.671C335.47 176.599 334.592 179.204 332.836 181.487C331.08 183.77 328.504 185.556 325.108 186.844C321.771 188.073 317.79 188.688 313.165 188.688Z" stroke="url(#paint5_linear_2_5132)" stroke-width="8" stroke-linejoin="round" mask="url(#path-1-outside-1_2_5132)"></path><path d="M376.151 185.702C374.804 186.697 373.136 187.458 371.145 187.985C369.213 188.454 367.164 188.688 364.998 188.688C359.378 188.688 355.016 187.254 351.914 184.385C348.869 181.516 347.347 177.301 347.347 171.74V152.332H340.059V141.795H347.347V130.291H361.046V141.795H372.814V152.332H361.046V171.564C361.046 173.554 361.544 175.106 362.539 176.218C363.593 177.272 365.057 177.799 366.93 177.799C369.096 177.799 370.94 177.213 372.462 176.042L376.151 185.702Z" stroke="url(#paint6_linear_2_5132)" stroke-width="8" stroke-linejoin="round" mask="url(#path-1-outside-1_2_5132)"></path><path d="M404.653 140.038C411.971 140.038 417.591 141.795 421.513 145.307C425.435 148.761 427.397 154.001 427.397 161.026V187.985H414.576V182.102C412 186.492 407.199 188.688 400.174 188.688C396.544 188.688 393.383 188.073 390.69 186.844C388.056 185.614 386.036 183.917 384.631 181.75C383.226 179.584 382.523 177.126 382.523 174.374C382.523 169.983 384.163 166.529 387.441 164.012C390.778 161.494 395.9 160.236 402.809 160.236H413.698C413.698 157.25 412.79 154.967 410.975 153.386C409.16 151.747 406.438 150.927 402.809 150.927C400.291 150.927 397.803 151.337 395.344 152.157C392.944 152.918 390.895 153.972 389.197 155.318L384.28 145.746C386.855 143.932 389.929 142.526 393.5 141.531C397.13 140.536 400.847 140.038 404.653 140.038ZM403.599 179.467C405.941 179.467 408.019 178.94 409.834 177.887C411.649 176.774 412.937 175.164 413.698 173.057V168.227H404.301C398.681 168.227 395.871 170.071 395.871 173.759C395.871 175.516 396.544 176.921 397.891 177.974C399.296 178.97 401.199 179.467 403.599 179.467Z" stroke="url(#paint7_linear_2_5132)" stroke-width="8" stroke-linejoin="round" mask="url(#path-1-outside-1_2_5132)"></path><path d="M470.267 140.038C476.121 140.038 480.834 141.795 484.405 145.307C488.035 148.82 489.849 154.03 489.849 160.938V187.985H476.15V163.046C476.15 159.299 475.331 156.518 473.692 154.703C472.052 152.83 469.681 151.893 466.579 151.893C463.124 151.893 460.373 152.976 458.324 155.143C456.275 157.25 455.25 160.411 455.25 164.627V187.985H441.551V140.741H454.636V146.273C456.451 144.283 458.704 142.761 461.397 141.707C464.09 140.595 467.047 140.038 470.267 140.038Z" stroke="url(#paint8_linear_2_5132)" stroke-width="8" stroke-linejoin="round" mask="url(#path-1-outside-1_2_5132)"></path><path d="M552.66 122.827V187.985H539.576V182.541C536.18 186.639 531.263 188.688 524.823 188.688C520.374 188.688 516.334 187.693 512.705 185.702C509.134 183.712 506.323 180.872 504.274 177.184C502.225 173.496 501.201 169.222 501.201 164.363C501.201 159.504 502.225 155.23 504.274 151.542C506.323 147.854 509.134 145.015 512.705 143.024C516.334 141.034 520.374 140.038 524.823 140.038C530.853 140.038 535.566 141.941 538.961 145.746V122.827H552.66ZM527.194 177.448C530.648 177.448 533.517 176.277 535.8 173.935C538.083 171.535 539.225 168.344 539.225 164.363C539.225 160.382 538.083 157.221 535.8 154.879C533.517 152.479 530.648 151.279 527.194 151.279C523.682 151.279 520.784 152.479 518.5 154.879C516.217 157.221 515.076 160.382 515.076 164.363C515.076 168.344 516.217 171.535 518.5 173.935C520.784 176.277 523.682 177.448 527.194 177.448Z" stroke="url(#paint9_linear_2_5132)" stroke-width="8" stroke-linejoin="round" mask="url(#path-1-outside-1_2_5132)"></path><path d="M640.615 140.741L619.276 190.883C617.109 196.328 614.416 200.162 611.197 202.387C608.035 204.612 604.201 205.724 599.693 205.724C597.234 205.724 594.804 205.343 592.404 204.582C590.004 203.821 588.043 202.767 586.521 201.421L591.526 191.674C592.58 192.61 593.78 193.342 595.126 193.869C596.531 194.396 597.907 194.659 599.254 194.659C601.127 194.659 602.649 194.191 603.82 193.254C604.991 192.376 606.045 190.883 606.981 188.776L607.157 188.337L586.696 140.741H600.834L614.094 172.793L627.442 140.741H640.615Z" stroke="url(#paint10_linear_2_5132)" stroke-width="8" stroke-linejoin="round" mask="url(#path-1-outside-1_2_5132)"></path><path d="M669.155 188.688C664.179 188.688 659.7 187.663 655.719 185.614C651.797 183.507 648.723 180.609 646.499 176.921C644.274 173.232 643.162 169.047 643.162 164.363C643.162 159.68 644.274 155.494 646.499 151.806C648.723 148.117 651.797 145.249 655.719 143.2C659.7 141.092 664.179 140.038 669.155 140.038C674.131 140.038 678.581 141.092 682.503 143.2C686.425 145.249 689.499 148.117 691.723 151.806C693.948 155.494 695.061 159.68 695.061 164.363C695.061 169.047 693.948 173.232 691.723 176.921C689.499 180.609 686.425 183.507 682.503 185.614C678.581 187.663 674.131 188.688 669.155 188.688ZM669.155 177.448C672.668 177.448 675.536 176.277 677.761 173.935C680.044 171.535 681.186 168.344 681.186 164.363C681.186 160.382 680.044 157.221 677.761 154.879C675.536 152.479 672.668 151.279 669.155 151.279C665.642 151.279 662.745 152.479 660.461 154.879C658.178 157.221 657.037 160.382 657.037 164.363C657.037 168.344 658.178 171.535 660.461 173.935C662.745 176.277 665.642 177.448 669.155 177.448Z" stroke="url(#paint11_linear_2_5132)" stroke-width="8" stroke-linejoin="round" mask="url(#path-1-outside-1_2_5132)"></path><path d="M753.569 140.741V187.985H740.573V182.365C738.758 184.414 736.592 185.995 734.074 187.107C731.557 188.161 728.835 188.688 725.907 188.688C719.702 188.688 714.784 186.902 711.155 183.331C707.525 179.76 705.71 174.462 705.71 167.437V140.741H719.409V165.417C719.409 173.028 722.6 176.833 728.981 176.833C732.259 176.833 734.894 175.779 736.884 173.671C738.875 171.505 739.87 168.315 739.87 164.1V140.741H753.569Z" stroke="url(#paint12_linear_2_5132)" stroke-width="8" stroke-linejoin="round" mask="url(#path-1-outside-1_2_5132)"></path><path d="M781.101 146.976C782.74 144.693 784.936 142.966 787.687 141.795C790.497 140.624 793.717 140.038 797.347 140.038V152.684C795.825 152.567 794.8 152.508 794.273 152.508C790.351 152.508 787.278 153.62 785.053 155.845C782.828 158.011 781.716 161.29 781.716 165.68V187.985H768.017V140.741H781.101V146.976Z" stroke="url(#paint13_linear_2_5132)" stroke-width="8" stroke-linejoin="round" mask="url(#path-1-outside-1_2_5132)"></path><path d="M894.722 140.038C900.635 140.038 905.318 141.795 908.772 145.307C912.285 148.761 914.041 153.972 914.041 160.938V187.985H900.342V163.046C900.342 159.299 899.552 156.518 897.971 154.703C896.449 152.83 894.254 151.893 891.385 151.893C888.165 151.893 885.618 152.947 883.745 155.055C881.872 157.104 880.935 160.177 880.935 164.275V187.985H867.236V163.046C867.236 155.611 864.25 151.893 858.279 151.893C855.117 151.893 852.6 152.947 850.727 155.055C848.853 157.104 847.917 160.177 847.917 164.275V187.985H834.217V140.741H847.302V146.185C849.058 144.195 851.195 142.673 853.712 141.619C856.288 140.565 859.098 140.038 862.143 140.038C865.48 140.038 868.495 140.712 871.188 142.058C873.881 143.346 876.047 145.249 877.686 147.766C879.618 145.307 882.047 143.405 884.974 142.058C887.96 140.712 891.209 140.038 894.722 140.038Z" stroke="url(#paint14_linear_2_5132)" stroke-width="8" stroke-linejoin="round" mask="url(#path-1-outside-1_2_5132)"></path><path d="M928.076 140.741H941.776V187.985H928.076V140.741ZM934.926 134.155C932.409 134.155 930.36 133.423 928.779 131.959C927.198 130.496 926.408 128.681 926.408 126.515C926.408 124.349 927.198 122.534 928.779 121.07C930.36 119.607 932.409 118.875 934.926 118.875C937.443 118.875 939.492 119.578 941.073 120.983C942.654 122.388 943.444 124.144 943.444 126.251C943.444 128.535 942.654 130.437 941.073 131.959C939.492 133.423 937.443 134.155 934.926 134.155Z" stroke="url(#paint15_linear_2_5132)" stroke-width="8" stroke-linejoin="round" mask="url(#path-1-outside-1_2_5132)"></path><path d="M984.961 140.038C990.816 140.038 995.528 141.795 999.099 145.307C1002.73 148.82 1004.54 154.03 1004.54 160.938V187.985H990.845V163.046C990.845 159.299 990.025 156.518 988.386 154.703C986.747 152.83 984.376 151.893 981.273 151.893C977.819 151.893 975.067 152.976 973.018 155.143C970.969 157.25 969.945 160.411 969.945 164.627V187.985H956.246V140.741H969.33V146.273C971.145 144.283 973.399 142.761 976.092 141.707C978.785 140.595 981.741 140.038 984.961 140.038Z" stroke="url(#paint16_linear_2_5132)" stroke-width="8" stroke-linejoin="round" mask="url(#path-1-outside-1_2_5132)"></path><path d="M1067.35 122.827V187.985H1054.27V182.541C1050.88 186.639 1045.96 188.688 1039.52 188.688C1035.07 188.688 1031.03 187.693 1027.4 185.702C1023.83 183.712 1021.02 180.872 1018.97 177.184C1016.92 173.496 1015.9 169.222 1015.9 164.363C1015.9 159.504 1016.92 155.23 1018.97 151.542C1021.02 147.854 1023.83 145.015 1027.4 143.024C1031.03 141.034 1035.07 140.038 1039.52 140.038C1045.55 140.038 1050.26 141.941 1053.66 145.746V122.827H1067.35ZM1041.89 177.448C1045.34 177.448 1048.21 176.277 1050.49 173.935C1052.78 171.535 1053.92 168.344 1053.92 164.363C1053.92 160.382 1052.78 157.221 1050.49 154.879C1048.21 152.479 1045.34 151.279 1041.89 151.279C1038.38 151.279 1035.48 152.479 1033.19 154.879C1030.91 157.221 1029.77 160.382 1029.77 164.363C1029.77 168.344 1030.91 171.535 1033.19 173.935C1035.48 176.277 1038.38 177.448 1041.89 177.448Z" stroke="url(#paint17_linear_2_5132)" stroke-width="8" stroke-linejoin="round" mask="url(#path-1-outside-1_2_5132)"></path><path d="M447.165 74.696C447.538 75.2356 448.153 75.5576 448.809 75.5576H464.089C464.834 75.5576 465.517 75.1432 465.862 74.4825C466.207 73.8218 466.155 73.0242 465.729 72.4131L453.279 54.5711C456.606 52.761 459.289 50.36 461.276 47.3535C463.748 43.6447 464.947 39.2956 464.947 34.3921C464.947 29.4979 463.782 25.1552 461.376 21.4482C458.978 17.7543 455.561 14.9411 451.214 12.9873C446.918 11.03 441.912 10.0872 436.251 10.0872H409.644C408.539 10.0872 407.644 10.9826 407.644 12.0872V73.5576C407.644 74.6621 408.539 75.5576 409.644 75.5576H423.87C424.974 75.5576 425.87 74.6621 425.87 73.5576V58.4337H435.906L447.165 74.696ZM443.92 28.0186L443.944 28.0385C445.608 29.3957 446.546 31.4039 446.546 34.3921C446.546 37.3074 445.616 39.3377 443.92 40.7656C442.192 42.2208 439.478 43.1055 435.461 43.1055H425.87V25.6787H435.461C439.478 25.6787 442.192 26.5634 443.92 28.0186ZM521.024 55.7992C522.069 55.7992 522.938 54.9946 523.018 53.9526C523.188 51.7435 523.287 50.388 523.287 50.111C523.287 44.8983 522.138 40.2406 519.772 36.2054C517.48 32.1377 514.279 28.9997 510.195 26.8301C506.134 24.6726 501.621 23.6106 496.699 23.6106C491.651 23.6106 487.016 24.7352 482.838 27.0134C478.712 29.2359 475.433 32.3899 473.025 36.4446L473.021 36.4528C470.66 40.4729 469.496 44.9842 469.496 49.9354C469.496 54.95 470.691 59.4989 473.12 63.5259C475.55 67.5542 478.998 70.7002 483.402 72.9651L483.423 72.9754C487.84 75.1842 492.868 76.2601 498.455 76.2601C507.416 76.2601 514.531 73.5738 519.456 67.936C520.128 67.1668 520.113 66.0151 519.42 65.2643L512.132 57.361C511.767 56.9654 511.258 56.7335 510.72 56.7177C510.182 56.7019 509.661 56.9036 509.273 57.2772C507.809 58.6892 506.247 59.7063 504.587 60.3625C502.986 60.9604 501.071 61.2832 498.806 61.2832C495.559 61.2832 493 60.5153 491.004 59.1038C489.734 58.2053 488.767 57.1122 488.095 55.7992H521.024ZM503.209 40.2106L503.234 40.2315C504.375 41.1821 505.233 42.36 505.795 43.8081H487.673C488.236 42.3065 489.102 41.1015 490.252 40.1437C491.953 38.7261 494.087 37.9728 496.787 37.9728C499.401 37.9728 501.5 38.7387 503.209 40.2106ZM564.509 24.8613L547.863 40.6314V8.39893C547.863 7.29436 546.967 6.39893 545.863 6.39893H532.164C531.059 6.39893 530.164 7.29436 530.164 8.39893V73.5576C530.164 74.6621 531.059 75.5576 532.164 75.5576H545.863C546.967 75.5576 547.863 74.6621 547.863 73.5576V62.3632L552.279 58.0057L565.82 74.8123C566.2 75.2836 566.772 75.5576 567.378 75.5576H583.975C584.741 75.5576 585.439 75.1201 585.774 74.4311C586.108 73.742 586.02 72.9224 585.546 72.3206L565.208 46.481L583.645 27.7148C584.21 27.1401 584.374 26.2826 584.063 25.5396C583.751 24.7966 583.024 24.3132 582.218 24.3132H565.885C565.373 24.3132 564.881 24.5093 564.509 24.8613ZM615.099 40.4667C616.007 41.2579 616.654 42.3324 616.951 43.8081H608.246C601.162 43.8081 595.519 45.0864 591.674 47.9875L591.66 47.9978C587.854 50.9202 585.961 54.9789 585.961 59.9463C585.961 63.0575 586.761 65.8993 588.39 68.4111C590.024 70.9301 592.351 72.8609 595.282 74.2283L595.297 74.2353C598.302 75.6075 601.758 76.2601 605.611 76.2601C610.655 76.2601 614.868 75.1784 618.013 72.8504V73.5576C618.013 74.6621 618.908 75.5576 620.013 75.5576H632.834C633.938 75.5576 634.834 74.6621 634.834 73.5576V46.5984C634.834 39.2102 632.762 33.3366 628.279 29.3842C623.868 25.438 617.704 23.6106 610.09 23.6106C606.108 23.6106 602.212 24.1317 598.409 25.1747L598.4 25.1769C594.647 26.2229 591.357 27.7162 588.565 29.6836C587.75 30.2581 587.482 31.3454 587.938 32.2326L592.855 41.8044C593.129 42.3369 593.627 42.7188 594.212 42.8453C594.797 42.9718 595.408 42.8294 595.877 42.4574C597.356 41.2843 599.18 40.3349 601.386 39.6356L601.414 39.6265C603.675 38.8728 605.95 38.4997 608.246 38.4997C611.615 38.4997 613.768 39.2648 615.072 40.4427C615.076 40.4468 615.081 40.4509 615.086 40.4549L615.099 40.4667ZM646.989 24.3132C645.884 24.3132 644.989 25.2086 644.989 26.3132V73.5576C644.989 74.6621 645.884 75.5576 646.989 75.5576H660.688C661.792 75.5576 662.688 74.6621 662.688 73.5576V26.3132C662.688 25.2086 661.792 24.3132 660.688 24.3132H646.989ZM661.344 18.9992C661.354 18.9903 661.363 18.9814 661.372 18.9723C663.362 17.0564 664.356 14.6257 664.356 11.8237C664.356 9.14262 663.32 6.84307 661.314 5.06001C659.3 3.26968 656.747 2.44727 653.838 2.44727C650.908 2.44727 648.344 3.31227 646.332 5.17512C644.34 7.0196 643.32 9.36745 643.32 12.0872C643.32 14.8069 644.34 17.1547 646.332 18.9992C648.344 20.862 650.908 21.7271 653.838 21.7271C656.769 21.7271 659.332 20.862 661.344 18.9992ZM614.246 61.7413C612.775 62.5903 611.057 63.0395 609.036 63.0395C606.921 63.0395 605.481 62.6048 604.523 61.942C603.702 61.2845 603.308 60.475 603.308 59.3316C603.308 58.0836 603.734 57.3661 604.513 56.8544C605.44 56.2463 607.084 55.7992 609.739 55.7992H617.135V58.2612C616.515 59.7985 615.555 60.9334 614.246 61.7413Z" stroke="url(#paint18_linear_2_5132)" stroke-width="4" stroke-linejoin="round"></path><defs><linearGradient id="paint0_linear_2_5132" x1="-9.27116" y1="190.768" x2="1052.68" y2="41.7802" gradientUnits="userSpaceOnUse"><stop stop-color="#67C0F2"></stop><stop offset="0.195531" stop-color="#EEF5FF"></stop><stop offset="0.446866" stop-color="#7AC7F4"></stop><stop offset="0.591388" stop-color="#87CDF5"></stop><stop offset="0.782642" stop-color="#DAEDFD"></stop><stop offset="1" stop-color="#67C0F2"></stop></linearGradient><linearGradient id="paint1_linear_2_5132" x1="-9.27116" y1="190.768" x2="1052.68" y2="41.7802" gradientUnits="userSpaceOnUse"><stop stop-color="#67C0F2"></stop><stop offset="0.195531" stop-color="#EEF5FF"></stop><stop offset="0.446866" stop-color="#7AC7F4"></stop><stop offset="0.591388" stop-color="#87CDF5"></stop><stop offset="0.782642" stop-color="#DAEDFD"></stop><stop offset="1" stop-color="#67C0F2"></stop></linearGradient><linearGradient id="paint2_linear_2_5132" x1="-9.27116" y1="190.768" x2="1052.68" y2="41.7802" gradientUnits="userSpaceOnUse"><stop stop-color="#67C0F2"></stop><stop offset="0.195531" stop-color="#EEF5FF"></stop><stop offset="0.446866" stop-color="#7AC7F4"></stop><stop offset="0.591388" stop-color="#87CDF5"></stop><stop offset="0.782642" stop-color="#DAEDFD"></stop><stop offset="1" stop-color="#67C0F2"></stop></linearGradient><linearGradient id="paint3_linear_2_5132" x1="-9.27116" y1="190.768" x2="1052.68" y2="41.7802" gradientUnits="userSpaceOnUse"><stop stop-color="#67C0F2"></stop><stop offset="0.195531" stop-color="#EEF5FF"></stop><stop offset="0.446866" stop-color="#7AC7F4"></stop><stop offset="0.591388" stop-color="#87CDF5"></stop><stop offset="0.782642" stop-color="#DAEDFD"></stop><stop offset="1" stop-color="#67C0F2"></stop></linearGradient><linearGradient id="paint4_linear_2_5132" x1="-9.27116" y1="190.768" x2="1052.68" y2="41.7802" gradientUnits="userSpaceOnUse"><stop stop-color="#67C0F2"></stop><stop offset="0.195531" stop-color="#EEF5FF"></stop><stop offset="0.446866" stop-color="#7AC7F4"></stop><stop offset="0.591388" stop-color="#87CDF5"></stop><stop offset="0.782642" stop-color="#DAEDFD"></stop><stop offset="1" stop-color="#67C0F2"></stop></linearGradient><linearGradient id="paint5_linear_2_5132" x1="-9.27116" y1="190.768" x2="1052.68" y2="41.7802" gradientUnits="userSpaceOnUse"><stop stop-color="#67C0F2"></stop><stop offset="0.195531" stop-color="#EEF5FF"></stop><stop offset="0.446866" stop-color="#7AC7F4"></stop><stop offset="0.591388" stop-color="#87CDF5"></stop><stop offset="0.782642" stop-color="#DAEDFD"></stop><stop offset="1" stop-color="#67C0F2"></stop></linearGradient><linearGradient id="paint6_linear_2_5132" x1="-9.27116" y1="190.768" x2="1052.68" y2="41.7802" gradientUnits="userSpaceOnUse"><stop stop-color="#67C0F2"></stop><stop offset="0.195531" stop-color="#EEF5FF"></stop><stop offset="0.446866" stop-color="#7AC7F4"></stop><stop offset="0.591388" stop-color="#87CDF5"></stop><stop offset="0.782642" stop-color="#DAEDFD"></stop><stop offset="1" stop-color="#67C0F2"></stop></linearGradient><linearGradient id="paint7_linear_2_5132" x1="-9.27116" y1="190.768" x2="1052.68" y2="41.7802" gradientUnits="userSpaceOnUse"><stop stop-color="#67C0F2"></stop><stop offset="0.195531" stop-color="#EEF5FF"></stop><stop offset="0.446866" stop-color="#7AC7F4"></stop><stop offset="0.591388" stop-color="#87CDF5"></stop><stop offset="0.782642" stop-color="#DAEDFD"></stop><stop offset="1" stop-color="#67C0F2"></stop></linearGradient><linearGradient id="paint8_linear_2_5132" x1="-9.27116" y1="190.768" x2="1052.68" y2="41.7802" gradientUnits="userSpaceOnUse"><stop stop-color="#67C0F2"></stop><stop offset="0.195531" stop-color="#EEF5FF"></stop><stop offset="0.446866" stop-color="#7AC7F4"></stop><stop offset="0.591388" stop-color="#87CDF5"></stop><stop offset="0.782642" stop-color="#DAEDFD"></stop><stop offset="1" stop-color="#67C0F2"></stop></linearGradient><linearGradient id="paint9_linear_2_5132" x1="-9.27116" y1="190.768" x2="1052.68" y2="41.7802" gradientUnits="userSpaceOnUse"><stop stop-color="#67C0F2"></stop><stop offset="0.195531" stop-color="#EEF5FF"></stop><stop offset="0.446866" stop-color="#7AC7F4"></stop><stop offset="0.591388" stop-color="#87CDF5"></stop><stop offset="0.782642" stop-color="#DAEDFD"></stop><stop offset="1" stop-color="#67C0F2"></stop></linearGradient><linearGradient id="paint10_linear_2_5132" x1="-9.27116" y1="190.768" x2="1052.68" y2="41.7802" gradientUnits="userSpaceOnUse"><stop stop-color="#67C0F2"></stop><stop offset="0.195531" stop-color="#EEF5FF"></stop><stop offset="0.446866" stop-color="#7AC7F4"></stop><stop offset="0.591388" stop-color="#87CDF5"></stop><stop offset="0.782642" stop-color="#DAEDFD"></stop><stop offset="1" stop-color="#67C0F2"></stop></linearGradient><linearGradient id="paint11_linear_2_5132" x1="-9.27116" y1="190.768" x2="1052.68" y2="41.7802" gradientUnits="userSpaceOnUse"><stop stop-color="#67C0F2"></stop><stop offset="0.195531" stop-color="#EEF5FF"></stop><stop offset="0.446866" stop-color="#7AC7F4"></stop><stop offset="0.591388" stop-color="#87CDF5"></stop><stop offset="0.782642" stop-color="#DAEDFD"></stop><stop offset="1" stop-color="#67C0F2"></stop></linearGradient><linearGradient id="paint12_linear_2_5132" x1="-9.27116" y1="190.768" x2="1052.68" y2="41.7802" gradientUnits="userSpaceOnUse"><stop stop-color="#67C0F2"></stop><stop offset="0.195531" stop-color="#EEF5FF"></stop><stop offset="0.446866" stop-color="#7AC7F4"></stop><stop offset="0.591388" stop-color="#87CDF5"></stop><stop offset="0.782642" stop-color="#DAEDFD"></stop><stop offset="1" stop-color="#67C0F2"></stop></linearGradient><linearGradient id="paint13_linear_2_5132" x1="-9.27116" y1="190.768" x2="1052.68" y2="41.7802" gradientUnits="userSpaceOnUse"><stop stop-color="#67C0F2"></stop><stop offset="0.195531" stop-color="#EEF5FF"></stop><stop offset="0.446866" stop-color="#7AC7F4"></stop><stop offset="0.591388" stop-color="#87CDF5"></stop><stop offset="0.782642" stop-color="#DAEDFD"></stop><stop offset="1" stop-color="#67C0F2"></stop></linearGradient><linearGradient id="paint14_linear_2_5132" x1="-9.27116" y1="190.768" x2="1052.68" y2="41.7802" gradientUnits="userSpaceOnUse"><stop stop-color="#67C0F2"></stop><stop offset="0.195531" stop-color="#EEF5FF"></stop><stop offset="0.446866" stop-color="#7AC7F4"></stop><stop offset="0.591388" stop-color="#87CDF5"></stop><stop offset="0.782642" stop-color="#DAEDFD"></stop><stop offset="1" stop-color="#67C0F2"></stop></linearGradient><linearGradient id="paint15_linear_2_5132" x1="-9.27116" y1="190.768" x2="1052.68" y2="41.7802" gradientUnits="userSpaceOnUse"><stop stop-color="#67C0F2"></stop><stop offset="0.195531" stop-color="#EEF5FF"></stop><stop offset="0.446866" stop-color="#7AC7F4"></stop><stop offset="0.591388" stop-color="#87CDF5"></stop><stop offset="0.782642" stop-color="#DAEDFD"></stop><stop offset="1" stop-color="#67C0F2"></stop></linearGradient><linearGradient id="paint16_linear_2_5132" x1="-9.27116" y1="190.768" x2="1052.68" y2="41.7802" gradientUnits="userSpaceOnUse"><stop stop-color="#67C0F2"></stop><stop offset="0.195531" stop-color="#EEF5FF"></stop><stop offset="0.446866" stop-color="#7AC7F4"></stop><stop offset="0.591388" stop-color="#87CDF5"></stop><stop offset="0.782642" stop-color="#DAEDFD"></stop><stop offset="1" stop-color="#67C0F2"></stop></linearGradient><linearGradient id="paint17_linear_2_5132" x1="-9.27116" y1="190.768" x2="1052.68" y2="41.7802" gradientUnits="userSpaceOnUse"><stop stop-color="#67C0F2"></stop><stop offset="0.195531" stop-color="#EEF5FF"></stop><stop offset="0.446866" stop-color="#7AC7F4"></stop><stop offset="0.591388" stop-color="#87CDF5"></stop><stop offset="0.782642" stop-color="#DAEDFD"></stop><stop offset="1" stop-color="#67C0F2"></stop></linearGradient><linearGradient id="paint18_linear_2_5132" x1="406.334" y1="62.2377" x2="663.393" y2="51.5688" gradientUnits="userSpaceOnUse"><stop stop-color="#67C0F2"></stop><stop offset="0.349674" stop-color="#EEF5FF"></stop><stop offset="0.612643" stop-color="#7AC7F4"></stop><stop offset="0.628962" stop-color="#67C0F2"></stop><stop offset="0.883072" stop-color="#DAEDFD"></stop></linearGradient></defs></svg> 