<?xml version="1.0" encoding="UTF-8"?> <svg xmlns="http://www.w3.org/2000/svg" width="286" height="76" viewBox="0 0 286 76" fill="none"><path fill-rule="evenodd" clip-rule="evenodd" d="M28.3606 74.2742C26.6911 74.2742 25.1971 73.2372 24.6132 71.6731L0.709237 7.64113C0.250775 6.41304 0.423149 5.03826 1.17061 3.96137C1.91807 2.88448 3.14576 2.24218 4.45663 2.24218H22.4086C24.1304 2.24218 25.6589 3.3439 26.2034 4.97727L37.9974 40.3594L49.7166 5.0773C50.2571 3.44999 51.7747 2.34822 53.4894 2.33825L70.0014 2.24225C71.3274 2.23454 72.5711 2.88452 73.3219 3.97763C73.429 4.13367 73.5242 4.29585 73.6071 4.46281V4.03418C73.6071 1.82504 75.398 0.0341797 77.6071 0.0341797H92.3911C94.6003 0.0341797 96.3911 1.82504 96.3911 4.03418V15.0742C96.3911 16.7361 95.3776 18.1613 93.9349 18.7654C95.2723 19.4105 96.1959 20.7781 96.1991 22.3622L96.2951 70.2662C96.2972 71.3284 95.8768 72.3479 95.1264 73.0998C94.376 73.8517 93.3574 74.2742 92.2951 74.2742H77.8951C75.686 74.2742 73.8951 72.4833 73.8951 70.2742V22.3702C73.8951 20.8003 74.7995 19.4417 76.1156 18.7868C74.6452 18.1956 73.6071 16.7561 73.6071 15.0742V8.06389L48.6936 71.7318C48.0936 73.2652 46.6152 74.2742 44.9686 74.2742H28.3606ZM38.0041 53.0287L22.4086 6.24218H4.45663L28.3606 70.2742H44.9686L70.0246 6.24218L53.5126 6.33818L38.0041 53.0287ZM77.8951 70.2742V22.3702H92.1982L92.2951 70.2742H77.8951ZM135.06 33.971C134.217 33.5457 133.375 33.1347 132.532 32.7382C130.42 31.6502 127.988 31.1062 125.236 31.1062C122.74 31.1062 120.948 31.4902 119.86 32.2582C118.772 33.0262 118.228 34.0502 118.228 35.3302C118.228 36.5462 118.58 37.5062 119.284 38.2102C120.052 38.9142 121.044 39.4902 122.26 39.9382C123.476 40.3222 124.82 40.7062 126.292 41.0902C127.892 41.4742 129.524 41.9542 131.188 42.5302C132.916 43.0422 134.516 43.8102 135.988 44.8342C137.524 45.7942 138.74 47.1702 139.636 48.9622C140.596 50.6902 141.076 52.9942 141.076 55.8742C141.012 59.7782 139.956 62.9142 137.908 65.2822C135.86 67.5862 133.204 69.2502 129.94 70.2742C126.74 71.2342 123.252 71.7142 119.476 71.7142C116.02 71.7142 113.044 71.3302 110.548 70.5622C108.116 69.8582 105.812 69.0582 103.636 68.1622V55.5862C104.841 56.3894 106.174 57.2183 107.636 58.0729C107.805 58.1716 107.975 58.2707 108.148 58.3702C109.812 59.2662 111.636 60.0022 113.62 60.5782C115.668 61.1542 117.812 61.4422 120.052 61.4422C122.356 61.4422 123.956 61.0582 124.852 60.2902C125.812 59.4582 126.292 58.4662 126.292 57.3142C126.292 56.2262 125.812 55.3622 124.852 54.7222C123.892 54.0182 122.644 53.4422 121.108 52.9942C119.572 52.5462 117.94 52.1302 116.212 51.7462C114.676 51.4262 113.14 50.9462 111.604 50.3062C110.068 49.6022 108.692 48.6742 107.476 47.5222C106.26 46.3702 105.268 44.9622 104.5 43.2982C103.796 41.5702 103.444 39.4902 103.444 37.0582C103.444 33.9222 104.052 31.3302 105.268 29.2822C106.484 27.1702 108.084 25.4742 110.068 24.1942C112.052 22.9142 114.196 22.0182 116.5 21.5062C118.804 20.9302 121.044 20.6742 123.22 20.7382C127.188 20.8662 130.324 21.3142 132.628 22.0822C134.996 22.7862 137.14 23.7142 139.06 24.8662V36.0982C137.727 35.3531 136.393 34.644 135.06 33.971ZM133.829 18.2662C136.462 19.0542 138.899 20.105 141.118 21.4362C142.323 22.1591 143.06 23.4611 143.06 24.8662V36.0982C143.06 37.5172 142.308 38.8301 141.084 39.5482C139.86 40.2663 138.347 40.2822 137.109 39.59C135.011 38.4177 132.918 37.3404 130.829 36.3575C130.785 36.3371 130.743 36.316 130.7 36.2941C129.238 35.541 127.452 35.1062 125.236 35.1062C124.176 35.1062 123.4 35.1893 122.858 35.3054C122.549 35.3717 122.36 35.4392 122.259 35.4823C122.556 35.6977 122.975 35.9315 123.561 36.1544C124.667 36.5016 125.901 36.8537 127.265 37.2101C128.96 37.6184 130.677 38.1232 132.414 38.7218C134.485 39.3454 136.417 40.2719 138.194 41.4966C140.353 42.8689 142.004 44.7841 143.176 47.0977C144.55 49.6148 145.076 52.6378 145.076 55.8742C145.076 55.896 145.076 55.9179 145.075 55.9398C145 60.5432 143.735 64.6592 140.933 67.8988C140.921 67.9125 140.91 67.9261 140.898 67.9396C138.317 70.8432 135.015 72.8743 131.137 74.0908C131.129 74.0933 131.121 74.0958 131.113 74.0983C131.105 74.1007 131.097 74.1031 131.089 74.1055C127.471 75.1908 123.591 75.7142 119.476 75.7142C115.756 75.7142 112.374 75.3045 109.405 74.3955C106.855 73.6562 104.423 72.8123 102.113 71.8609C100.614 71.2437 99.6359 69.7831 99.6359 68.1622V55.5862C99.6359 54.111 100.448 52.7556 101.748 52.0595C103.049 51.3634 104.627 51.4397 105.855 52.258C107.101 53.089 108.513 53.9615 110.094 54.8751C111.471 55.6115 113.008 56.2342 114.718 56.7319C116.391 57.2008 118.164 57.4422 120.052 57.4422C120.631 57.4422 121.095 57.412 121.46 57.3668C121.06 57.1863 120.575 57.0053 119.988 56.8342C118.551 56.415 117.012 56.022 115.369 55.6565C113.58 55.282 111.812 54.7262 110.065 53.9985C110.041 53.9885 110.017 53.9782 109.994 53.9677C109.975 53.9595 109.956 53.951 109.937 53.9424C108.006 53.0571 106.263 51.8827 104.725 50.426C103.107 48.8929 101.829 47.0563 100.868 44.9744C100.843 44.9193 100.818 44.8636 100.796 44.8074C99.8469 42.4789 99.4439 39.8582 99.4439 37.0582C99.4439 33.4353 100.143 30.0912 101.814 27.2642C103.336 24.6287 105.37 22.465 107.899 20.833C110.266 19.306 112.833 18.2298 115.58 17.613C118.191 16.9649 120.78 16.6647 123.337 16.7399L123.349 16.7402C127.46 16.8729 131.01 17.3375 133.829 18.2662ZM151.676 74.2742C149.467 74.2742 147.676 72.4833 147.676 70.2742V22.3702C147.676 20.8003 148.581 19.4417 149.897 18.7868C148.426 18.1956 147.388 16.7561 147.388 15.0742V4.03418C147.388 1.82504 149.179 0.0341797 151.388 0.0341797H166.172C168.382 0.0341797 170.172 1.82504 170.172 4.03418V15.0742C170.172 16.7361 169.159 18.1613 167.716 18.7654C169.054 19.4106 169.977 20.7781 169.98 22.3622L170.076 70.2662C170.079 71.3284 169.658 72.3479 168.908 73.0998C168.157 73.8517 167.139 74.2742 166.076 74.2742H151.676ZM151.676 70.2742V22.3702H165.979L166.076 70.2742H151.676ZM179.326 67.9501C179.312 67.9356 179.298 67.921 179.284 67.9064C174.264 62.4932 172.073 54.8982 172.073 45.7942C172.073 36.178 174.239 28.2889 179.551 23.2208C184.764 18.245 192.049 16.0662 200.745 16.0662C206.6 16.0662 211.798 17.0593 216.154 19.2662C220.662 21.4523 224.071 24.8776 226.307 29.4128C228.596 33.9267 229.609 39.4628 229.609 45.7942C229.609 54.9423 227.3 62.5632 222.047 67.9727L222.026 67.9936C216.775 73.3237 209.471 75.7142 200.745 75.7142C191.868 75.7142 184.482 73.344 179.326 67.9501ZM222.729 31.2022C220.873 27.4262 218.089 24.6422 214.377 22.8502C210.729 20.9942 206.185 20.0662 200.745 20.0662C192.681 20.0662 186.537 22.0822 182.313 26.1142C178.153 30.0822 176.073 36.6422 176.073 45.7942C176.073 54.3062 178.121 60.7702 182.217 65.1862C186.377 69.5382 192.553 71.7142 200.745 71.7142C208.745 71.7142 214.889 69.5382 219.177 65.1862C223.465 60.7702 225.609 54.3062 225.609 45.7942C225.609 39.8422 224.649 34.9782 222.729 31.2022ZM206.394 52.3952C206.401 52.3746 206.409 52.3541 206.417 52.3336C207.026 50.7415 207.401 48.6005 207.401 45.7942C207.401 42.4451 207.002 40.2162 206.447 38.8517C206.429 38.8058 206.411 38.7597 206.394 38.7132C205.877 37.2909 205.233 36.6524 204.647 36.3242C204.612 36.3047 204.577 36.2847 204.543 36.2642C203.696 35.7556 202.494 35.3942 200.745 35.3942C198.813 35.3942 197.631 35.7777 196.913 36.2262C196.306 36.6055 195.644 37.3188 195.108 38.776C194.616 40.2279 194.281 42.5015 194.281 45.7942C194.281 50.2743 195.061 52.9565 196.044 54.4284C196.851 55.5064 198.158 56.2902 200.745 56.2902C202.49 56.2902 203.573 55.897 204.277 55.4026C205.131 54.7835 205.864 53.8539 206.394 52.3952ZM206.601 58.6582C205.065 59.7462 203.113 60.2902 200.745 60.2902C197.161 60.2902 194.505 59.1062 192.777 56.7382C191.113 54.3062 190.281 50.6582 190.281 45.7942C190.281 42.2742 190.633 39.4902 191.337 37.4422C192.105 35.3302 193.257 33.7942 194.793 32.8342C196.329 31.8742 198.313 31.3942 200.745 31.3942C203.049 31.3942 205.001 31.8742 206.601 32.8342C208.201 33.7302 209.385 35.2342 210.153 37.3462C210.985 39.3942 211.401 42.2102 211.401 45.7942C211.401 48.9302 210.985 51.5862 210.153 53.7622C209.385 55.8742 208.201 57.5062 206.601 58.6582ZM231.482 25.8262C231.482 24.3411 232.305 22.9782 233.619 22.2865C235.101 21.5065 236.919 20.7904 238.999 20.1171C241.151 19.3566 243.475 18.7108 245.965 18.1725C248.434 17.6387 250.905 17.2044 253.378 16.8702L253.392 16.8683C255.965 16.5299 258.382 16.3542 260.634 16.3542C265.304 16.3542 269.507 16.9676 273.141 18.3242C276.936 19.6759 280.009 21.9788 282.129 25.2741C284.365 28.6475 285.274 32.8968 285.274 37.6342V70.2742C285.274 72.4833 283.483 74.2742 281.274 74.2742H266.97C264.761 74.2742 262.97 72.4833 262.97 70.2742V40.5142C262.97 39.7244 262.847 39.0861 262.649 38.5587C262.623 38.4889 262.598 38.4184 262.576 38.3473C262.434 37.8913 262.242 37.6025 262.03 37.3906C261.989 37.3496 261.949 37.3078 261.91 37.2651C261.775 37.1182 261.47 36.8684 260.774 36.6485C260.714 36.6296 260.654 36.6093 260.595 36.5876C259.942 36.347 258.966 36.1622 257.562 36.1622C256.442 36.1622 255.309 36.3078 254.156 36.6087C254.103 36.6225 254.049 36.6352 253.996 36.6469C253.924 36.6625 253.854 36.6779 253.786 36.6934V70.2742C253.786 72.4833 251.995 74.2742 249.786 74.2742H235.482C233.273 74.2742 231.482 72.4833 231.482 70.2742V25.8262ZM249.786 33.7942C250.554 33.4102 251.674 33.0582 253.146 32.7382C254.618 32.3542 256.09 32.1622 257.562 32.1622C259.29 32.1622 260.762 32.3862 261.978 32.8342C263.194 33.2182 264.154 33.7942 264.858 34.5622C265.562 35.2662 266.074 36.1302 266.394 37.1542C266.778 38.1782 266.97 39.2982 266.97 40.5142V70.2742H281.274V37.6342C281.274 33.3462 280.442 29.9542 278.778 27.4582C277.178 24.9622 274.842 23.1702 271.77 22.0822C268.698 20.9302 264.986 20.3542 260.634 20.3542C258.586 20.3542 256.346 20.5142 253.914 20.8342C251.546 21.1542 249.178 21.5702 246.81 22.0822C244.442 22.5942 242.266 23.2022 240.282 23.9062C238.298 24.5462 236.698 25.1862 235.482 25.8262V70.2742H249.786V33.7942ZM77.6071 15.0742H92.3911V4.03418H77.6071V15.0742ZM151.388 15.0742H166.172V4.03418H151.388V15.0742Z" fill="url(#paint0_linear_465_340)"></path><defs><linearGradient id="paint0_linear_465_340" x1="-3.27308" y1="62.6815" x2="286.403" y2="50.1819" gradientUnits="userSpaceOnUse"><stop stop-color="#67C0F2"></stop><stop offset="0.349674" stop-color="#EEF5FF"></stop><stop offset="0.612643" stop-color="#7AC7F4"></stop><stop offset="0.628962" stop-color="#67C0F2"></stop><stop offset="0.883072" stop-color="#DAEDFD"></stop></linearGradient></defs></svg> 